{
.appVersion = "1270";
copyright = "Copyright (c) 1993-2015 by Peter S. Baker";
customParameters = (
{
name = openTypeNameUniqueID;
value = "FontForge 2.0 : BeowulfOT : 24-4-2009";
},
{
name = openTypeNameVersion;
value = "Version 1.000";
},
{
name = codePageRanges;
value = (
1252
);
},
{
name = openTypeOS2FamilyClass;
value = (
0,
0
);
},
{
name = openTypeOS2Panose;
value = (
2,
0,
6,
3,
0,
0,
0,
0,
0,
0
);
},
{
name = openTypeOS2StrikeoutPosition;
value = 258;
},
{
name = openTypeOS2StrikeoutSize;
value = 49;
},
{
name = openTypeOS2SubscriptXOffset;
value = 0;
},
{
name = openTypeOS2SubscriptXSize;
value = 650;
},
{
name = openTypeOS2SubscriptYOffset;
value = 140;
},
{
name = openTypeOS2SubscriptYSize;
value = 700;
},
{
name = openTypeOS2SuperscriptXOffset;
value = 0;
},
{
name = openTypeOS2SuperscriptXSize;
value = 650;
},
{
name = openTypeOS2SuperscriptYOffset;
value = 480;
},
{
name = openTypeOS2SuperscriptYSize;
value = 700;
},
{
name = fsType;
value = (
);
},
{
name = unicodeRanges;
value = (
0,
1,
2,
3,
5,
6,
26,
29,
31,
60
);
},
{
name = vendorID;
value = PfEd;
},
{
name = blueScale;
value = 0.02273;
},
{
name = blueShift;
value = 6;
}
);
date = "1996-01-22 01:11:30 +0000";
disablesNiceNames = 1;
familyName = BeowulfOT;
featurePrefixes = (
{
code = "languagesystem DFLT dflt;\012languagesystem geor dflt;\012languagesystem grek dflt;\012languagesystem latn dflt;\012";
name = Languagesystems;
},
{

glyphs = (
{
glyphname = A;
layers = (
{
anchors = (
{
name = Above;
position = "{349, 595}";
},
{
name = Below;
position = "{282, -42}";
}
);
layerId = master01;
paths = (
{
closed = 1;
nodes = (
"-16 15 OFFCURVE",
"-14 18 OFFCURVE",
"-9 20 CURVE SMOOTH",
"6 23 OFFCURVE",
"35 31 OFFCURVE",
"46 38 CURVE",
"56 49 OFFCURVE",
"59 60 OFFCURVE",
"62 69 CURVE SMOOTH",
"82 117 OFFCURVE",
"91 134 OFFCURVE",
"111 182 CURVE SMOOTH",
"125 215 OFFCURVE",
"207 427 OFFCURVE",
"207 427 CURVE SMOOTH",
"219 457 OFFCURVE",
"249 518 OFFCURVE",
"262 552 CURVE",
"215 552 OFFCURVE",
"229 553 OFFCURVE",
"182 553 CURVE SMOOTH",
"142 553 OFFCURVE",
"110 524 OFFCURVE",
"90 500 CURVE",
"90 502 OFFCURVE",
"90 504 OFFCURVE",
"90 506 CURVE SMOOTH",
"90 528 OFFCURVE",
"96 573 OFFCURVE",
"110 584 CURVE",
"203 584 LINE SMOOTH",
"242 584 OFFCURVE",
"326 585 OFFCURVE",
"361 585 CURVE SMOOTH",
"371 585 OFFCURVE",
"382 582 OFFCURVE",
"389 562 CURVE SMOOTH",
"428 452 OFFCURVE",
"471 362 OFFCURVE",
"510 260 CURVE SMOOTH",
"536 195 OFFCURVE",
"559 119 OFFCURVE",
"592 43 CURVE",
"605 34 OFFCURVE",
"636 32 OFFCURVE",
"649 29 CURVE SMOOTH",
"652 26 OFFCURVE",
"655 20 OFFCURVE",
"655 15 CURVE SMOOTH",
"655 12 OFFCURVE",
"653 9 OFFCURVE",
"649 8 CURVE SMOOTH",
"629 1 OFFCURVE",
"587 -6 OFFCURVE",
"556 -6 CURVE SMOOTH",
"519 -6 OFFCURVE",
"462 -5 OFFCURVE",
"435 3 CURVE SMOOTH",
"429 4 OFFCURVE",
"426 9 OFFCURVE",
"426 13 CURVE SMOOTH",
"426 16 OFFCURVE",
"428 18 OFFCURVE",
"431 20 CURVE SMOOTH",
"438 20 OFFCURVE",
"475 32 OFFCURVE",
"482 37 CURVE",
"479 88 OFFCURVE",
"439 167 OFFCURVE",
"439 167 CURVE",
"334 167 OFFCURVE",
"265 172 OFFCURVE",
"184 258 CURVE",
"153 188 OFFCURVE",
"127 116 OFFCURVE",
"95 40 CURVE",
"104 28 OFFCURVE",
"127 27 OFFCURVE",
"144 23 CURVE",
"145 20 OFFCURVE",
"146 17 OFFCURVE",
"146 14 CURVE SMOOTH",
"146 10 OFFCURVE",
"145 7 OFFCURVE",
"142 5 CURVE SMOOTH",
"127 -3 OFFCURVE",
"96 -5 OFFCURVE",
"66 -5 CURVE SMOOTH",
"39 -5 OFFCURVE",
"9 0 OFFCURVE",
"-10 0 CURVE SMOOTH",
"-14 3 OFFCURVE",
"-16 7 OFFCURVE",
"-16 11 CURVE SMOOTH"
);
},
{
closed = 1;
nodes = (
"250 241 OFFCURVE",
"321 217 OFFCURVE",
"419 217 CURVE",
"295 539 LINE",
"268 479 OFFCURVE",
"234 379 OFFCURVE",
"208 315 CURVE"
);
}
);
width = 659;
}
);
unicode = 0041;
},
{
glyphname = Aacute;
layers = (
{
layerId = master01;
paths = (
{
closed = 1;
nodes = (
"590 698 OFFCURVE",
"564 672 OFFCURVE",
"549 668 CURVE",
"528 672 OFFCURVE",
"507 715 OFFCURVE",
"490 715 CURVE SMOOTH",
"471 715 OFFCURVE",
"454 708 OFFCURVE",
"428 700 CURVE SMOOTH",
"351 678 OFFCURVE",
"312 664 OFFCURVE",
"241 632 CURVE",
"238 636 LINE",
"284 666 OFFCURVE",
"409 703 OFFCURVE",
"483 725 CURVE SMOOTH",
"507 732 OFFCURVE",
"522 738 OFFCURVE",
"540 738 CURVE SMOOTH",
"561 738 OFFCURVE",
"580 729 OFFCURVE",
"591 709 CURVE"
);
},
{
closed = 1;
nodes = (
"629 1 OFFCURVE",
"587 -6 OFFCURVE",
"556 -6 CURVE SMOOTH",
"519 -6 OFFCURVE",
"462 -5 OFFCURVE",
"435 3 CURVE SMOOTH",
"425 6 OFFCURVE",
"423 16 OFFCURVE",
"431 20 CURVE SMOOTH",
"438 20 OFFCURVE",
"475 32 OFFCURVE",
"482 37 CURVE",
"479 88 OFFCURVE",
"439 167 OFFCURVE",
"439 167 CURVE",
"334 167 OFFCURVE",
"265 172 OFFCURVE",
"184 258 CURVE",
"153 188 OFFCURVE",
"127 116 OFFCURVE",
"95 40 CURVE",
"104 28 OFFCURVE",
"127 27 OFFCURVE",
"144 23 CURVE",
"147 17 OFFCURVE",
"147 8 OFFCURVE",
"142 5 CURVE SMOOTH",
"127 -3 OFFCURVE",
"96 -4 OFFCURVE",
"66 -5 CURVE SMOOTH",
"64 -5 OFFCURVE",
"63 -5 OFFCURVE",
"61 -5 CURVE SMOOTH",
"35 -5 OFFCURVE",
"7 0 OFFCURVE",
"-10 0 CURVE SMOOTH",
"-14 3 OFFCURVE",
"-16 7 OFFCURVE",
"-16 11 CURVE SMOOTH",
"-16 15 OFFCURVE",
"-14 18 OFFCURVE",
"-9 20 CURVE SMOOTH",
"6 23 OFFCURVE",
"35 31 OFFCURVE",
"46 38 CURVE",
"56 49 OFFCURVE",
"59 60 OFFCURVE",
"62 69 CURVE SMOOTH",
"82 117 OFFCURVE",
"91 134 OFFCURVE",
"111 182 CURVE SMOOTH",
"125 215 OFFCURVE",
"207 427 OFFCURVE",
"207 427 CURVE SMOOTH",
"219 457 OFFCURVE",
"249 518 OFFCURVE",
"262 552 CURVE",
"215 552 OFFCURVE",
"229 553 OFFCURVE",
"182 553 CURVE SMOOTH",
"142 553 OFFCURVE",
"110 524 OFFCURVE",
"90 500 CURVE",
"90 502 OFFCURVE",
"90 504 OFFCURVE",
"90 506 CURVE SMOOTH",
"90 528 OFFCURVE",
"96 573 OFFCURVE",
"110 584 CURVE",
"203 584 LINE SMOOTH",
"242 584 OFFCURVE",
"326 585 OFFCURVE",
"361 585 CURVE SMOOTH",
"371 585 OFFCURVE",
"382 582 OFFCURVE",
"389 562 CURVE SMOOTH",
"428 452 OFFCURVE",
"471 362 OFFCURVE",
"510 260 CURVE SMOOTH",
"536 195 OFFCURVE",
"559 119 OFFCURVE",
"592 43 CURVE",
"605 34 OFFCURVE",
"636 32 OFFCURVE",
"649 29 CURVE SMOOTH",
"652 26 OFFCURVE",
"655 20 OFFCURVE",
"655 15 CURVE SMOOTH",
"655 12 OFFCURVE",
"653 9 OFFCURVE",
"649 8 CURVE SMOOTH"
);
},
{
closed = 1;
nodes = (
"295 539 LINE",
"268 479 OFFCURVE",
"234 379 OFFCURVE",
"208 315 CURVE",
"250 241 OFFCURVE",
"321 217 OFFCURVE",
"419 217 CURVE"
);
}
);
width = 659;
}
);
unicode = 00C1;
},
{
glyphname = Acircumflex;
layers = (
{
layerId = master01;
paths = (
{
closed = 1;
nodes = (
"629 1 OFFCURVE",
"587 -6 OFFCURVE",
"556 -6 CURVE SMOOTH",
"519 -6 OFFCURVE",
"462 -5 OFFCURVE",
"435 3 CURVE SMOOTH",
"429 4 OFFCURVE",
"426 9 OFFCURVE",
"426 13 CURVE SMOOTH",
"426 16 OFFCURVE",
"428 18 OFFCURVE",
"431 20 CURVE SMOOTH",
"438 20 OFFCURVE",
"475 32 OFFCURVE",
"482 37 CURVE",
"479 88 OFFCURVE",
"439 167 OFFCURVE",
"439 167 CURVE",
"334 167 OFFCURVE",
"265 172 OFFCURVE",
"184 258 CURVE",
"153 188 OFFCURVE",
"127 116 OFFCURVE",
"95 40 CURVE",
"104 28 OFFCURVE",
"127 27 OFFCURVE",
"144 23 CURVE",
"145 20 OFFCURVE",
"146 17 OFFCURVE",
"146 14 CURVE SMOOTH",
"146 10 OFFCURVE",
"145 7 OFFCURVE",
"142 5 CURVE SMOOTH",
"127 -3 OFFCURVE",
"96 -5 OFFCURVE",
"66 -5 CURVE SMOOTH",
"39 -5 OFFCURVE",
"9 0 OFFCURVE",
"-10 0 CURVE SMOOTH",
"-14 3 OFFCURVE",
"-16 7 OFFCURVE",
"-16 11 CURVE SMOOTH",
"-16 15 OFFCURVE",
"-14 18 OFFCURVE",
"-9 20 CURVE SMOOTH",
"6 23 OFFCURVE",
"35 31 OFFCURVE",
"46 38 CURVE",
"56 49 OFFCURVE",
"59 60 OFFCURVE",
"62 69 CURVE SMOOTH",
"82 117 OFFCURVE",
"91 134 OFFCURVE",
"111 182 CURVE SMOOTH",
"125 215 OFFCURVE",
"207 427 OFFCURVE",
"207 427 CURVE SMOOTH",
"219 457 OFFCURVE",
"249 518 OFFCURVE",
"262 552 CURVE",
"215 552 OFFCURVE",
"229 553 OFFCURVE",
"182 553 CURVE SMOOTH",
"142 553 OFFCURVE",
"110 524 OFFCURVE",
"90 500 CURVE",
"90 502 OFFCURVE",
"90 504 OFFCURVE",
"90 506 CURVE SMOOTH",
"90 528 OFFCURVE",
"96 573 OFFCURVE",
"110 584 CURVE",
"203 584 LINE SMOOTH",
"242 584 OFFCURVE",
"326 585 OFFCURVE",
"361 585 CURVE SMOOTH",
"371 585 OFFCURVE",
"382 582 OFFCURVE",
"389 562 CURVE SMOOTH",
"428 452 OFFCURVE",
"471 362 OFFCURVE",
"510 260 CURVE SMOOTH",
"536 195 OFFCURVE",
"559 119 OFFCURVE",
"592 43 CURVE",
"605 34 OFFCURVE",
"636 32 OFFCURVE",
"649 29 CURVE SMOOTH",
"652 26 OFFCURVE",
"655 20 OFFCURVE",
"655 15 CURVE SMOOTH",
"655 12 OFFCURVE",
"653 9 OFFCURVE",
"649 8 CURVE SMOOTH"
);
},
{
closed = 1;
nodes = (
"295 539 LINE",
"268 479 OFFCURVE",
"234 379 OFFCURVE",
"208 315 CURVE",
"250 241 OFFCURVE",
"321 217 OFFCURVE",
"419 217 CURVE"
);
},
{
closed = 1;
nodes = (
"169 650 OFFCURVE",
"173 658 OFFCURVE",
"181 664 CURVE SMOOTH",
"219 691 OFFCURVE",
"257 719 OFFCURVE",
"296 744 CURVE SMOOTH",
"300 747 OFFCURVE",
"310 749 OFFCURVE",
"318 749 CURVE SMOOTH",
"323 749 OFFCURVE",
"327 748 OFFCURVE",
"330 746 CURVE SMOOTH",
"371 721 OFFCURVE",
"409 692 OFFCURVE",
"448 664 CURVE SMOOTH",
"456 658 OFFCURVE",
"460 650 OFFCURVE",
"460 643 CURVE SMOOTH",
"460 637 OFFCURVE",
"457 633 OFFCURVE",
"452 633 CURVE SMOOTH",
"450 633 OFFCURVE",
"447 634 OFFCURVE",
"443 636 CURVE SMOOTH",
"407 659 OFFCURVE",
"372 682 OFFCURVE",
"336 705 CURVE SMOOTH",
"326 711 OFFCURVE",
"320 715 OFFCURVE",
"314 715 CURVE SMOOTH",
"309 715 OFFCURVE",
"304 712 OFFCURVE",
"294 706 CURVE SMOOTH",
"257 683 OFFCURVE",
"222 659 OFFCURVE",
"186 636 CURVE SMOOTH",
"182 634 OFFCURVE",
"179 633 OFFCURVE",
"177 633 CURVE SMOOTH",
"172 633 OFFCURVE",
"169 637 OFFCURVE",
"169 643 CURVE SMOOTH"
);
}
);
width = 659;
}
);
unicode = 00C2;
},
{
glyphname = Adieresis;
layers = (
{
layerId = master01;
paths = (
{
closed = 1;
nodes = (
"629 1 OFFCURVE",
"587 -6 OFFCURVE",
"556 -6 CURVE SMOOTH",
"519 -6 OFFCURVE",
"462 -5 OFFCURVE",
"435 3 CURVE SMOOTH",
"429 4 OFFCURVE",
"426 9 OFFCURVE",
"426 13 CURVE SMOOTH",
"426 16 OFFCURVE",
"428 18 OFFCURVE",
"431 20 CURVE SMOOTH",
"438 20 OFFCURVE",
"475 32 OFFCURVE",
"482 37 CURVE",
"479 88 OFFCURVE",
"439 167 OFFCURVE",
"439 167 CURVE",
"334 167 OFFCURVE",
"265 172 OFFCURVE",
"184 258 CURVE",
"153 188 OFFCURVE",
"127 116 OFFCURVE",
"95 40 CURVE",
"104 28 OFFCURVE",
"127 27 OFFCURVE",
"144 23 CURVE",
"145 20 OFFCURVE",
"146 17 OFFCURVE",
"146 14 CURVE SMOOTH",
"146 10 OFFCURVE",
"145 7 OFFCURVE",
"142 5 CURVE SMOOTH",
"127 -3 OFFCURVE",
"96 -5 OFFCURVE",
"66 -5 CURVE SMOOTH",
"39 -5 OFFCURVE",
"9 0 OFFCURVE",
"-10 0 CURVE SMOOTH",
"-14 3 OFFCURVE",
"-16 7 OFFCURVE",
"-16 11 CURVE SMOOTH",
"-16 15 OFFCURVE",
"-14 18 OFFCURVE",
"-9 20 CURVE SMOOTH",
"6 23 OFFCURVE",
"35 31 OFFCURVE",
"46 38 CURVE",
"56 49 OFFCURVE",
"59 60 OFFCURVE",
"62 69 CURVE SMOOTH",
"82 117 OFFCURVE",
"91 134 OFFCURVE",
"111 182 CURVE SMOOTH",
"125 215 OFFCURVE",
"207 427 OFFCURVE",
"207 427 CURVE SMOOTH",
"219 457 OFFCURVE",
"249 518 OFFCURVE",
"262 552 CURVE",
"215 552 OFFCURVE",
"229 553 OFFCURVE",
"182 553 CURVE SMOOTH",
"142 553 OFFCURVE",
"110 524 OFFCURVE",
"90 500 CURVE",
"90 502 OFFCURVE",
"90 504 OFFCURVE",
"90 506 CURVE SMOOTH",
"90 528 OFFCURVE",
"96 573 OFFCURVE",
"110 584 CURVE",
"203 584 LINE SMOOTH",
"242 584 OFFCURVE",
"326 585 OFFCURVE",
"361 585 CURVE SMOOTH",
"371 585 OFFCURVE",
"382 582 OFFCURVE",
"389 562 CURVE SMOOTH",
"428 452 OFFCURVE",
"471 362 OFFCURVE",
"510 260 CURVE SMOOTH",
"536 195 OFFCURVE",
"559 119 OFFCURVE",
"592 43 CURVE",
"605 34 OFFCURVE",
"636 32 OFFCURVE",
"649 29 CURVE SMOOTH",
"652 26 OFFCURVE",
"655 20 OFFCURVE",
"655 15 CURVE SMOOTH",
"655 12 OFFCURVE",
"653 9 OFFCURVE",
"649 8 CURVE SMOOTH"
);
},
{
closed = 1;
nodes = (
"295 539 LINE",
"268 479 OFFCURVE",
"234 379 OFFCURVE",
"208 315 CURVE",
"250 241 OFFCURVE",
"321 217 OFFCURVE",
"419 217 CURVE"
);
},
{
closed = 1;
nodes = (
"211 686 OFFCURVE",
"222 701 OFFCURVE",
"243 712 CURVE SMOOTH",
"249 715 OFFCURVE",
"254 717 OFFCURVE",
"258 717 CURVE SMOOTH",
"269 717 OFFCURVE",
"275 706 OFFCURVE",
"275 684 CURVE SMOOTH",
"275 662 OFFCURVE",
"274 659 OFFCURVE",
"260 650 CURVE SMOOTH",
"251 644 OFFCURVE",
"243 641 OFFCURVE",
"235 641 CURVE SMOOTH",
"218 641 OFFCURVE",
"211 655 OFFCURVE",
"211 669 CURVE SMOOTH"
);
},
{
closed = 1;
nodes = (
"329 686 OFFCURVE",
"341 701 OFFCURVE",
"362 712 CURVE SMOOTH",
"368 715 OFFCURVE",
"373 717 OFFCURVE",
"377 717 CURVE SMOOTH",
"388 717 OFFCURVE",
"393 706 OFFCURVE",
"393 684 CURVE SMOOTH",
"393 662 OFFCURVE",
"393 659 OFFCURVE",
"379 650 CURVE SMOOTH",
"370 644 OFFCURVE",
"362 641 OFFCURVE",
"354 641 CURVE SMOOTH",
"337 641 OFFCURVE",
"329 655 OFFCURVE",
"329 669 CURVE SMOOTH"
);
}
);
width = 659;
}
);
unicode = 00C4;
},
{
glyphname = Agrave;
layers = (
{
layerId = master01;
paths = (
{
closed = 1;
nodes = (
"629 1 OFFCURVE",
"587 -6 OFFCURVE",
"556 -6 CURVE SMOOTH",
"519 -6 OFFCURVE",
"462 -5 OFFCURVE",
"435 3 CURVE SMOOTH",
"429 4 OFFCURVE",
"426 9 OFFCURVE",
"426 13 CURVE SMOOTH",
"426 16 OFFCURVE",
"428 18 OFFCURVE",
"431 20 CURVE SMOOTH",
"438 20 OFFCURVE",
"475 32 OFFCURVE",
"482 37 CURVE",
"479 88 OFFCURVE",
"439 167 OFFCURVE",
"439 167 CURVE",
"334 167 OFFCURVE",
"265 172 OFFCURVE",
"184 258 CURVE",
"153 188 OFFCURVE",
"127 116 OFFCURVE",
"95 40 CURVE",
"104 28 OFFCURVE",
"127 27 OFFCURVE",
"144 23 CURVE",
"145 20 OFFCURVE",
"146 17 OFFCURVE",
"146 14 CURVE SMOOTH",
"146 10 OFFCURVE",
"145 7 OFFCURVE",
"142 5 CURVE SMOOTH",
"127 -3 OFFCURVE",
"96 -5 OFFCURVE",
"66 -5 CURVE SMOOTH",
"39 -5 OFFCURVE",
"9 0 OFFCURVE",
"-10 0 CURVE SMOOTH",
"-14 3 OFFCURVE",
"-16 7 OFFCURVE",
"-16 11 CURVE SMOOTH",
"-16 15 OFFCURVE",
"-14 18 OFFCURVE",
"-9 20 CURVE SMOOTH",
"6 23 OFFCURVE",
"35 31 OFFCURVE",
"46 38 CURVE",
"56 49 OFFCURVE",
"59 60 OFFCURVE",
"62 69 CURVE SMOOTH",
"82 117 OFFCURVE",
"91 134 OFFCURVE",
"111 182 CURVE SMOOTH",
"125 215 OFFCURVE",
"207 427 OFFCURVE",
"207 427 CURVE SMOOTH",
"219 457 OFFCURVE",
"249 518 OFFCURVE",
"262 552 CURVE",
"215 552 OFFCURVE",
"229 553 OFFCURVE",
"182 553 CURVE SMOOTH",
"142 553 OFFCURVE",
"110 524 OFFCURVE",
"90 500 CURVE",
"90 502 OFFCURVE",
"90 504 OFFCURVE",
"90 506 CURVE SMOOTH",
"90 528 OFFCURVE",
"96 573 OFFCURVE",
"110 584 CURVE",
"203 584 LINE SMOOTH",
"242 584 OFFCURVE",
"326 585 OFFCURVE",
"361 585 CURVE SMOOTH",
"371 585 OFFCURVE",
"382 582 OFFCURVE",
"389 562 CURVE SMOOTH",
"428 452 OFFCURVE",
"471 362 OFFCURVE",
"510 260 CURVE SMOOTH",
"536 195 OFFCURVE",
"559 119 OFFCURVE",
"592 43 CURVE",
"605 34 OFFCURVE",
"636 32 OFFCURVE",
"649 29 CURVE SMOOTH",
"652 26 OFFCURVE",
"655 20 OFFCURVE",
"655 15 CURVE SMOOTH",
"655 12 OFFCURVE",
"653 9 OFFCURVE",
"649 8 CURVE SMOOTH"
);
},
{
closed = 1;
nodes = (
"295 539 LINE",
"268 479 OFFCURVE",
"234 379 OFFCURVE",
"208 315 CURVE",
"250 241 OFFCURVE",
"321 217 OFFCURVE",
"419 217 CURVE"
);
},
{
closed = 1;
nodes = (
"47 729 OFFCURVE",
"66 738 OFFCURVE",
"87 738 CURVE SMOOTH",
"105 738 OFFCURVE",
"120 732 OFFCURVE",
"144 725 CURVE SMOOTH",
"218 703 OFFCURVE",
"342 666 OFFCURVE",
"388 636 CURVE",
"386 632 LINE",
"315 664 OFFCURVE",
"276 678 OFFCURVE",
"199 700 CURVE SMOOTH",
"173 708 OFFCURVE",
"155 715 OFFCURVE",
"136 715 CURVE SMOOTH",
"119 715 OFFCURVE",
"98 672 OFFCURVE",
"77 668 CURVE",
"62 672 OFFCURVE",
"37 698 OFFCURVE",
"36 709 CURVE"
);
}
);
width = 659;
}
);
unicode = 00C0;
},
{
glyphname = Amacron;
layers = (
{
layerId = master01;
paths = (
{
closed = 1;
nodes = (
"491.9 692.75 OFFCURVE",
"464.7 656.2 OFFCURVE",
"442.6 656.2 CURVE SMOOTH",
"430.7 656.2 OFFCURVE",
"428.15 674.9 OFFCURVE",
"418.8 674.9 CURVE SMOOTH",
"395 674.9 OFFCURVE",
"212.25 658.75 OFFCURVE",
"189.3 658.75 CURVE SMOOTH",
"169.75 658.75 OFFCURVE",
"157.85 659.6 OFFCURVE",
"157.85 675.75 CURVE SMOOTH",
"157.85 691.9 OFFCURVE",
"184.2 721.65 OFFCURVE",
"202.9 721.65 CURVE SMOOTH",
"216.5 721.65 OFFCURVE",
"213.95 703.8 OFFCURVE",
"234.35 703.8 CURVE SMOOTH",
"267.5 703.8 OFFCURVE",
"427.3 721.65 OFFCURVE",
"454.5 721.65 CURVE SMOOTH",
"471.5 721.65 OFFCURVE",
"491.9 721.65 OFFCURVE",
"491.9 706.35 CURVE SMOOTH"
);
},
{
closed = 1;
nodes = (
"629 1 OFFCURVE",
"587 -6 OFFCURVE",
"556 -6 CURVE SMOOTH",
"519 -6 OFFCURVE",
"462 -5 OFFCURVE",
"435 3 CURVE SMOOTH",
"425 6 OFFCURVE",
"423 16 OFFCURVE",
"431 20 CURVE SMOOTH",
"438 20 OFFCURVE",
"475 32 OFFCURVE",
"482 37 CURVE",
"479 88 OFFCURVE",
"439 167 OFFCURVE",
"439 167 CURVE",
"334 167 OFFCURVE",
"265 172 OFFCURVE",
"184 258 CURVE",
"153 188 OFFCURVE",
"127 116 OFFCURVE",
"95 40 CURVE",
"104 28 OFFCURVE",
"127 27 OFFCURVE",
"144 23 CURVE",
"147 17 OFFCURVE",
"147 8 OFFCURVE",
"142 5 CURVE SMOOTH",
"127 -3 OFFCURVE",
"96 -4 OFFCURVE",
"66 -5 CURVE SMOOTH",
"64 -5 OFFCURVE",
"63 -5 OFFCURVE",
"61 -5 CURVE SMOOTH",
"35 -5 OFFCURVE",
"7 0 OFFCURVE",
"-10 0 CURVE SMOOTH",
"-14 3 OFFCURVE",
"-16 7 OFFCURVE",
"-16 11 CURVE SMOOTH",
"-16 15 OFFCURVE",
"-14 18 OFFCURVE",
"-9 20 CURVE SMOOTH",
"6 23 OFFCURVE",
"35 31 OFFCURVE",
"46 38 CURVE",
"56 49 OFFCURVE",
"59 60 OFFCURVE",
"62 69 CURVE SMOOTH",
"82 117 OFFCURVE",
"91 134 OFFCURVE",
"111 182 CURVE SMOOTH",
"125 215 OFFCURVE",
"207 427 OFFCURVE",
"207 427 CURVE SMOOTH",
"219 457 OFFCURVE",
"249 518 OFFCURVE",
"262 552 CURVE",
"215 552 OFFCURVE",
"229 553 OFFCURVE",
"182 553 CURVE SMOOTH",
"142 553 OFFCURVE",
"110 524 OFFCURVE",
"90 500 CURVE",
"90 502 OFFCURVE",
"90 504 OFFCURVE",
"90 506 CURVE SMOOTH",
"90 528 OFFCURVE",
"96 573 OFFCURVE",
"110 584 CURVE",
"203 584 LINE SMOOTH",
"242 584 OFFCURVE",
"326 585 OFFCURVE",
"361 585 CURVE SMOOTH",
"371 585 OFFCURVE",
"382 582 OFFCURVE",
"389 562 CURVE SMOOTH",
"428 452 OFFCURVE",
"471 362 OFFCURVE",
"510 260 CURVE SMOOTH",
"536 195 OFFCURVE",
"559 119 OFFCURVE",
"592 43 CURVE",
"605 34 OFFCURVE",
"636 32 OFFCURVE",
"649 29 CURVE SMOOTH",
"652 26 OFFCURVE",
"655 20 OFFCURVE",
"655 15 CURVE SMOOTH",
"655 12 OFFCURVE",
"653 9 OFFCURVE",
"649 8 CURVE SMOOTH"
);
},
{
closed = 1;
nodes = (
"295 539 LINE",
"268 479 OFFCURVE",
"234 379 OFFCURVE",
"208 315 CURVE",
"250 241 OFFCURVE",
"321 217 OFFCURVE",
"419 217 CURVE"
);
}
);
width = 659;
}
);
unicode = 0100;
},
{
glyphname = Aring;
layers = (
{
layerId = master01;
paths = (
{
closed = 1;
nodes = (
"629 1 OFFCURVE",
"587 -6 OFFCURVE",
"556 -6 CURVE SMOOTH",
"519 -6 OFFCURVE",
"462 -5 OFFCURVE",
"435 3 CURVE SMOOTH",
"429 4 OFFCURVE",
"426 9 OFFCURVE",
"426 13 CURVE SMOOTH",
"426 16 OFFCURVE",
"428 18 OFFCURVE",
"431 20 CURVE SMOOTH",
"438 20 OFFCURVE",
"475 32 OFFCURVE",
"482 37 CURVE",
"479 88 OFFCURVE",
"439 167 OFFCURVE",
"439 167 CURVE",
"334 167 OFFCURVE",
"265 172 OFFCURVE",
"184 258 CURVE",
"153 188 OFFCURVE",
"127 116 OFFCURVE",
"95 40 CURVE",
"104 28 OFFCURVE",
"127 27 OFFCURVE",
"144 23 CURVE SMOOTH",
"145 20 OFFCURVE",
"146 17 OFFCURVE",
"146 14 CURVE SMOOTH",
"146 10 OFFCURVE",
"145 7 OFFCURVE",
"142 5 CURVE SMOOTH",
"127 -3 OFFCURVE",
"96 -5 OFFCURVE",
"66 -5 CURVE SMOOTH",
"39 -5 OFFCURVE",
"9 0 OFFCURVE",
"-10 0 CURVE SMOOTH",
"-14 3 OFFCURVE",
"-16 7 OFFCURVE",
"-16 11 CURVE SMOOTH",
"-16 15 OFFCURVE",
"-14 18 OFFCURVE",
"-9 20 CURVE SMOOTH",
"6 23 OFFCURVE",
"35 31 OFFCURVE",
"46 38 CURVE",
"56 49 OFFCURVE",
"59 60 OFFCURVE",
"62 69 CURVE SMOOTH",
"82 117 OFFCURVE",
"91 134 OFFCURVE",
"111 182 CURVE SMOOTH",
"125 215 OFFCURVE",
"207 427 OFFCURVE",
"207 427 CURVE SMOOTH",
"216 449 OFFCURVE",
"235 489 OFFCURVE",
"250 522 CURVE",
"237 535 OFFCURVE",
"230 556 OFFCURVE",
"230 590 CURVE SMOOTH",
"230 658 OFFCURVE",
"265 728 OFFCURVE",
"349 728 CURVE SMOOTH",
"399 728 OFFCURVE",
"415 649 OFFCURVE",
"415 624 CURVE SMOOTH",
"415 611 OFFCURVE",
"411 583 OFFCURVE",
"395 564 CURVE SMOOTH",
"394 563 OFFCURVE",
"392 561 OFFCURVE",
"390 559 CURVE SMOOTH",
"429 450 OFFCURVE",
"471 361 OFFCURVE",
"510 260 CURVE SMOOTH",
"536 195 OFFCURVE",
"559 119 OFFCURVE",
"592 43 CURVE",
"605 34 OFFCURVE",
"636 32 OFFCURVE",
"649 29 CURVE SMOOTH",
"652 26 OFFCURVE",
"655 20 OFFCURVE",
"655 15 CURVE SMOOTH",
"655 12 OFFCURVE",
"653 9 OFFCURVE",
"649 8 CURVE SMOOTH"
);
},
{
closed = 1;
nodes = (
"365 638 OFFCURVE",
"333 697 OFFCURVE",
"310 697 CURVE SMOOTH",
"287 697 OFFCURVE",
"276 675 OFFCURVE",
"276 648 CURVE SMOOTH",
"276 617 OFFCURVE",
"289 557 OFFCURVE",
"334 557 CURVE SMOOTH",
"361 557 OFFCURVE",
"365 594 OFFCURVE",
"365 616 CURVE SMOOTH"
);
},
{
closed = 1;
nodes = (
"258 448 OFFCURVE",
"229 369 OFFCURVE",
"208 315 CURVE",
"250 241 OFFCURVE",
"321 217 OFFCURVE",
"419 217 CURVE",
"307 508 LINE",
"303 507 OFFCURVE",
"300 507 OFFCURVE",
"297 507 CURVE SMOOTH",
"292 507 OFFCURVE",
"287 507 OFFCURVE",
"282 508 CURVE"
);
}
);
width = 659;
}
);
unicode = 00C5;
},
{
glyphname = Atilde;
layers = (
{
layerId = master01;
paths = (
{
closed = 1;
nodes = (
"629 1 OFFCURVE",
"587 -6 OFFCURVE",
"556 -6 CURVE SMOOTH",
"519 -6 OFFCURVE",
"462 -5 OFFCURVE",
"435 3 CURVE SMOOTH",
"429 4 OFFCURVE",
"426 9 OFFCURVE",
"426 13 CURVE SMOOTH",
"426 16 OFFCURVE",
"428 18 OFFCURVE",
"431 20 CURVE SMOOTH",
"438 20 OFFCURVE",
"475 32 OFFCURVE",
"482 37 CURVE",
"479 88 OFFCURVE",
"439 167 OFFCURVE",
"439 167 CURVE",
"334 167 OFFCURVE",
"265 172 OFFCURVE",
"184 258 CURVE",
"153 188 OFFCURVE",
"127 116 OFFCURVE",
"95 40 CURVE",
"104 28 OFFCURVE",
"127 27 OFFCURVE",
"144 23 CURVE",
"145 20 OFFCURVE",
"146 17 OFFCURVE",
"146 14 CURVE SMOOTH",
"146 10 OFFCURVE",
"145 7 OFFCURVE",
"142 5 CURVE SMOOTH",
"127 -3 OFFCURVE",
"96 -5 OFFCURVE",
"66 -5 CURVE SMOOTH",
"39 -5 OFFCURVE",
"9 0 OFFCURVE",
"-10 0 CURVE SMOOTH",
"-14 3 OFFCURVE",
"-16 7 OFFCURVE",
"-16 11 CURVE SMOOTH",
"-16 15 OFFCURVE",
"-14 18 OFFCURVE",
"-9 20 CURVE SMOOTH",
"6 23 OFFCURVE",
"35 31 OFFCURVE",
"46 38 CURVE",
"56 49 OFFCURVE",
"59 60 OFFCURVE",
"62 69 CURVE SMOOTH",
"82 117 OFFCURVE",
"91 134 OFFCURVE",
"111 182 CURVE SMOOTH",
"125 215 OFFCURVE",
"207 427 OFFCURVE",
"207 427 CURVE SMOOTH",
"219 457 OFFCURVE",
"249 518 OFFCURVE",
"262 552 CURVE",
"215 552 OFFCURVE",
"229 553 OFFCURVE",
"182 553 CURVE SMOOTH",
"142 553 OFFCURVE",
"110 524 OFFCURVE",
"90 500 CURVE",
"90 502 OFFCURVE",
"90 504 OFFCURVE",
"90 506 CURVE SMOOTH",
"90 528 OFFCURVE",
"96 573 OFFCURVE",
"110 584 CURVE",
"203 584 LINE SMOOTH",
"242 584 OFFCURVE",
"326 585 OFFCURVE",
"361 585 CURVE SMOOTH",
"371 585 OFFCURVE",
"382 582 OFFCURVE",
"389 562 CURVE SMOOTH",
"428 452 OFFCURVE",
"471 362 OFFCURVE",
"510 260 CURVE SMOOTH",
"536 195 OFFCURVE",
"559 119 OFFCURVE",
"592 43 CURVE",
"605 34 OFFCURVE",
"636 32 OFFCURVE",
"649 29 CURVE SMOOTH",
"652 26 OFFCURVE",
"655 20 OFFCURVE",
"655 15 CURVE SMOOTH",
"655 12 OFFCURVE",
"653 9 OFFCURVE",
"649 8 CURVE SMOOTH"
);
},
{
closed = 1;
nodes = (
"295 539 LINE",
"268 479 OFFCURVE",
"234 379 OFFCURVE",
"208 315 CURVE",
"250 241 OFFCURVE",
"321 217 OFFCURVE",
"419 217 CURVE"
);
},
{
closed = 1;
nodes = (
"170 703 OFFCURVE",
"192 720 OFFCURVE",
"207 732 CURVE SMOOTH",
"212 736 OFFCURVE",
"223 742 OFFCURVE",
"231 742 CURVE SMOOTH",
"237 742 OFFCURVE",
"242 739 OFFCURVE",
"244 729 CURVE SMOOTH",
"247 712 OFFCURVE",
"261 702 OFFCURVE",
"277 702 CURVE SMOOTH",
"283 702 OFFCURVE",
"290 704 OFFCURVE",
"297 707 CURVE SMOOTH",
"311 714 OFFCURVE",
"327 721 OFFCURVE",
"343 727 CURVE SMOOTH",
"351 730 OFFCURVE",
"361 733 OFFCURVE",
"371 733 CURVE SMOOTH",
"398 733 OFFCURVE",
"415 714 OFFCURVE",
"430 701 CURVE SMOOTH",
"436 696 OFFCURVE",
"440 689 OFFCURVE",
"440 681 CURVE SMOOTH",
"440 675 OFFCURVE",
"438 669 OFFCURVE",
"432 664 CURVE SMOOTH",
"419 653 OFFCURVE",
"404 632 OFFCURVE",
"382 632 CURVE SMOOTH",
"353 632 OFFCURVE",
"363 693 OFFCURVE",
"327 693 CURVE SMOOTH",
"323 693 OFFCURVE",
"320 692 OFFCURVE",
"315 691 CURVE SMOOTH",
"286 682 OFFCURVE",
"262 667 OFFCURVE",
"235 656 CURVE SMOOTH",
"229 653 OFFCURVE",
"221 652 OFFCURVE",
"212 652 CURVE SMOOTH",
"192 652 OFFCURVE",
"170 660 OFFCURVE",
"170 678 CURVE SMOOTH"
);
}
);
width = 659;
}
);
unicode = 00C3;
},
{
glyphname = AE;
layers = (
{
anchors = (
{
name = Above;
position = "{406, 595}";
},
{
name = Below;
position = "{386, -42}";
}
);
layerId = master01;
paths = (
{
closed = 1;
nodes = (
"678 85 OFFCURVE",
"679 78 OFFCURVE",
"679 70 CURVE SMOOTH",
"679 45 OFFCURVE",
"677 10 OFFCURVE",
"671 -1 CURVE",
"650 -1 OFFCURVE",
"635 -1 OFFCURVE",
"622 -1 CURVE SMOOTH",
"596 -1 OFFCURVE",
"577 -1 OFFCURVE",
"536 -1 CURVE SMOOTH",
"491 -1 OFFCURVE",
"459 -1 OFFCURVE",
"428 -1 CURVE SMOOTH",
"390 -1 OFFCURVE",
"354 0 OFFCURVE",
"303 2 CURVE SMOOTH",
"296 5 OFFCURVE",
"298 17 OFFCURVE",
"303 20 CURVE SMOOTH",
"323 21 OFFCURVE",
"344 23 OFFCURVE",
"356 34 CURVE",
"356 69 OFFCURVE",
"358 124 OFFCURVE",
"358 173 CURVE SMOOTH",
"358 203 OFFCURVE",
"357 231 OFFCURVE",
"355 252 CURVE",
"200 252 LINE",
"164 201 OFFCURVE",
"121 100 OFFCURVE",
"82 45 CURVE",
"95 34 OFFCURVE",
"109 32 OFFCURVE",
"128 30 CURVE",
"132 26 OFFCURVE",
"135 21 OFFCURVE",
"135 16 CURVE SMOOTH",
"135 12 OFFCURVE",
"133 8 OFFCURVE",
"129 4 CURVE SMOOTH",
"99 -4 OFFCURVE",
"70 -4 OFFCURVE",
"38 -4 CURVE SMOOTH",
"30 -4 OFFCURVE",
"24 -4 OFFCURVE",
"19 -4 CURVE SMOOTH",
"4 -4 OFFCURVE",
"-3 -4 OFFCURVE",
"-30 0 CURVE SMOOTH",
"-33 2 OFFCURVE",
"-35 8 OFFCURVE",
"-35 14 CURVE SMOOTH",
"-35 19 OFFCURVE",
"-34 24 OFFCURVE",
"-30 27 CURVE SMOOTH",
"-12 31 OFFCURVE",
"7 29 OFFCURVE",
"21 39 CURVE",
"66 108 OFFCURVE",
"77 135 OFFCURVE",
"105 181 CURVE SMOOTH",
"224 385 LINE SMOOTH",
"251 431 OFFCURVE",
"296 508 OFFCURVE",
"299 534 CURVE",
"289 548 OFFCURVE",
"264 551 OFFCURVE",
"251 551 CURVE SMOOTH",
"247 554 OFFCURVE",
"244 561 OFFCURVE",
"244 567 CURVE SMOOTH",
"244 574 OFFCURVE",
"247 580 OFFCURVE",
"254 582 CURVE SMOOTH",
"355 581 OFFCURVE",
"318 580 OFFCURVE",
"419 580 CURVE SMOOTH",
"474 580 OFFCURVE",
"577 582 OFFCURVE",
"643 582 CURVE SMOOTH",
"651 582 OFFCURVE",
"659 582 OFFCURVE",
"666 582 CURVE",
"672 571 OFFCURVE",
"674 536 OFFCURVE",
"674 511 CURVE SMOOTH",
"674 503 OFFCURVE",
"673 496 OFFCURVE",
"673 491 CURVE SMOOTH",
"670 484 OFFCURVE",
"660 482 OFFCURVE",
"653 488 CURVE SMOOTH",
"643 507 OFFCURVE",
"614 536 OFFCURVE",
"597 547 CURVE",
"577 552 OFFCURVE",
"560 552 OFFCURVE",
"544 552 CURVE SMOOTH",
"533 552 OFFCURVE",
"523 552 OFFCURVE",
"511 552 CURVE SMOOTH",
"469 552 OFFCURVE",
"450 545 OFFCURVE",
"436 535 CURVE SMOOTH",
"436 533 OFFCURVE",
"437 528 OFFCURVE",
"437 522 CURVE SMOOTH",
"437 499 OFFCURVE",
"434 454 OFFCURVE",
"434 417 CURVE SMOOTH",
"434 366 OFFCURVE",
"437 368 OFFCURVE",
"438 298 CURVE",
"502 298 OFFCURVE",
"534 297 OFFCURVE",
"603 303 CURVE SMOOTH",
"634 306 OFFCURVE",
"648 331 OFFCURVE",
"651 346 CURVE SMOOTH",
"654 350 OFFCURVE",
"666 350 OFFCURVE",
"669 345 CURVE SMOOTH",
"669 345 OFFCURVE",
"672 276 OFFCURVE",
"672 237 CURVE SMOOTH",
"672 223 OFFCURVE",
"672 213 OFFCURVE",
"671 211 CURVE SMOOTH",
"670 207 OFFCURVE",
"652 204 OFFCURVE",
"649 210 CURVE SMOOTH",
"645 225 OFFCURVE",
"634 250 OFFCURVE",
"607 250 CURVE SMOOTH",
"595 250 OFFCURVE",
"514 251 OFFCURVE",
"439 251 CURVE",
"440 222 OFFCURVE",
"439 65 OFFCURVE",
"440 38 CURVE",
"455 32 OFFCURVE",
"474 30 OFFCURVE",
"516 30 CURVE SMOOTH",
"527 30 OFFCURVE",
"535 30 OFFCURVE",
"544 30 CURVE SMOOTH",
"559 30 OFFCURVE",
"574 30 OFFCURVE",
"596 34 CURVE",
"615 42 OFFCURVE",
"648 75 OFFCURVE",
"658 94 CURVE SMOOTH",
"665 100 OFFCURVE",
"675 97 OFFCURVE",
"678 90 CURVE SMOOTH"
);
},
{
closed = 1;
nodes = (
"354 311 OFFCURVE",
"355 327 OFFCURVE",
"355 344 CURVE SMOOTH",
"355 397 OFFCURVE",
"357 461 OFFCURVE",
"357 501 CURVE SMOOTH",
"357 510 OFFCURVE",
"356 518 OFFCURVE",
"356 524 CURVE",
"344 524 LINE",
"313 474 OFFCURVE",
"254 336 OFFCURVE",
"225 298 CURVE",
"355 298 LINE"
);
}
);
width = 722;
}
);
unicode = 00C6;
},
{
glyphname = AEacute;
layers = (
{
layerId = master01;
paths = (
{
closed = 1;
nodes = (
"717.4 697.85 OFFCURVE",
"691.9 672.35 OFFCURVE",
"676.6 668.1 CURVE",
"655.35 672.35 OFFCURVE",
"634.95 714.85 OFFCURVE",
"617.95 714.85 CURVE SMOOTH",
"599.25 714.85 OFFCURVE",
"580.55 708.05 OFFCURVE",
"555.05 700.4 CURVE SMOOTH",
"477.7 678.3 OFFCURVE",
"439.45 663.85 OFFCURVE",
"368.05 631.55 CURVE",
"365.5 635.8 LINE",
"411.4 665.55 OFFCURVE",
"536.35 702.95 OFFCURVE",
"610.3 725.05 CURVE SMOOTH",
"634.1 731.85 OFFCURVE",
"649.4 737.8 OFFCURVE",
"667.25 737.8 CURVE SMOOTH",
"688.5 737.8 OFFCURVE",
"707.2 729.3 OFFCURVE",
"718.25 708.9 CURVE"
);
},
{
closed = 1;
nodes = (
"678.504 84.995 OFFCURVE",
"678.658 77.93 OFFCURVE",
"678.658 69.936 CURVE SMOOTH",
"678.658 44.66 OFFCURVE",
"677.105 10.131 OFFCURVE",
"670.648 -0.848 CURVE",
"649.965 -1.131 OFFCURVE",
"635.043 -1.226 OFFCURVE",
"622.041 -1.226 CURVE SMOOTH",
"596.037 -1.226 OFFCURVE",
"577.716 -0.848 OFFCURVE",
"536.35 -0.848 CURVE SMOOTH",
"491.394 -0.848 OFFCURVE",
"458.527 -1.184 OFFCURVE",
"427.75 -1.184 CURVE SMOOTH",
"389.278 -1.184 OFFCURVE",
"354.072 -0.659 OFFCURVE",
"302.6 1.701 CURVE SMOOTH",
"295.8 4.252 OFFCURVE",
"297.5 17.002 OFFCURVE",
"302.6 19.552 CURVE SMOOTH",
"322.15 20.401 OFFCURVE",
"344.25 22.951 OFFCURVE",
"356.15 34.002 CURVE",
"356.15 69.064 OFFCURVE",
"357.811 123.053 OFFCURVE",
"357.811 172.517 CURVE SMOOTH",
"357.811 202.195 OFFCURVE",
"357.213 230.245 OFFCURVE",
"355.3 251.602 CURVE",
"199.75 251.602 LINE",
"164.05 200.602 OFFCURVE",
"121.55 100.302 OFFCURVE",
"82.45 45.052 CURVE",
"95.2 34.002 OFFCURVE",
"109.65 31.451 OFFCURVE",
"128.35 29.752 CURVE",
"132.182 25.441 OFFCURVE",
"134.934 21.131 OFFCURVE",
"134.934 16.364 CURVE SMOOTH",
"134.934 12.671 OFFCURVE",
"133.281 8.704 OFFCURVE",
"129.2 4.252 CURVE SMOOTH",
"99.45 -4.248 OFFCURVE",
"70.55 -4.248 OFFCURVE",
"38.25 -4.248 CURVE SMOOTH",
"30.175 -4.248 OFFCURVE",
"24.172 -4.302 OFFCURVE",
"19.139 -4.302 CURVE SMOOTH",
"4.037 -4.302 OFFCURVE",
"-2.338 -3.823 OFFCURVE",
"-29.75 0.002 CURVE SMOOTH",
"-32.981 2.311 OFFCURVE",
"-35.21 7.878 OFFCURVE",
"-35.21 13.71 CURVE SMOOTH",
"-35.21 18.614 OFFCURVE",
"-33.633 23.706 OFFCURVE",
"-29.75 27.201 CURVE SMOOTH",
"-11.9 31.451 OFFCURVE",
"6.8 28.9 OFFCURVE",
"21.25 39.101 CURVE",
"66.3 107.951 OFFCURVE",
"76.5 135.15 OFFCURVE",
"104.55 181.051 CURVE SMOOTH",
"223.55 385.051 LINE SMOOTH",
"250.75 430.951 OFFCURVE",
"295.8 507.451 OFFCURVE",
"299.2 533.801 CURVE",
"289 547.4 OFFCURVE",
"263.5 550.801 OFFCURVE",
"250.75 550.801 CURVE SMOOTH",
"246.758 553.995 OFFCURVE",
"244.452 560.377 OFFCURVE",
"244.452 566.602 CURVE SMOOTH",
"244.452 573.625 OFFCURVE",
"247.389 580.448 OFFCURVE",
"254.15 582.251 CURVE SMOOTH",
"355.3 581.4 OFFCURVE",
"317.9 579.701 OFFCURVE",
"419.05 579.701 CURVE SMOOTH",
"474.205 579.701 OFFCURVE",
"577.045 582.388 OFFCURVE",
"642.797 582.388 CURVE SMOOTH",
"651.016 582.388 OFFCURVE",
"658.655 582.346 OFFCURVE",
"665.55 582.251 CURVE",
"672.007 571.272 OFFCURVE",
"673.56 536.743 OFFCURVE",
"673.56 511.467 CURVE SMOOTH",
"673.56 503.474 OFFCURVE",
"673.404 496.405 OFFCURVE",
"673.2 491.3 CURVE SMOOTH",
"670.65 484.5 OFFCURVE",
"659.6 481.95 OFFCURVE",
"652.8 487.9 CURVE SMOOTH",
"642.6 506.6 OFFCURVE",
"613.7 535.5 OFFCURVE",
"596.7 546.55 CURVE",
"576.81 551.141 OFFCURVE",
"560.285 552.059 OFFCURVE",
"544.006 552.059 CURVE SMOOTH",
"533.153 552.059 OFFCURVE",
"522.41 551.65 OFFCURVE",
"510.85 551.65 CURVE SMOOTH",
"468.35 551.65 OFFCURVE",
"450.5 544.851 OFFCURVE",
"436.05 534.65 CURVE SMOOTH",
"436.391 532.271 OFFCURVE",
"436.526 527.987 OFFCURVE",
"436.526 522.282 CURVE SMOOTH",
"436.526 499.461 OFFCURVE",
"434.351 453.901 OFFCURVE",
"434.351 416.502 CURVE SMOOTH",
"434.351 365.502 OFFCURVE",
"436.9 367.201 OFFCURVE",
"437.751 297.502 CURVE",
"501.501 297.502 OFFCURVE",
"533.801 297.502 OFFCURVE",
"602.65 303.451 CURVE SMOOTH",
"633.251 306.002 OFFCURVE",
"648.551 330.651 OFFCURVE",
"651.101 345.951 CURVE SMOOTH",
"654.501 350.201 OFFCURVE",
"666.4 350.201 OFFCURVE",
"668.951 345.102 CURVE SMOOTH",
"668.951 345.102 OFFCURVE",
"672.182 276.338 OFFCURVE",
"672.182 237.087 CURVE SMOOTH",
"672.182 223.068 OFFCURVE",
"671.769 212.813 OFFCURVE",
"670.65 210.801 CURVE SMOOTH",
"669.8 206.551 OFFCURVE",
"651.95 204.001 OFFCURVE",
"648.55 209.951 CURVE SMOOTH",
"644.3 225.251 OFFCURVE",
"634.1 249.9 OFFCURVE",
"606.9 249.9 CURVE SMOOTH",
"595 249.9 OFFCURVE",
"513.4 250.751 OFFCURVE",
"438.6 250.751 CURVE",
"439.45 221.851 OFFCURVE",
"439.45 65.451 OFFCURVE",
"440.3 38.251 CURVE",
"455.6 32.301 OFFCURVE",
"473.45 29.751 OFFCURVE",
"515.95 29.751 CURVE SMOOTH",
"526.46 29.751 OFFCURVE",
"535.395 29.525 OFFCURVE",
"544.146 29.525 CURVE SMOOTH",
"559.461 29.525 OFFCURVE",
"574.213 30.214 OFFCURVE",
"595.85 34 CURVE",
"614.55 41.65 OFFCURVE",
"647.7 74.8 OFFCURVE",
"657.9 93.5 CURVE SMOOTH",
"664.7 99.45 OFFCURVE",
"675.75 96.9 OFFCURVE",
"678.3 90.1 CURVE SMOOTH"
);
},
{
closed = 1;
nodes = (
"354.77 311.563 OFFCURVE",
"354.569 327.218 OFFCURVE",
"354.569 344.102 CURVE SMOOTH",
"354.569 396.604 OFFCURVE",
"356.503 460.978 OFFCURVE",
"356.503 500.606 CURVE SMOOTH",
"356.503 509.733 OFFCURVE",
"356.4 517.548 OFFCURVE",
"356.148 523.603 CURVE",
"344.248 523.603 LINE",
"313.648 473.452 OFFCURVE",
"254.148 336.603 OFFCURVE",
"225.248 298.353 CURVE",
"355.299 298.353 LINE"
);
}
);
width = 722;
}
);
unicode = 01FC;
},
{
glyphname = uni01E2;
layers = (
{
layerId = master01;
paths = (
{
closed = 1;
nodes = (
"631.9 692.75 OFFCURVE",
"604.7 656.2 OFFCURVE",
"582.6 656.2 CURVE SMOOTH",
"570.7 656.2 OFFCURVE",
"568.15 674.9 OFFCURVE",
"558.8 674.9 CURVE SMOOTH",
"535 674.9 OFFCURVE",
"352.25 658.75 OFFCURVE",
"329.3 658.75 CURVE SMOOTH",
"309.75 658.75 OFFCURVE",
"297.85 659.6 OFFCURVE",
"297.85 675.75 CURVE SMOOTH",
"297.85 691.9 OFFCURVE",
"324.2 721.65 OFFCURVE",
"342.9 721.65 CURVE SMOOTH",
"356.5 721.65 OFFCURVE",
"353.95 703.8 OFFCURVE",
"374.35 703.8 CURVE SMOOTH",
"407.5 703.8 OFFCURVE",
"567.3 721.65 OFFCURVE",
"594.5 721.65 CURVE SMOOTH",
"611.5 721.65 OFFCURVE",
"631.9 721.65 OFFCURVE",
"631.9 706.35 CURVE SMOOTH"
);
},
{
closed = 1;
nodes = (
"678 85 OFFCURVE",
"679 78 OFFCURVE",
"679 70 CURVE SMOOTH",
"679 45 OFFCURVE",
"677 10 OFFCURVE",
"671 -1 CURVE",
"650 -1 OFFCURVE",
"635 -1 OFFCURVE",
"622 -1 CURVE SMOOTH",
"596 -1 OFFCURVE",
"577 -1 OFFCURVE",
"536 -1 CURVE SMOOTH",
"491 -1 OFFCURVE",
"459 -1 OFFCURVE",
"428 -1 CURVE SMOOTH",
"390 -1 OFFCURVE",
"354 0 OFFCURVE",
"303 2 CURVE SMOOTH",
"296 5 OFFCURVE",
"298 17 OFFCURVE",
"303 20 CURVE SMOOTH",
"323 21 OFFCURVE",
"344 23 OFFCURVE",
"356 34 CURVE",
"356 69 OFFCURVE",
"358 124 OFFCURVE",
"358 173 CURVE SMOOTH",
"358 203 OFFCURVE",
"357 231 OFFCURVE",
"355 252 CURVE",
"200 252 LINE",
"164 201 OFFCURVE",
"121 100 OFFCURVE",
"82 45 CURVE",
"95 34 OFFCURVE",
"109 32 OFFCURVE",
"128 30 CURVE",
"132 26 OFFCURVE",
"135 21 OFFCURVE",
"135 16 CURVE SMOOTH",
"135 12 OFFCURVE",
"133 8 OFFCURVE",
"129 4 CURVE SMOOTH",
"99 -4 OFFCURVE",
"70 -4 OFFCURVE",
"38 -4 CURVE SMOOTH",
"30 -4 OFFCURVE",
"24 -4 OFFCURVE",
"19 -4 CURVE SMOOTH",
"4 -4 OFFCURVE",
"-3 -4 OFFCURVE",
"-30 0 CURVE SMOOTH",
"-33 2 OFFCURVE",
"-35 8 OFFCURVE",
"-35 14 CURVE SMOOTH",
"-35 19 OFFCURVE",
"-34 24 OFFCURVE",
"-30 27 CURVE SMOOTH",
"-12 31 OFFCURVE",
"7 29 OFFCURVE",
"21 39 CURVE",
"66 108 OFFCURVE",
"77 135 OFFCURVE",
"105 181 CURVE SMOOTH",
"224 385 LINE SMOOTH",
"251 431 OFFCURVE",
"296 508 OFFCURVE",
"299 534 CURVE",
"289 548 OFFCURVE",
"264 551 OFFCURVE",
"251 551 CURVE SMOOTH",
"247 554 OFFCURVE",
"244 561 OFFCURVE",
"244 567 CURVE SMOOTH",
"244 574 OFFCURVE",
"247 580 OFFCURVE",
"254 582 CURVE SMOOTH",
"355 581 OFFCURVE",
"318 580 OFFCURVE",
"419 580 CURVE SMOOTH",
"474 580 OFFCURVE",
"577 582 OFFCURVE",
"643 582 CURVE SMOOTH",
"651 582 OFFCURVE",
"659 582 OFFCURVE",
"666 582 CURVE",
"672 571 OFFCURVE",
"674 536 OFFCURVE",
"674 511 CURVE SMOOTH",
"674 503 OFFCURVE",
"673 496 OFFCURVE",
"673 491 CURVE SMOOTH",
"670 484 OFFCURVE",
"660 482 OFFCURVE",
"653 488 CURVE SMOOTH",
"643 507 OFFCURVE",
"614 536 OFFCURVE",
"597 547 CURVE",
"577 552 OFFCURVE",
"560 552 OFFCURVE",
"544 552 CURVE SMOOTH",
"533 552 OFFCURVE",
"523 552 OFFCURVE",
"511 552 CURVE SMOOTH",
"469 552 OFFCURVE",
"450 545 OFFCURVE",
"436 535 CURVE SMOOTH",
"436 533 OFFCURVE",
"437 528 OFFCURVE",
"437 522 CURVE SMOOTH",
"437 499 OFFCURVE",
"434 454 OFFCURVE",
"434 417 CURVE SMOOTH",
"434 366 OFFCURVE",
"437 368 OFFCURVE",
"438 298 CURVE",
"502 298 OFFCURVE",
"534 297 OFFCURVE",
"603 303 CURVE SMOOTH",
"634 306 OFFCURVE",
"648 331 OFFCURVE",
"651 346 CURVE SMOOTH",
"654 350 OFFCURVE",
"666 350 OFFCURVE",
"669 345 CURVE SMOOTH",
"669 345 OFFCURVE",
"672 276 OFFCURVE",
"672 237 CURVE SMOOTH",
"672 223 OFFCURVE",
"672 213 OFFCURVE",
"671 211 CURVE SMOOTH",
"670 207 OFFCURVE",
"652 204 OFFCURVE",
"649 210 CURVE SMOOTH",
"645 225 OFFCURVE",
"634 250 OFFCURVE",
"607 250 CURVE SMOOTH",
"595 250 OFFCURVE",
"514 251 OFFCURVE",
"439 251 CURVE",
"440 222 OFFCURVE",
"439 65 OFFCURVE",
"440 38 CURVE",
"455 32 OFFCURVE",
"474 30 OFFCURVE",
"516 30 CURVE SMOOTH",
"527 30 OFFCURVE",
"535 30 OFFCURVE",
"544 30 CURVE SMOOTH",
"559 30 OFFCURVE",
"574 30 OFFCURVE",
"596 34 CURVE",
"615 42 OFFCURVE",
"648 75 OFFCURVE",
"658 94 CURVE SMOOTH",
"665 100 OFFCURVE",
"675 97 OFFCURVE",
"678 90 CURVE SMOOTH"
);
},
{
closed = 1;
nodes = (
"354 311 OFFCURVE",
"355 327 OFFCURVE",
"355 344 CURVE SMOOTH",
"355 397 OFFCURVE",
"357 461 OFFCURVE",
"357 501 CURVE SMOOTH",
"357 510 OFFCURVE",
"356 518 OFFCURVE",
"356 524 CURVE",
"344 524 LINE",
"313 474 OFFCURVE",
"254 336 OFFCURVE",
"225 298 CURVE",
"355 298 LINE"
);
}
);
width = 722;
}
);
unicode = 01E2;
},
{
glyphname = B;
layers = (
{
anchors = (
{
name = Above;
position = "{240, 595}";
},
{
name = Below;
position = "{235, -42}";
}
);
layerId = master01;
paths = (
{
closed = 1;
nodes = (
"522 62 OFFCURVE",
"457 -8 OFFCURVE",
"272 -8 CURVE SMOOTH",
"249 -8 OFFCURVE",
"218 -10 OFFCURVE",
"180 -10 CURVE SMOOTH",
"135 -10 OFFCURVE",
"79 -7 OFFCURVE",
"14 5 CURVE SMOOTH",
"11 7 OFFCURVE",
"9 13 OFFCURVE",
"9 19 CURVE SMOOTH",
"9 24 OFFCURVE",
"10 29 OFFCURVE",
"14 32 CURVE SMOOTH",
"36 37 OFFCURVE",
"60 41 OFFCURVE",
"73 54 CURVE",
"73 235 OFFCURVE",
"71 458 OFFCURVE",
"68 532 CURVE",
"54 546 OFFCURVE",
"40 551 OFFCURVE",
"14 556 CURVE SMOOTH",
"11 557 OFFCURVE",
"10 562 OFFCURVE",
"10 566 CURVE SMOOTH",
"10 570 OFFCURVE",
"11 573 OFFCURVE",
"14 574 CURVE SMOOTH",
"63 581 OFFCURVE",
"74 582 OFFCURVE",
"100 582 CURVE SMOOTH",
"118 582 OFFCURVE",
"144 582 OFFCURVE",
"194 582 CURVE SMOOTH",
"216 582 OFFCURVE",
"242 582 OFFCURVE",
"274 582 CURVE SMOOTH",
"276 582 OFFCURVE",
"276 582 OFFCURVE",
"278 582 CURVE SMOOTH",
"396 582 OFFCURVE",
"462 520 OFFCURVE",
"462 456 CURVE SMOOTH",
"462 396 OFFCURVE",
"424 354 OFFCURVE",
"354 342 CURVE SMOOTH",
"351 341 OFFCURVE",
"338 337 OFFCURVE",
"355 332 CURVE SMOOTH",
"465 298 OFFCURVE",
"522 250 OFFCURVE",
"522 176 CURVE SMOOTH"
);
},
{
closed = 1;
nodes = (
"433 251 OFFCURVE",
"393 297 OFFCURVE",
"297 329 CURVE SMOOTH",
"290 332 OFFCURVE",
"289 337 OFFCURVE",
"297 339 CURVE SMOOTH",
"351 354 OFFCURVE",
"377 394 OFFCURVE",
"377 434 CURVE SMOOTH",
"377 494 OFFCURVE",
"323 552 OFFCURVE",
"256 552 CURVE SMOOTH",
"255 552 OFFCURVE",
"254 552 OFFCURVE",
"253 552 CURVE SMOOTH",
"175 549 OFFCURVE",
"164 542 OFFCURVE",
"153 535 CURVE SMOOTH",
"153 533 OFFCURVE",
"153 529 OFFCURVE",
"153 525 CURVE SMOOTH",
"153 506 OFFCURVE",
"151 466 OFFCURVE",
"151 430 CURVE SMOOTH",
"151 426 OFFCURVE",
"151 421 OFFCURVE",
"151 417 CURVE SMOOTH",
"152 336 OFFCURVE",
"156 172 OFFCURVE",
"156 59 CURVE",
"188 33 OFFCURVE",
"220 32 OFFCURVE",
"277 32 CURVE SMOOTH",
"384 32 OFFCURVE",
"433 93 OFFCURVE",
"433 180 CURVE SMOOTH"
);
}
);
width = 547;
}
);
unicode = 0042;
},
{
glyphname = C;
layers = (
{
anchors = (
{
name = Above;
position = "{316, 595}";
},
{
name = Below;
position = "{318, -42}";
}
);
layerId = master01;
paths = (
{
closed = 1;
nodes = (
"160 -15 OFFCURVE",
"20 119 OFFCURVE",
"20 293 CURVE SMOOTH",
"20 331 OFFCURVE",
"25 369 OFFCURVE",
"35 400 CURVE",
"100 495 OFFCURVE",
"205 584 OFFCURVE",
"332 584 CURVE SMOOTH",
"428 584 OFFCURVE",
"478 555 OFFCURVE",
"538 552 CURVE",
"538 544 OFFCURVE",
"519 469 OFFCURVE",
"515 431 CURVE SMOOTH",
"513 429 OFFCURVE",
"509 427 OFFCURVE",
"505 427 CURVE SMOOTH",
"500 427 OFFCURVE",
"495 429 OFFCURVE",
"495 431 CURVE SMOOTH",
"483 506 OFFCURVE",
"381 549 OFFCURVE",
"304 549 CURVE SMOOTH",
"210 549 OFFCURVE",
"142 479 OFFCURVE",
"116 382 CURVE SMOOTH",
"112 367 OFFCURVE",
"111 352 OFFCURVE",
"111 336 CURVE SMOOTH",
"111 99 OFFCURVE",
"259 25 OFFCURVE",
"341 25 CURVE SMOOTH",
"429 25 OFFCURVE",
"515 64 OFFCURVE",
"535 78 CURVE",
"542 78 OFFCURVE",
"549 71 OFFCURVE",
"549 65 CURVE",
"522 45 OFFCURVE",
"432 -15 OFFCURVE",
"327 -15 CURVE SMOOTH"
);
}
);
width = 566;
}
);
unicode = 0043;
},
{
glyphname = Ccedilla;
layers = (
{
layerId = master01;
paths = (
{
closed = 1;
nodes = (
"219 -114 OFFCURVE",
"222 -112 OFFCURVE",
"228 -109 CURVE SMOOTH",
"251 -98 LINE SMOOTH",
"254 -97 OFFCURVE",
"256 -96 OFFCURVE",
"258 -96 CURVE SMOOTH",
"262 -96 OFFCURVE",
"266 -98 OFFCURVE",
"270 -101 CURVE SMOOTH",
"275 -105 OFFCURVE",
"286 -115 OFFCURVE",
"295 -115 CURVE SMOOTH",
"298 -115 OFFCURVE",
"301 -114 OFFCURVE",
"303 -110 CURVE SMOOTH",
"305 -106 OFFCURVE",
"306 -102 OFFCURVE",
"306 -98 CURVE SMOOTH",
"306 -91 OFFCURVE",
"304 -85 OFFCURVE",
"299 -79 CURVE SMOOTH",
"294 -73 OFFCURVE",
"285 -65 OFFCURVE",
"271 -54 CURVE SMOOTH",
"268 -52 OFFCURVE",
"267 -50 OFFCURVE",
"267 -47 CURVE SMOOTH",
"267 -42 OFFCURVE",
"272 -36 OFFCURVE",
"282 -29 CURVE SMOOTH",
"305 -15 LINE",
"147 -4 OFFCURVE",
"20 126 OFFCURVE",
"20 293 CURVE SMOOTH",
"20 331 OFFCURVE",
"25 369 OFFCURVE",
"35 400 CURVE",
"100 495 OFFCURVE",
"205 584 OFFCURVE",
"332 584 CURVE SMOOTH",
"428 584 OFFCURVE",
"478 555 OFFCURVE",
"538 552 CURVE",
"538 544 OFFCURVE",
"519 469 OFFCURVE",
"515 431 CURVE SMOOTH",
"513 429 OFFCURVE",
"509 427 OFFCURVE",
"505 427 CURVE SMOOTH",
"500 427 OFFCURVE",
"495 429 OFFCURVE",
"495 431 CURVE SMOOTH",
"483 506 OFFCURVE",
"381 549 OFFCURVE",
"304 549 CURVE SMOOTH",
"210 549 OFFCURVE",
"142 479 OFFCURVE",
"116 382 CURVE SMOOTH",
"112 367 OFFCURVE",
"111 352 OFFCURVE",
"111 336 CURVE SMOOTH",
"111 99 OFFCURVE",
"259 25 OFFCURVE",
"341 25 CURVE SMOOTH",
"429 25 OFFCURVE",
"515 64 OFFCURVE",
"535 78 CURVE",
"542 78 OFFCURVE",
"549 71 OFFCURVE",
"549 65 CURVE",
"522 45 OFFCURVE",
"436 -12 OFFCURVE",
"335 -15 CURVE",
"326 -21 LINE SMOOTH",
"323 -23 OFFCURVE",
"321 -26 OFFCURVE",
"321 -28 CURVE SMOOTH",
"321 -30 OFFCURVE",
"322 -32 OFFCURVE",
"325 -35 CURVE SMOOTH",
"335 -43 OFFCURVE",
"354 -68 OFFCURVE",
"354 -86 CURVE SMOOTH",
"354 -113 OFFCURVE",
"313 -133 OFFCURVE",
"292 -140 CURVE SMOOTH",
"279 -145 OFFCURVE",
"269 -147 OFFCURVE",
"265 -147 CURVE SMOOTH",
"248 -147 OFFCURVE",
"231 -135 OFFCURVE",
"221 -123 CURVE SMOOTH",
"219 -121 OFFCURVE",
"219 -119 OFFCURVE",
"219 -117 CURVE SMOOTH"
);
}
);
width = 566;
}
);
unicode = 00C7;
},
{
glyphname = D;
layers = (
{
anchors = (
{
name = Above;
position = "{255, 595}";
},
{
name = Below;
position = "{245, -42}";
}
);
layerId = master01;
paths = (
{
closed = 1;
nodes = (
"600 164 OFFCURVE",
"507 57 OFFCURVE",
"395 12 CURVE SMOOTH",
"358 -3 OFFCURVE",
"312 -8 OFFCURVE",
"272 -8 CURVE SMOOTH",
"249 -8 OFFCURVE",
"218 -10 OFFCURVE",
"180 -10 CURVE SMOOTH",
"135 -10 OFFCURVE",
"79 -7 OFFCURVE",
"14 5 CURVE SMOOTH",
"11 7 OFFCURVE",
"9 13 OFFCURVE",
"9 19 CURVE SMOOTH",
"9 24 OFFCURVE",
"10 29 OFFCURVE",
"14 32 CURVE SMOOTH",
"35 37 OFFCURVE",
"62 37 OFFCURVE",
"73 49 CURVE",
"73 230 OFFCURVE",
"71 463 OFFCURVE",
"68 537 CURVE",
"53 551 OFFCURVE",
"36 553 OFFCURVE",
"14 556 CURVE SMOOTH",
"11 557 OFFCURVE",
"10 562 OFFCURVE",
"10 566 CURVE SMOOTH",
"10 570 OFFCURVE",
"11 573 OFFCURVE",
"14 574 CURVE SMOOTH",
"60 581 OFFCURVE",
"73 582 OFFCURVE",
"95 582 CURVE SMOOTH",
"111 582 OFFCURVE",
"132 581 OFFCURVE",
"173 581 CURVE SMOOTH",
"198 581 OFFCURVE",
"230 581 OFFCURVE",
"274 582 CURVE SMOOTH",
"276 582 OFFCURVE",
"279 582 OFFCURVE",
"281 582 CURVE SMOOTH",
"487 582 OFFCURVE",
"600 442 OFFCURVE",
"600 286 CURVE SMOOTH"
);
},
{
closed = 1;
nodes = (
"483 427 OFFCURVE",
"375 552 OFFCURVE",
"259 552 CURVE SMOOTH",
"257 552 OFFCURVE",
"255 552 OFFCURVE",
"253 552 CURVE SMOOTH",
"179 549 OFFCURVE",
"168 545 OFFCURVE",
"153 537 CURVE SMOOTH",
"153 535 OFFCURVE",
"153 532 OFFCURVE",
"153 527 CURVE SMOOTH",
"153 507 OFFCURVE",
"151 466 OFFCURVE",
"151 430 CURVE SMOOTH",
"151 426 OFFCURVE",
"151 420 OFFCURVE",
"151 416 CURVE SMOOTH",
"152 335 OFFCURVE",
"156 164 OFFCURVE",
"156 51 CURVE",
"176 35 OFFCURVE",
"220 32 OFFCURVE",
"277 32 CURVE SMOOTH",
"309 32 OFFCURVE",
"335 39 OFFCURVE",
"360 49 CURVE SMOOTH",
"444 97 OFFCURVE",
"483 195 OFFCURVE",
"483 306 CURVE SMOOTH"
);
}
);
width = 628;
}
);
unicode = 0044;
},
{
glyphname = Eth;
layers = (
{
anchors = (
{
name = Above;
position = "{248, 595}";
},
{
name = Below;
position = "{240, -42}";
}
);
layerId = master01;
paths = (
{
closed = 1;
nodes = (
"600 164 OFFCURVE",
"507 57 OFFCURVE",
"395 12 CURVE SMOOTH",
"358 -3 OFFCURVE",
"312 -8 OFFCURVE",
"272 -8 CURVE SMOOTH",
"249 -8 OFFCURVE",
"218 -10 OFFCURVE",
"180 -10 CURVE SMOOTH",
"135 -10 OFFCURVE",
"79 -7 OFFCURVE",
"14 5 CURVE SMOOTH",
"11 7 OFFCURVE",
"9 13 OFFCURVE",
"9 19 CURVE SMOOTH",
"9 24 OFFCURVE",
"10 29 OFFCURVE",
"14 32 CURVE SMOOTH",
"31 35 OFFCURVE",
"62 37 OFFCURVE",
"73 47 CURVE",
"73 117 OFFCURVE",
"73 201 OFFCURVE",
"72 265 CURVE",
"20 265 LINE SMOOTH",
"6 265 OFFCURVE",
"-11 249 OFFCURVE",
"-13 240 CURVE SMOOTH",
"-16 237 OFFCURVE",
"-23 237 OFFCURVE",
"-25 240 CURVE SMOOTH",
"-27 243 OFFCURVE",
"-27 267 OFFCURVE",
"-27 291 CURVE SMOOTH",
"-27 315 OFFCURVE",
"-27 338 OFFCURVE",
"-25 343 CURVE SMOOTH",
"-24 346 OFFCURVE",
"-14 346 OFFCURVE",
"-13 343 CURVE SMOOTH",
"-10 332 OFFCURVE",
"6 318 OFFCURVE",
"20 318 CURVE SMOOTH",
"71 318 LINE",
"70 398 OFFCURVE",
"70 502 OFFCURVE",
"68 539 CURVE",
"52 555 OFFCURVE",
"37 553 OFFCURVE",
"14 556 CURVE SMOOTH",
"9 559 OFFCURVE",
"7 571 OFFCURVE",
"14 574 CURVE SMOOTH",
"60 581 OFFCURVE",
"73 582 OFFCURVE",
"95 582 CURVE SMOOTH",
"111 582 OFFCURVE",
"132 581 OFFCURVE",
"173 581 CURVE SMOOTH",
"198 581 OFFCURVE",
"230 581 OFFCURVE",
"274 582 CURVE SMOOTH",
"276 582 OFFCURVE",
"279 582 OFFCURVE",
"281 582 CURVE SMOOTH",
"487 582 OFFCURVE",
"600 442 OFFCURVE",
"600 286 CURVE SMOOTH"
);
},
{
closed = 1;
nodes = (
"483 429 OFFCURVE",
"381 552 OFFCURVE",
"253 552 CURVE SMOOTH",
"213 552 OFFCURVE",
"168 546 OFFCURVE",
"153 538 CURVE SMOOTH",
"153 536 OFFCURVE",
"153 531 OFFCURVE",
"153 525 CURVE SMOOTH",
"153 501 OFFCURVE",
"151 453 OFFCURVE",
"151 416 CURVE SMOOTH",
"151 386 OFFCURVE",
"152 355 OFFCURVE",
"153 318 CURVE",
"198 318 LINE SMOOTH",
"216 318 OFFCURVE",
"232 333 OFFCURVE",
"235 343 CURVE SMOOTH",
"237 346 OFFCURVE",
"244 346 OFFCURVE",
"247 343 CURVE SMOOTH",
"248 341 OFFCURVE",
"250 308 OFFCURVE",
"250 279 CURVE SMOOTH",
"250 260 OFFCURVE",
"249 243 OFFCURVE",
"247 240 CURVE SMOOTH",
"246 237 OFFCURVE",
"237 237 OFFCURVE",
"235 240 CURVE SMOOTH",
"231 253 OFFCURVE",
"213 265 OFFCURVE",
"198 265 CURVE SMOOTH",
"155 265 LINE",
"156 213 OFFCURVE",
"156 105 OFFCURVE",
"156 51 CURVE",
"187 35 OFFCURVE",
"222 32 OFFCURVE",
"277 32 CURVE SMOOTH",
"309 32 OFFCURVE",
"335 39 OFFCURVE",
"360 49 CURVE SMOOTH",
"444 97 OFFCURVE",
"483 195 OFFCURVE",
"483 306 CURVE SMOOTH"
);
}
);
width = 628;
}
);
unicode = 00D0;
},
{
glyphname = E;
layers = (
{
anchors = (
{
name = Above;
position = "{245, 595}";
},
{
name = Below;
position = "{211, -42}";
}
);
layerId = master01;
paths = (
{
closed = 1;
nodes = (
"395 87 OFFCURVE",
"395 83 OFFCURVE",
"395 78 CURVE SMOOTH",
"395 52 OFFCURVE",
"394 10 OFFCURVE",
"388 -1 CURVE",
"367 -1 OFFCURVE",
"352 -1 OFFCURVE",
"339 -1 CURVE SMOOTH",
"313 -1 OFFCURVE",
"294 -1 OFFCURVE",
"253 -1 CURVE SMOOTH",
"208 -1 OFFCURVE",
"176 -1 OFFCURVE",
"145 -1 CURVE SMOOTH",
"107 -1 OFFCURVE",
"71 0 OFFCURVE",
"20 2 CURVE",
"17 3 OFFCURVE",
"15 6 OFFCURVE",
"15 9 CURVE SMOOTH",
"15 13 OFFCURVE",
"17 19 OFFCURVE",
"20 20 CURVE",
"46 25 OFFCURVE",
"57 25 OFFCURVE",
"73 38 CURVE",
"73 220 OFFCURVE",
"71 469 OFFCURVE",
"68 543 CURVE",
"48 555 OFFCURVE",
"40 557 OFFCURVE",
"14 562 CURVE SMOOTH",
"11 563 OFFCURVE",
"10 568 OFFCURVE",
"10 572 CURVE SMOOTH",
"10 576 OFFCURVE",
"11 579 OFFCURVE",
"14 580 CURVE SMOOTH",
"65 582 OFFCURVE",
"102 583 OFFCURVE",
"140 583 CURVE SMOOTH",
"171 583 OFFCURVE",
"203 582 OFFCURVE",
"248 582 CURVE SMOOTH",
"289 582 OFFCURVE",
"308 583 OFFCURVE",
"334 583 CURVE SMOOTH",
"347 583 OFFCURVE",
"362 582 OFFCURVE",
"383 582 CURVE",
"389 571 OFFCURVE",
"390 529 OFFCURVE",
"390 503 CURVE SMOOTH",
"390 498 OFFCURVE",
"390 494 OFFCURVE",
"390 491 CURVE",
"388 487 OFFCURVE",
"384 484 OFFCURVE",
"379 484 CURVE SMOOTH",
"376 484 OFFCURVE",
"373 485 OFFCURVE",
"370 488 CURVE",
"362 503 OFFCURVE",
"331 535 OFFCURVE",
"315 546 CURVE",
"296 551 OFFCURVE",
"278 552 OFFCURVE",
"260 552 CURVE SMOOTH",
"249 552 OFFCURVE",
"239 552 OFFCURVE",
"228 552 CURVE SMOOTH",
"172 552 OFFCURVE",
"168 547 OFFCURVE",
"153 542 CURVE SMOOTH",
"153 540 OFFCURVE",
"153 538 OFFCURVE",
"153 534 CURVE SMOOTH",
"153 516 OFFCURVE",
"151 476 OFFCURVE",
"151 439 CURVE SMOOTH",
"151 431 OFFCURVE",
"151 424 OFFCURVE",
"151 417 CURVE SMOOTH",
"155 298 LINE",
"178 298 OFFCURVE",
"197 297 OFFCURVE",
"215 297 CURVE SMOOTH",
"247 297 OFFCURVE",
"276 298 OFFCURVE",
"320 302 CURVE SMOOTH",
"347 305 OFFCURVE",
"366 338 OFFCURVE",
"368 346 CURVE",
"370 348 OFFCURVE",
"374 349 OFFCURVE",
"377 349 CURVE SMOOTH",
"381 349 OFFCURVE",
"385 348 OFFCURVE",
"386 345 CURVE",
"386 345 OFFCURVE",
"389 276 OFFCURVE",
"389 237 CURVE SMOOTH",
"389 223 OFFCURVE",
"389 213 OFFCURVE",
"388 211 CURVE",
"388 209 OFFCURVE",
"382 206 OFFCURVE",
"377 206 CURVE SMOOTH",
"373 206 OFFCURVE",
"369 208 OFFCURVE",
"368 210 CURVE",
"366 219 OFFCURVE",
"349 250 OFFCURVE",
"324 250 CURVE SMOOTH",
"312 250 OFFCURVE",
"231 251 OFFCURVE",
"156 251 CURVE",
"157 39 LINE",
"171 34 OFFCURVE",
"180 30 OFFCURVE",
"233 30 CURVE SMOOTH",
"244 30 OFFCURVE",
"254 29 OFFCURVE",
"265 29 CURVE SMOOTH",
"283 29 OFFCURVE",
"301 31 OFFCURVE",
"320 36 CURVE",
"338 47 OFFCURVE",
"369 83 OFFCURVE",
"375 94 CURVE",
"378 96 OFFCURVE",
"381 97 OFFCURVE",
"384 97 CURVE SMOOTH",
"389 97 OFFCURVE",
"393 94 OFFCURVE",
"395 90 CURVE"
);
}
);
width = 441;
}
);
unicode = 0045;
},
{
glyphname = Eacute;
layers = (
{
layerId = master01;
paths = (
{
closed = 1;
nodes = (
"496 698 OFFCURVE",
"471 672 OFFCURVE",
"456 668 CURVE",
"435 672 OFFCURVE",
"414 715 OFFCURVE",
"397 715 CURVE SMOOTH",
"378 715 OFFCURVE",
"360 708 OFFCURVE",
"334 700 CURVE SMOOTH",
"257 678 OFFCURVE",
"218 664 OFFCURVE",
"147 632 CURVE",
"144 636 LINE",
"190 666 OFFCURVE",
"315 703 OFFCURVE",
"389 725 CURVE SMOOTH",
"413 732 OFFCURVE",
"428 738 OFFCURVE",
"446 738 CURVE SMOOTH",
"467 738 OFFCURVE",
"486 729 OFFCURVE",
"497 709 CURVE"
);
},
{
closed = 1;
nodes = (
"395 87 OFFCURVE",
"395 83 OFFCURVE",
"395 78 CURVE SMOOTH",
"395 52 OFFCURVE",
"394 10 OFFCURVE",
"388 -1 CURVE",
"367 -1 OFFCURVE",
"352 -1 OFFCURVE",
"339 -1 CURVE SMOOTH",
"313 -1 OFFCURVE",
"294 -1 OFFCURVE",
"253 -1 CURVE SMOOTH",
"208 -1 OFFCURVE",
"176 -1 OFFCURVE",
"145 -1 CURVE SMOOTH",
"107 -1 OFFCURVE",
"71 0 OFFCURVE",
"20 2 CURVE SMOOTH",
"13 5 OFFCURVE",
"15 17 OFFCURVE",
"20 20 CURVE SMOOTH",
"46 25 OFFCURVE",
"57 25 OFFCURVE",
"73 38 CURVE",
"73 220 OFFCURVE",
"71 469 OFFCURVE",
"68 543 CURVE",
"48 555 OFFCURVE",
"40 557 OFFCURVE",
"14 562 CURVE SMOOTH",
"11 563 OFFCURVE",
"10 568 OFFCURVE",
"10 572 CURVE SMOOTH",
"10 576 OFFCURVE",
"11 579 OFFCURVE",
"14 580 CURVE SMOOTH",
"65 582 OFFCURVE",
"102 583 OFFCURVE",
"140 583 CURVE SMOOTH",
"171 583 OFFCURVE",
"203 582 OFFCURVE",
"248 582 CURVE SMOOTH",
"289 582 OFFCURVE",
"308 583 OFFCURVE",
"334 583 CURVE SMOOTH",
"347 583 OFFCURVE",
"362 582 OFFCURVE",
"383 582 CURVE",
"389 571 OFFCURVE",
"390 529 OFFCURVE",
"390 503 CURVE SMOOTH",
"390 498 OFFCURVE",
"390 494 OFFCURVE",
"390 491 CURVE SMOOTH",
"387 484 OFFCURVE",
"378 480 OFFCURVE",
"370 488 CURVE",
"362 503 OFFCURVE",
"331 535 OFFCURVE",
"315 546 CURVE",
"296 551 OFFCURVE",
"278 552 OFFCURVE",
"260 552 CURVE SMOOTH",
"249 552 OFFCURVE",
"239 552 OFFCURVE",
"228 552 CURVE SMOOTH",
"172 552 OFFCURVE",
"168 547 OFFCURVE",
"153 542 CURVE SMOOTH",
"153 540 OFFCURVE",
"153 538 OFFCURVE",
"153 534 CURVE SMOOTH",
"153 516 OFFCURVE",
"151 476 OFFCURVE",
"151 439 CURVE SMOOTH",
"151 431 OFFCURVE",
"151 424 OFFCURVE",
"151 417 CURVE SMOOTH",
"155 298 LINE",
"178 298 OFFCURVE",
"197 297 OFFCURVE",
"215 297 CURVE SMOOTH",
"247 297 OFFCURVE",
"276 298 OFFCURVE",
"320 302 CURVE SMOOTH",
"347 305 OFFCURVE",
"366 338 OFFCURVE",
"368 346 CURVE SMOOTH",
"371 350 OFFCURVE",
"383 350 OFFCURVE",
"386 345 CURVE SMOOTH",
"386 345 OFFCURVE",
"389 276 OFFCURVE",
"389 237 CURVE SMOOTH",
"389 223 OFFCURVE",
"389 213 OFFCURVE",
"388 211 CURVE SMOOTH",
"387 207 OFFCURVE",
"371 204 OFFCURVE",
"368 210 CURVE SMOOTH",
"366 219 OFFCURVE",
"349 250 OFFCURVE",
"324 250 CURVE SMOOTH",
"312 250 OFFCURVE",
"231 251 OFFCURVE",
"156 251 CURVE",
"157 39 LINE",
"171 34 OFFCURVE",
"180 30 OFFCURVE",
"233 30 CURVE SMOOTH",
"244 30 OFFCURVE",
"254 29 OFFCURVE",
"265 29 CURVE SMOOTH",
"283 29 OFFCURVE",
"301 31 OFFCURVE",
"320 36 CURVE",
"338 47 OFFCURVE",
"369 83 OFFCURVE",
"375 94 CURVE SMOOTH",
"382 100 OFFCURVE",
"392 97 OFFCURVE",
"395 90 CURVE SMOOTH"
);
}
);
width = 441;
}
);
unicode = 00C9;
},
{
glyphname = Ecircumflex;
layers = (
{
layerId = master01;
paths = (
{
closed = 1;
nodes = (
"395 87 OFFCURVE",
"395 83 OFFCURVE",
"395 78 CURVE SMOOTH",
"395 52 OFFCURVE",
"394 10 OFFCURVE",
"388 -1 CURVE",
"367 -1 OFFCURVE",
"352 -1 OFFCURVE",
"339 -1 CURVE SMOOTH",
"313 -1 OFFCURVE",
"294 -1 OFFCURVE",
"253 -1 CURVE SMOOTH",
"208 -1 OFFCURVE",
"176 -1 OFFCURVE",
"145 -1 CURVE SMOOTH",
"107 -1 OFFCURVE",
"71 0 OFFCURVE",
"20 2 CURVE",
"17 3 OFFCURVE",
"15 6 OFFCURVE",
"15 9 CURVE SMOOTH",
"15 13 OFFCURVE",
"17 19 OFFCURVE",
"20 20 CURVE",
"46 25 OFFCURVE",
"57 25 OFFCURVE",
"73 38 CURVE",
"73 220 OFFCURVE",
"71 469 OFFCURVE",
"68 543 CURVE",
"48 555 OFFCURVE",
"40 557 OFFCURVE",
"14 562 CURVE SMOOTH",
"11 563 OFFCURVE",
"10 568 OFFCURVE",
"10 572 CURVE SMOOTH",
"10 576 OFFCURVE",
"11 579 OFFCURVE",
"14 580 CURVE SMOOTH",
"65 582 OFFCURVE",
"102 583 OFFCURVE",
"140 583 CURVE SMOOTH",
"171 583 OFFCURVE",
"203 582 OFFCURVE",
"248 582 CURVE SMOOTH",
"289 582 OFFCURVE",
"308 583 OFFCURVE",
"334 583 CURVE SMOOTH",
"347 583 OFFCURVE",
"362 582 OFFCURVE",
"383 582 CURVE",
"389 571 OFFCURVE",
"390 529 OFFCURVE",
"390 503 CURVE SMOOTH",
"390 498 OFFCURVE",
"390 494 OFFCURVE",
"390 491 CURVE",
"388 487 OFFCURVE",
"384 484 OFFCURVE",
"379 484 CURVE SMOOTH",
"376 484 OFFCURVE",
"373 485 OFFCURVE",
"370 488 CURVE",
"362 503 OFFCURVE",
"331 535 OFFCURVE",
"315 546 CURVE",
"296 551 OFFCURVE",
"278 552 OFFCURVE",
"260 552 CURVE SMOOTH",
"249 552 OFFCURVE",
"239 552 OFFCURVE",
"228 552 CURVE SMOOTH",
"172 552 OFFCURVE",
"168 547 OFFCURVE",
"153 542 CURVE SMOOTH",
"153 540 OFFCURVE",
"153 538 OFFCURVE",
"153 534 CURVE SMOOTH",
"153 516 OFFCURVE",
"151 476 OFFCURVE",
"151 439 CURVE SMOOTH",
"151 431 OFFCURVE",
"151 424 OFFCURVE",
"151 417 CURVE SMOOTH",
"155 298 LINE",
"178 298 OFFCURVE",
"197 297 OFFCURVE",
"215 297 CURVE SMOOTH",
"247 297 OFFCURVE",
"276 298 OFFCURVE",
"320 302 CURVE SMOOTH",
"347 305 OFFCURVE",
"366 338 OFFCURVE",
"368 346 CURVE",
"370 348 OFFCURVE",
"374 349 OFFCURVE",
"377 349 CURVE SMOOTH",
"381 349 OFFCURVE",
"385 348 OFFCURVE",
"386 345 CURVE",
"386 345 OFFCURVE",
"389 276 OFFCURVE",
"389 237 CURVE SMOOTH",
"389 223 OFFCURVE",
"389 213 OFFCURVE",
"388 211 CURVE",
"388 209 OFFCURVE",
"382 206 OFFCURVE",
"377 206 CURVE SMOOTH",
"373 206 OFFCURVE",
"369 208 OFFCURVE",
"368 210 CURVE",
"366 219 OFFCURVE",
"349 250 OFFCURVE",
"324 250 CURVE SMOOTH",
"312 250 OFFCURVE",
"231 251 OFFCURVE",
"156 251 CURVE",
"157 39 LINE",
"171 34 OFFCURVE",
"180 30 OFFCURVE",
"233 30 CURVE SMOOTH",
"244 30 OFFCURVE",
"254 29 OFFCURVE",
"265 29 CURVE SMOOTH",
"283 29 OFFCURVE",
"301 31 OFFCURVE",
"320 36 CURVE",
"338 47 OFFCURVE",
"369 83 OFFCURVE",
"375 94 CURVE",
"378 96 OFFCURVE",
"381 97 OFFCURVE",
"384 97 CURVE SMOOTH",
"389 97 OFFCURVE",
"393 94 OFFCURVE",
"395 90 CURVE"
);
},
{
closed = 1;
nodes = (
"58 650 OFFCURVE",
"62 658 OFFCURVE",
"70 664 CURVE SMOOTH",
"108 691 OFFCURVE",
"145 719 OFFCURVE",
"184 744 CURVE SMOOTH",
"188 747 OFFCURVE",
"199 749 OFFCURVE",
"207 749 CURVE SMOOTH",
"212 749 OFFCURVE",
"215 748 OFFCURVE",
"218 746 CURVE SMOOTH",
"259 721 OFFCURVE",
"298 692 OFFCURVE",
"337 664 CURVE SMOOTH",
"345 658 OFFCURVE",
"349 650 OFFCURVE",
"349 643 CURVE SMOOTH",
"349 637 OFFCURVE",
"346 633 OFFCURVE",
"341 633 CURVE SMOOTH",
"339 633 OFFCURVE",
"336 634 OFFCURVE",
"332 636 CURVE SMOOTH",
"296 659 OFFCURVE",
"260 682 OFFCURVE",
"224 705 CURVE SMOOTH",
"214 711 OFFCURVE",
"209 715 OFFCURVE",
"203 715 CURVE SMOOTH",
"198 715 OFFCURVE",
"193 712 OFFCURVE",
"183 706 CURVE SMOOTH",
"146 683 OFFCURVE",
"111 659 OFFCURVE",
"75 636 CURVE SMOOTH",
"71 634 OFFCURVE",
"68 633 OFFCURVE",
"66 633 CURVE SMOOTH",
"61 633 OFFCURVE",
"58 637 OFFCURVE",
"58 643 CURVE SMOOTH"
);
}
);
width = 441;
}
);
unicode = 00CA;
},
{
glyphname = Edieresis;
layers = (
{
layerId = master01;
paths = (
{
closed = 1;
nodes = (
"395 87 OFFCURVE",
"395 83 OFFCURVE",
"395 78 CURVE SMOOTH",
"395 52 OFFCURVE",
"394 10 OFFCURVE",
"388 -1 CURVE",
"367 -1 OFFCURVE",
"352 -1 OFFCURVE",
"339 -1 CURVE SMOOTH",
"313 -1 OFFCURVE",
"294 -1 OFFCURVE",
"253 -1 CURVE SMOOTH",
"208 -1 OFFCURVE",
"176 -1 OFFCURVE",
"145 -1 CURVE SMOOTH",
"107 -1 OFFCURVE",
"71 0 OFFCURVE",
"20 2 CURVE",
"17 3 OFFCURVE",
"15 6 OFFCURVE",
"15 9 CURVE SMOOTH",
"15 13 OFFCURVE",
"17 19 OFFCURVE",
"20 20 CURVE",
"46 25 OFFCURVE",
"57 25 OFFCURVE",
"73 38 CURVE",
"73 220 OFFCURVE",
"71 469 OFFCURVE",
"68 543 CURVE",
"48 555 OFFCURVE",
"40 557 OFFCURVE",
"14 562 CURVE SMOOTH",
"11 563 OFFCURVE",
"10 568 OFFCURVE",
"10 572 CURVE SMOOTH",
"10 576 OFFCURVE",
"11 579 OFFCURVE",
"14 580 CURVE SMOOTH",
"65 582 OFFCURVE",
"102 583 OFFCURVE",
"140 583 CURVE SMOOTH",
"171 583 OFFCURVE",
"203 582 OFFCURVE",
"248 582 CURVE SMOOTH",
"289 582 OFFCURVE",
"308 583 OFFCURVE",
"334 583 CURVE SMOOTH",
"347 583 OFFCURVE",
"362 582 OFFCURVE",
"383 582 CURVE",
"389 571 OFFCURVE",
"390 529 OFFCURVE",
"390 503 CURVE SMOOTH",
"390 498 OFFCURVE",
"390 494 OFFCURVE",
"390 491 CURVE",
"388 487 OFFCURVE",
"384 484 OFFCURVE",
"379 484 CURVE SMOOTH",
"376 484 OFFCURVE",
"373 485 OFFCURVE",
"370 488 CURVE",
"362 503 OFFCURVE",
"331 535 OFFCURVE",
"315 546 CURVE",
"296 551 OFFCURVE",
"278 552 OFFCURVE",
"260 552 CURVE SMOOTH",
"249 552 OFFCURVE",
"239 552 OFFCURVE",
"228 552 CURVE SMOOTH",
"172 552 OFFCURVE",
"168 547 OFFCURVE",
"153 542 CURVE SMOOTH",
"153 540 OFFCURVE",
"153 538 OFFCURVE",
"153 534 CURVE SMOOTH",
"153 516 OFFCURVE",
"151 476 OFFCURVE",
"151 439 CURVE SMOOTH",
"151 431 OFFCURVE",
"151 424 OFFCURVE",
"151 417 CURVE SMOOTH",
"155 298 LINE",
"178 298 OFFCURVE",
"197 297 OFFCURVE",
"215 297 CURVE SMOOTH",
"247 297 OFFCURVE",
"276 298 OFFCURVE",
"320 302 CURVE SMOOTH",
"347 305 OFFCURVE",
"366 338 OFFCURVE",
"368 346 CURVE",
"370 348 OFFCURVE",
"374 349 OFFCURVE",
"377 349 CURVE SMOOTH",
"381 349 OFFCURVE",
"385 348 OFFCURVE",
"386 345 CURVE",
"386 345 OFFCURVE",
"389 276 OFFCURVE",
"389 237 CURVE SMOOTH",
"389 223 OFFCURVE",
"389 213 OFFCURVE",
"388 211 CURVE",
"388 209 OFFCURVE",
"382 206 OFFCURVE",
"377 206 CURVE SMOOTH",
"373 206 OFFCURVE",
"369 208 OFFCURVE",
"368 210 CURVE",
"366 219 OFFCURVE",
"349 250 OFFCURVE",
"324 250 CURVE SMOOTH",
"312 250 OFFCURVE",
"231 251 OFFCURVE",
"156 251 CURVE",
"157 39 LINE",
"171 34 OFFCURVE",
"180 30 OFFCURVE",
"233 30 CURVE SMOOTH",
"244 30 OFFCURVE",
"254 29 OFFCURVE",
"265 29 CURVE SMOOTH",
"283 29 OFFCURVE",
"301 31 OFFCURVE",
"320 36 CURVE",
"338 47 OFFCURVE",
"369 83 OFFCURVE",
"375 94 CURVE",
"378 96 OFFCURVE",
"381 97 OFFCURVE",
"384 97 CURVE SMOOTH",
"389 97 OFFCURVE",
"393 94 OFFCURVE",
"395 90 CURVE"
);
},
{
closed = 1;
nodes = (
"126 686 OFFCURVE",
"137 701 OFFCURVE",
"158 712 CURVE SMOOTH",
"164 715 OFFCURVE",
"169 717 OFFCURVE",
"173 717 CURVE SMOOTH",
"184 717 OFFCURVE",
"190 706 OFFCURVE",
"190 684 CURVE SMOOTH",
"190 662 OFFCURVE",
"189 659 OFFCURVE",
"175 650 CURVE SMOOTH",
"166 644 OFFCURVE",
"158 641 OFFCURVE",
"150 641 CURVE SMOOTH",
"133 641 OFFCURVE",
"126 655 OFFCURVE",
"126 669 CURVE SMOOTH"
);
},
{
closed = 1;
nodes = (
"244 686 OFFCURVE",
"256 701 OFFCURVE",
"277 712 CURVE SMOOTH",
"283 715 OFFCURVE",
"288 717 OFFCURVE",
"292 717 CURVE SMOOTH",
"303 717 OFFCURVE",
"308 706 OFFCURVE",
"308 684 CURVE SMOOTH",
"308 662 OFFCURVE",
"308 659 OFFCURVE",
"294 650 CURVE SMOOTH",
"285 644 OFFCURVE",
"277 641 OFFCURVE",
"269 641 CURVE SMOOTH",
"252 641 OFFCURVE",
"244 655 OFFCURVE",
"244 669 CURVE SMOOTH"
);
}
);
width = 441;
}
);
unicode = 00CB;
},
{
glyphname = Egrave;
layers = (
{
layerId = master01;
paths = (
{
closed = 1;
nodes = (
"395 87 OFFCURVE",
"395 83 OFFCURVE",
"395 78 CURVE SMOOTH",
"395 52 OFFCURVE",
"394 10 OFFCURVE",
"388 -1 CURVE",
"367 -1 OFFCURVE",
"352 -1 OFFCURVE",
"339 -1 CURVE SMOOTH",
"313 -1 OFFCURVE",
"294 -1 OFFCURVE",
"253 -1 CURVE SMOOTH",
"208 -1 OFFCURVE",
"176 -1 OFFCURVE",
"145 -1 CURVE SMOOTH",
"107 -1 OFFCURVE",
"71 0 OFFCURVE",
"20 2 CURVE",
"17 3 OFFCURVE",
"15 6 OFFCURVE",
"15 9 CURVE SMOOTH",
"15 13 OFFCURVE",
"17 19 OFFCURVE",
"20 20 CURVE",
"46 25 OFFCURVE",
"57 25 OFFCURVE",
"73 38 CURVE",
"73 220 OFFCURVE",
"71 469 OFFCURVE",
"68 543 CURVE",
"48 555 OFFCURVE",
"40 557 OFFCURVE",
"14 562 CURVE SMOOTH",
"11 563 OFFCURVE",
"10 568 OFFCURVE",
"10 572 CURVE SMOOTH",
"10 576 OFFCURVE",
"11 579 OFFCURVE",
"14 580 CURVE SMOOTH",
"65 582 OFFCURVE",
"102 583 OFFCURVE",
"140 583 CURVE SMOOTH",
"171 583 OFFCURVE",
"203 582 OFFCURVE",
"248 582 CURVE SMOOTH",
"289 582 OFFCURVE",
"308 583 OFFCURVE",
"334 583 CURVE SMOOTH",
"347 583 OFFCURVE",
"362 582 OFFCURVE",
"383 582 CURVE",
"389 571 OFFCURVE",
"390 529 OFFCURVE",
"390 503 CURVE SMOOTH",
"390 498 OFFCURVE",
"390 494 OFFCURVE",
"390 491 CURVE",
"388 487 OFFCURVE",
"384 484 OFFCURVE",
"379 484 CURVE SMOOTH",
"376 484 OFFCURVE",
"373 485 OFFCURVE",
"370 488 CURVE",
"362 503 OFFCURVE",
"331 535 OFFCURVE",
"315 546 CURVE",
"296 551 OFFCURVE",
"278 552 OFFCURVE",
"260 552 CURVE SMOOTH",
"249 552 OFFCURVE",
"239 552 OFFCURVE",
"228 552 CURVE SMOOTH",
"172 552 OFFCURVE",
"168 547 OFFCURVE",
"153 542 CURVE SMOOTH",
"153 540 OFFCURVE",
"153 538 OFFCURVE",
"153 534 CURVE SMOOTH",
"153 516 OFFCURVE",
"151 476 OFFCURVE",
"151 439 CURVE SMOOTH",
"151 431 OFFCURVE",
"151 424 OFFCURVE",
"151 417 CURVE SMOOTH",
"155 298 LINE",
"178 298 OFFCURVE",
"197 297 OFFCURVE",
"215 297 CURVE SMOOTH",
"247 297 OFFCURVE",
"276 298 OFFCURVE",
"320 302 CURVE SMOOTH",
"347 305 OFFCURVE",
"366 338 OFFCURVE",
"368 346 CURVE",
"370 348 OFFCURVE",
"374 349 OFFCURVE",
"377 349 CURVE SMOOTH",
"381 349 OFFCURVE",
"385 348 OFFCURVE",
"386 345 CURVE",
"386 345 OFFCURVE",
"389 276 OFFCURVE",
"389 237 CURVE SMOOTH",
"389 223 OFFCURVE",
"389 213 OFFCURVE",
"388 211 CURVE",
"388 209 OFFCURVE",
"382 206 OFFCURVE",
"377 206 CURVE SMOOTH",
"373 206 OFFCURVE",
"369 208 OFFCURVE",
"368 210 CURVE",
"366 219 OFFCURVE",
"349 250 OFFCURVE",
"324 250 CURVE SMOOTH",
"312 250 OFFCURVE",
"231 251 OFFCURVE",
"156 251 CURVE",
"157 39 LINE",
"171 34 OFFCURVE",
"180 30 OFFCURVE",
"233 30 CURVE SMOOTH",
"244 30 OFFCURVE",
"254 29 OFFCURVE",
"265 29 CURVE SMOOTH",
"283 29 OFFCURVE",
"301 31 OFFCURVE",
"320 36 CURVE",
"338 47 OFFCURVE",
"369 83 OFFCURVE",
"375 94 CURVE",
"378 96 OFFCURVE",
"381 97 OFFCURVE",
"384 97 CURVE SMOOTH",
"389 97 OFFCURVE",
"393 94 OFFCURVE",
"395 90 CURVE"
);
},
{
closed = 1;
nodes = (
"11 729 OFFCURVE",
"30 738 OFFCURVE",
"51 738 CURVE SMOOTH",
"69 738 OFFCURVE",
"84 732 OFFCURVE",
"108 725 CURVE SMOOTH",
"182 703 OFFCURVE",
"307 666 OFFCURVE",
"353 636 CURVE",
"350 632 LINE",
"279 664 OFFCURVE",
"240 678 OFFCURVE",
"163 700 CURVE SMOOTH",
"137 708 OFFCURVE",
"119 715 OFFCURVE",
"100 715 CURVE SMOOTH",
"83 715 OFFCURVE",
"63 672 OFFCURVE",
"42 668 CURVE",
"27 672 OFFCURVE",
"1 698 OFFCURVE",
"0 709 CURVE"
);
}
);
width = 441;
}
);
unicode = 00C8;
},
{
glyphname = Emacron;
layers = (
{
layerId = master01;
paths = (
{
closed = 1;
nodes = (
"381.9 692.75 OFFCURVE",
"354.7 656.2 OFFCURVE",
"332.6 656.2 CURVE SMOOTH",
"320.7 656.2 OFFCURVE",
"318.15 674.9 OFFCURVE",
"308.8 674.9 CURVE SMOOTH",
"285 674.9 OFFCURVE",
"102.25 658.75 OFFCURVE",
"79.3 658.75 CURVE SMOOTH",
"59.75 658.75 OFFCURVE",
"47.85 659.6 OFFCURVE",
"47.85 675.75 CURVE SMOOTH",
"47.85 691.9 OFFCURVE",
"74.2 721.65 OFFCURVE",
"92.9 721.65 CURVE SMOOTH",
"106.5 721.65 OFFCURVE",
"103.95 703.8 OFFCURVE",
"124.35 703.8 CURVE SMOOTH",
"157.5 703.8 OFFCURVE",
"317.3 721.65 OFFCURVE",
"344.5 721.65 CURVE SMOOTH",
"361.5 721.65 OFFCURVE",
"381.9 721.65 OFFCURVE",
"381.9 706.35 CURVE SMOOTH"
);
},
{
closed = 1;
nodes = (
"395 87 OFFCURVE",
"395 83 OFFCURVE",
"395 78 CURVE SMOOTH",
"395 52 OFFCURVE",
"394 10 OFFCURVE",
"388 -1 CURVE",
"367 -1 OFFCURVE",
"352 -1 OFFCURVE",
"339 -1 CURVE SMOOTH",
"313 -1 OFFCURVE",
"294 -1 OFFCURVE",
"253 -1 CURVE SMOOTH",
"208 -1 OFFCURVE",
"176 -1 OFFCURVE",
"145 -1 CURVE SMOOTH",
"107 -1 OFFCURVE",
"71 0 OFFCURVE",
"20 2 CURVE SMOOTH",
"13 5 OFFCURVE",
"15 17 OFFCURVE",
"20 20 CURVE SMOOTH",
"46 25 OFFCURVE",
"57 25 OFFCURVE",
"73 38 CURVE",
"73 220 OFFCURVE",
"71 469 OFFCURVE",
"68 543 CURVE",
"48 555 OFFCURVE",
"40 557 OFFCURVE",
"14 562 CURVE SMOOTH",
"11 563 OFFCURVE",
"10 568 OFFCURVE",
"10 572 CURVE SMOOTH",
"10 576 OFFCURVE",
"11 579 OFFCURVE",
"14 580 CURVE SMOOTH",
"65 582 OFFCURVE",
"102 583 OFFCURVE",
"140 583 CURVE SMOOTH",
"171 583 OFFCURVE",
"203 582 OFFCURVE",
"248 582 CURVE SMOOTH",
"289 582 OFFCURVE",
"308 583 OFFCURVE",
"334 583 CURVE SMOOTH",
"347 583 OFFCURVE",
"362 582 OFFCURVE",
"383 582 CURVE",
"389 571 OFFCURVE",
"390 529 OFFCURVE",
"390 503 CURVE SMOOTH",
"390 498 OFFCURVE",
"390 494 OFFCURVE",
"390 491 CURVE SMOOTH",
"387 484 OFFCURVE",
"378 480 OFFCURVE",
"370 488 CURVE",
"362 503 OFFCURVE",
"331 535 OFFCURVE",
"315 546 CURVE",
"296 551 OFFCURVE",
"278 552 OFFCURVE",
"260 552 CURVE SMOOTH",
"249 552 OFFCURVE",
"239 552 OFFCURVE",
"228 552 CURVE SMOOTH",
"172 552 OFFCURVE",
"168 547 OFFCURVE",
"153 542 CURVE SMOOTH",
"153 540 OFFCURVE",
"153 538 OFFCURVE",
"153 534 CURVE SMOOTH",
"153 516 OFFCURVE",
"151 476 OFFCURVE",
"151 439 CURVE SMOOTH",
"151 431 OFFCURVE",
"151 424 OFFCURVE",
"151 417 CURVE SMOOTH",
"155 298 LINE",
"178 298 OFFCURVE",
"197 297 OFFCURVE",
"215 297 CURVE SMOOTH",
"247 297 OFFCURVE",
"276 298 OFFCURVE",
"320 302 CURVE SMOOTH",
"347 305 OFFCURVE",
"366 338 OFFCURVE",
"368 346 CURVE SMOOTH",
"371 350 OFFCURVE",
"383 350 OFFCURVE",
"386 345 CURVE SMOOTH",
"386 345 OFFCURVE",
"389 276 OFFCURVE",
"389 237 CURVE SMOOTH",
"389 223 OFFCURVE",
"389 213 OFFCURVE",
"388 211 CURVE SMOOTH",
"387 207 OFFCURVE",
"371 204 OFFCURVE",
"368 210 CURVE SMOOTH",
"366 219 OFFCURVE",
"349 250 OFFCURVE",
"324 250 CURVE SMOOTH",
"312 250 OFFCURVE",
"231 251 OFFCURVE",
"156 251 CURVE",
"157 39 LINE",
"171 34 OFFCURVE",
"180 30 OFFCURVE",
"233 30 CURVE SMOOTH",
"244 30 OFFCURVE",
"254 29 OFFCURVE",
"265 29 CURVE SMOOTH",
"283 29 OFFCURVE",
"301 31 OFFCURVE",
"320 36 CURVE",
"338 47 OFFCURVE",
"369 83 OFFCURVE",
"375 94 CURVE SMOOTH",
"382 100 OFFCURVE",
"392 97 OFFCURVE",
"395 90 CURVE SMOOTH"
);
}
);
width = 441;
}
);
unicode = 0112;
},
{
glyphname = F;
layers = (
{
anchors = (
{
name = Above;
position = "{214, 595}";
},
{
name = Below;
position = "{197, -42}";
}
);
layerId = master01;
paths = (
{
closed = 1;
nodes = (
"395 198 OFFCURVE",
"381 195 OFFCURVE",
"378 201 CURVE SMOOTH",
"374 221 OFFCURVE",
"360 241 OFFCURVE",
"332 241 CURVE SMOOTH",
"320 241 OFFCURVE",
"231 183 OFFCURVE",
"156 183 CURVE",
"156 47 LINE",
"183 31 OFFCURVE",
"212 27 OFFCURVE",
"236 27 CURVE",
"240 23 OFFCURVE",
"243 18 OFFCURVE",
"243 13 CURVE SMOOTH",
"243 9 OFFCURVE",
"241 5 OFFCURVE",
"237 1 CURVE",
"211 -2 OFFCURVE",
"154 -4 OFFCURVE",
"121 -4 CURVE SMOOTH",
"109 -4 OFFCURVE",
"99 -4 OFFCURVE",
"89 -4 CURVE SMOOTH",
"71 -4 OFFCURVE",
"50 -4 OFFCURVE",
"14 0 CURVE SMOOTH",
"11 2 OFFCURVE",
"9 6 OFFCURVE",
"9 11 CURVE SMOOTH",
"9 15 OFFCURVE",
"10 20 OFFCURVE",
"14 23 CURVE SMOOTH",
"42 25 OFFCURVE",
"61 33 OFFCURVE",
"73 45 CURVE",
"73 226 OFFCURVE",
"71 469 OFFCURVE",
"68 543 CURVE",
"54 557 OFFCURVE",
"39 559 OFFCURVE",
"14 562 CURVE SMOOTH",
"11 563 OFFCURVE",
"10 568 OFFCURVE",
"10 572 CURVE SMOOTH",
"10 576 OFFCURVE",
"11 579 OFFCURVE",
"14 580 CURVE SMOOTH",
"65 582 OFFCURVE",
"99 583 OFFCURVE",
"135 583 CURVE SMOOTH",
"164 583 OFFCURVE",
"195 582 OFFCURVE",
"240 582 CURVE SMOOTH",
"281 582 OFFCURVE",
"296 583 OFFCURVE",
"319 583 CURVE SMOOTH",
"331 583 OFFCURVE",
"345 582 OFFCURVE",
"366 582 CURVE",
"371 573 OFFCURVE",
"372 549 OFFCURVE",
"372 527 CURVE SMOOTH",
"372 515 OFFCURVE",
"371 504 OFFCURVE",
"371 496 CURVE SMOOTH",
"368 489 OFFCURVE",
"359 485 OFFCURVE",
"351 492 CURVE",
"345 506 OFFCURVE",
"315 533 OFFCURVE",
"296 545 CURVE",
"275 551 OFFCURVE",
"259 552 OFFCURVE",
"242 552 CURVE SMOOTH",
"235 552 OFFCURVE",
"227 552 OFFCURVE",
"219 552 CURVE SMOOTH",
"179 552 OFFCURVE",
"167 549 OFFCURVE",
"153 543 CURVE SMOOTH",
"153 541 OFFCURVE",
"153 538 OFFCURVE",
"153 533 CURVE SMOOTH",
"153 512 OFFCURVE",
"151 468 OFFCURVE",
"151 430 CURVE SMOOTH",
"151 425 OFFCURVE",
"151 420 OFFCURVE",
"151 416 CURVE SMOOTH",
"155 230 LINE",
"219 230 OFFCURVE",
"283 266 OFFCURVE",
"331 295 CURVE SMOOTH",
"353 309 OFFCURVE",
"375 336 OFFCURVE",
"377 354 CURVE SMOOTH",
"380 358 OFFCURVE",
"391 359 OFFCURVE",
"394 354 CURVE SMOOTH",
"394 354 OFFCURVE",
"398 275 OFFCURVE",
"398 231 CURVE SMOOTH",
"398 215 OFFCURVE",
"397 204 OFFCURVE",
"396 202 CURVE SMOOTH"
);
}
);
width = 417;
}
);
unicode = 0046;
},
{
glyphname = G;
layers = (
{
anchors = (
{
name = Above;
position = "{246, 595}";
},
{
name = Below;
position = "{221, -42}";
}
);
layerId = master01;
paths = (
{
closed = 1;
nodes = (
"429 230 OFFCURVE",
"430 214 OFFCURVE",
"430 193 CURVE SMOOTH",
"430 128 OFFCURVE",
"428 10 OFFCURVE",
"422 -1 CURVE",
"401 -1 OFFCURVE",
"382 -1 OFFCURVE",
"364 -1 CURVE SMOOTH",
"328 -1 OFFCURVE",
"294 -1 OFFCURVE",
"253 -1 CURVE SMOOTH",
"208 -1 OFFCURVE",
"176 -1 OFFCURVE",
"145 -1 CURVE SMOOTH",
"107 -1 OFFCURVE",
"71 0 OFFCURVE",
"20 2 CURVE SMOOTH",
"13 5 OFFCURVE",
"15 17 OFFCURVE",
"20 20 CURVE SMOOTH",
"46 25 OFFCURVE",
"53 29 OFFCURVE",
"73 43 CURVE",
"73 225 OFFCURVE",
"71 465 OFFCURVE",
"68 539 CURVE",
"48 556 OFFCURVE",
"40 557 OFFCURVE",
"14 562 CURVE SMOOTH",
"11 563 OFFCURVE",
"10 568 OFFCURVE",
"10 572 CURVE SMOOTH",
"10 576 OFFCURVE",
"11 579 OFFCURVE",
"14 580 CURVE SMOOTH",
"65 582 OFFCURVE",
"102 583 OFFCURVE",
"140 583 CURVE SMOOTH",
"171 583 OFFCURVE",
"203 582 OFFCURVE",
"248 582 CURVE SMOOTH",
"289 582 OFFCURVE",
"323 583 OFFCURVE",
"359 583 CURVE SMOOTH",
"377 583 OFFCURVE",
"396 582 OFFCURVE",
"417 582 CURVE",
"423 569 OFFCURVE",
"424 528 OFFCURVE",
"424 503 CURVE SMOOTH",
"424 498 OFFCURVE",
"424 494 OFFCURVE",
"424 491 CURVE SMOOTH",
"422 486 OFFCURVE",
"411 482 OFFCURVE",
"404 488 CURVE SMOOTH",
"398 499 OFFCURVE",
"366 538 OFFCURVE",
"329 547 CURVE SMOOTH",
"314 551 OFFCURVE",
"294 552 OFFCURVE",
"275 552 CURVE SMOOTH",
"258 552 OFFCURVE",
"242 552 OFFCURVE",
"228 552 CURVE SMOOTH",
"189 552 OFFCURVE",
"167 548 OFFCURVE",
"153 541 CURVE",
"154 532 OFFCURVE",
"155 515 OFFCURVE",
"155 490 CURVE SMOOTH",
"155 463 OFFCURVE",
"154 426 OFFCURVE",
"154 381 CURVE SMOOTH",
"154 356 OFFCURVE",
"155 328 OFFCURVE",
"155 298 CURVE SMOOTH",
"157 47 LINE",
"171 39 OFFCURVE",
"181 30 OFFCURVE",
"233 30 CURVE SMOOTH",
"243 30 OFFCURVE",
"259 29 OFFCURVE",
"278 29 CURVE SMOOTH",
"316 29 OFFCURVE",
"364 30 OFFCURVE",
"388 37 CURVE",
"391 49 OFFCURVE",
"389 160 OFFCURVE",
"390 208 CURVE",
"381 210 OFFCURVE",
"352 212 OFFCURVE",
"323 212 CURVE SMOOTH",
"297 212 OFFCURVE",
"273 210 OFFCURVE",
"263 207 CURVE SMOOTH",
"246 197 OFFCURVE",
"245 183 OFFCURVE",
"229 177 CURVE",
"229 189 OFFCURVE",
"229 235 OFFCURVE",
"230 238 CURVE SMOOTH",
"235 239 OFFCURVE",
"270 240 OFFCURVE",
"309 240 CURVE SMOOTH",
"363 240 OFFCURVE",
"424 238 OFFCURVE",
"429 235 CURVE"
);
}
);
width = 471;
}
);
unicode = 0047;
},
{
glyphname = H;
layers = (
{
anchors = (
{
name = Above;
position = "{282, 595}";
},
{
name = Below;
position = "{175, -42}";
}
);
layerId = master01;
paths = (
{
closed = 1;
nodes = (
"495 8 OFFCURVE",
"398 -47 OFFCURVE",
"327 -89 CURVE",
"314 -75 LINE",
"383 -16 OFFCURVE",
"401 24 OFFCURVE",
"401 78 CURVE SMOOTH",
"401 153 OFFCURVE",
"363 269 OFFCURVE",
"274 269 CURVE SMOOTH",
"226 269 OFFCURVE",
"176 210 OFFCURVE",
"158 161 CURVE",
"159 54 LINE",
"170 41 OFFCURVE",
"194 38 OFFCURVE",
"211 38 CURVE SMOOTH",
"215 38 OFFCURVE",
"219 38 OFFCURVE",
"222 38 CURVE SMOOTH",
"230 31 OFFCURVE",
"232 26 OFFCURVE",
"224 16 CURVE",
"142 2 OFFCURVE",
"127 -15 OFFCURVE",
"84 -15 CURVE SMOOTH",
"60 -15 OFFCURVE",
"28 -11 OFFCURVE",
"15 -6 CURVE SMOOTH",
"12 -3 OFFCURVE",
"10 4 OFFCURVE",
"10 11 CURVE SMOOTH",
"10 14 OFFCURVE",
"11 17 OFFCURVE",
"12 20 CURVE SMOOTH",
"33 22 OFFCURVE",
"54 27 OFFCURVE",
"69 40 CURVE",
"69 48 OFFCURVE",
"69 56 OFFCURVE",
"69 63 CURVE SMOOTH",
"69 93 OFFCURVE",
"68 119 OFFCURVE",
"68 147 CURVE SMOOTH",
"68 217 OFFCURVE",
"77 317 OFFCURVE",
"77 483 CURVE SMOOTH",
"77 497 OFFCURVE",
"76 511 OFFCURVE",
"76 526 CURVE",
"65 540 OFFCURVE",
"45 546 OFFCURVE",
"17 546 CURVE",
"14 550 OFFCURVE",
"12 554 OFFCURVE",
"12 559 CURVE SMOOTH",
"12 563 OFFCURVE",
"14 567 OFFCURVE",
"16 571 CURVE SMOOTH",
"24 575 OFFCURVE",
"44 584 OFFCURVE",
"60 584 CURVE SMOOTH",
"69 584 LINE SMOOTH",
"104 584 OFFCURVE",
"141 583 OFFCURVE",
"212 564 CURVE SMOOTH",
"215 562 OFFCURVE",
"218 556 OFFCURVE",
"218 550 CURVE SMOOTH",
"218 546 OFFCURVE",
"217 541 OFFCURVE",
"214 539 CURVE SMOOTH",
"201 532 OFFCURVE",
"185 532 OFFCURVE",
"173 527 CURVE",
"167 493 OFFCURVE",
"157 416 OFFCURVE",
"157 307 CURVE SMOOTH",
"157 281 OFFCURVE",
"158 253 OFFCURVE",
"159 224 CURVE",
"219 299 OFFCURVE",
"288 326 OFFCURVE",
"343 326 CURVE SMOOTH",
"422 326 OFFCURVE",
"495 263 OFFCURVE",
"495 186 CURVE SMOOTH"
);
}
);
width = 514;
}
);
unicode = 0048;
},
{
glyphname = I;
layers = (
{
anchors = (
{
name = Above;
position = "{114, 595}";
},
{
name = Below;
position = "{116, -42}";
}
);
layerId = master01;
paths = (
{
closed = 1;
nodes = (
"214 -8 OFFCURVE",
"153 -12 OFFCURVE",
"121 -13 CURVE SMOOTH",
"119 -13 OFFCURVE",
"117 -13 OFFCURVE",
"115 -13 CURVE SMOOTH",
"86 -13 OFFCURVE",
"71 -6 OFFCURVE",
"14 5 CURVE SMOOTH",
"11 7 OFFCURVE",
"9 13 OFFCURVE",
"9 19 CURVE SMOOTH",
"9 24 OFFCURVE",
"10 29 OFFCURVE",
"14 32 CURVE SMOOTH",
"37 39 OFFCURVE",
"58 39 OFFCURVE",
"73 59 CURVE",
"73 240 OFFCURVE",
"71 461 OFFCURVE",
"68 535 CURVE",
"48 550 OFFCURVE",
"39 553 OFFCURVE",
"14 556 CURVE SMOOTH",
"11 557 OFFCURVE",
"10 562 OFFCURVE",
"10 566 CURVE SMOOTH",
"10 570 OFFCURVE",
"11 573 OFFCURVE",
"14 574 CURVE SMOOTH",
"35 578 OFFCURVE",
"92 587 OFFCURVE",
"108 587 CURVE SMOOTH",
"159 587 OFFCURVE",
"181 583 OFFCURVE",
"214 574 CURVE SMOOTH",
"216 572 OFFCURVE",
"217 569 OFFCURVE",
"217 566 CURVE SMOOTH",
"217 562 OFFCURVE",
"216 558 OFFCURVE",
"214 556 CURVE",
"194 554 OFFCURVE",
"179 549 OFFCURVE",
"160 528 CURVE",
"158 505 OFFCURVE",
"156 241 OFFCURVE",
"156 62 CURVE",
"186 31 OFFCURVE",
"208 35 OFFCURVE",
"236 32 CURVE",
"240 28 OFFCURVE",
"243 23 OFFCURVE",
"243 18 CURVE SMOOTH",
"243 14 OFFCURVE",
"241 10 OFFCURVE",
"237 6 CURVE SMOOTH"
);
}
);
width = 265;
}
);
unicode = 0049;
},
{
glyphname = Iacute;
layers = (
{
layerId = master01;
paths = (
{
closed = 1;
nodes = (
"386 698 OFFCURVE",
"360 672 OFFCURVE",
"345 668 CURVE",
"324 672 OFFCURVE",
"303 715 OFFCURVE",
"286 715 CURVE SMOOTH",
"267 715 OFFCURVE",
"250 708 OFFCURVE",
"224 700 CURVE SMOOTH",
"147 678 OFFCURVE",
"108 664 OFFCURVE",
"37 632 CURVE",
"34 636 LINE",
"80 666 OFFCURVE",
"205 703 OFFCURVE",
"279 725 CURVE SMOOTH",
"303 732 OFFCURVE",
"318 738 OFFCURVE",
"336 738 CURVE SMOOTH",
"357 738 OFFCURVE",
"376 729 OFFCURVE",
"387 709 CURVE"
);
},
{
closed = 1;
nodes = (
"214 -8 OFFCURVE",
"153 -12 OFFCURVE",
"121 -13 CURVE SMOOTH",
"119 -13 OFFCURVE",
"117 -13 OFFCURVE",
"115 -13 CURVE SMOOTH",
"86 -13 OFFCURVE",
"71 -6 OFFCURVE",
"14 5 CURVE SMOOTH",
"11 7 OFFCURVE",
"9 13 OFFCURVE",
"9 19 CURVE SMOOTH",
"9 24 OFFCURVE",
"10 29 OFFCURVE",
"14 32 CURVE SMOOTH",
"37 39 OFFCURVE",
"58 39 OFFCURVE",
"73 59 CURVE",
"73 240 OFFCURVE",
"71 461 OFFCURVE",
"68 535 CURVE",
"48 550 OFFCURVE",
"39 553 OFFCURVE",
"14 556 CURVE SMOOTH",
"11 557 OFFCURVE",
"10 562 OFFCURVE",
"10 566 CURVE SMOOTH",
"10 570 OFFCURVE",
"11 573 OFFCURVE",
"14 574 CURVE SMOOTH",
"35 578 OFFCURVE",
"92 587 OFFCURVE",
"108 587 CURVE SMOOTH",
"159 587 OFFCURVE",
"181 583 OFFCURVE",
"214 574 CURVE SMOOTH",
"218 571 OFFCURVE",
"217 560 OFFCURVE",
"214 556 CURVE",
"194 554 OFFCURVE",
"179 549 OFFCURVE",
"160 528 CURVE",
"158 505 OFFCURVE",
"156 241 OFFCURVE",
"156 62 CURVE",
"186 31 OFFCURVE",
"208 35 OFFCURVE",
"236 32 CURVE",
"240 28 OFFCURVE",
"243 23 OFFCURVE",
"243 18 CURVE SMOOTH",
"243 14 OFFCURVE",
"241 10 OFFCURVE",
"237 6 CURVE SMOOTH"
);
}
);
width = 265;
}
);
unicode = 00CD;
},
{
glyphname = Icircumflex;
layers = (
{
layerId = master01;
paths = (
{
closed = 1;
nodes = (
"214 -8 OFFCURVE",
"153 -12 OFFCURVE",
"121 -13 CURVE SMOOTH",
"119 -13 OFFCURVE",
"117 -13 OFFCURVE",
"115 -13 CURVE SMOOTH",
"86 -13 OFFCURVE",
"71 -6 OFFCURVE",
"14 5 CURVE SMOOTH",
"11 7 OFFCURVE",
"9 13 OFFCURVE",
"9 19 CURVE SMOOTH",
"9 24 OFFCURVE",
"10 29 OFFCURVE",
"14 32 CURVE SMOOTH",
"37 39 OFFCURVE",
"58 39 OFFCURVE",
"73 59 CURVE",
"73 240 OFFCURVE",
"71 461 OFFCURVE",
"68 535 CURVE",
"48 550 OFFCURVE",
"39 553 OFFCURVE",
"14 556 CURVE SMOOTH",
"11 557 OFFCURVE",
"10 562 OFFCURVE",
"10 566 CURVE SMOOTH",
"10 570 OFFCURVE",
"11 573 OFFCURVE",
"14 574 CURVE SMOOTH",
"35 578 OFFCURVE",
"92 587 OFFCURVE",
"108 587 CURVE SMOOTH",
"159 587 OFFCURVE",
"181 583 OFFCURVE",
"214 574 CURVE SMOOTH",
"216 572 OFFCURVE",
"217 569 OFFCURVE",
"217 566 CURVE SMOOTH",
"217 562 OFFCURVE",
"216 558 OFFCURVE",
"214 556 CURVE",
"194 554 OFFCURVE",
"179 549 OFFCURVE",
"160 528 CURVE",
"158 505 OFFCURVE",
"156 241 OFFCURVE",
"156 62 CURVE",
"186 31 OFFCURVE",
"208 35 OFFCURVE",
"236 32 CURVE",
"240 28 OFFCURVE",
"243 23 OFFCURVE",
"243 18 CURVE SMOOTH",
"243 14 OFFCURVE",
"241 10 OFFCURVE",
"237 6 CURVE SMOOTH"
);
},
{
closed = 1;
nodes = (
"-25 650 OFFCURVE",
"-22 658 OFFCURVE",
"-14 664 CURVE SMOOTH",
"24 691 OFFCURVE",
"62 719 OFFCURVE",
"101 744 CURVE SMOOTH",
"105 747 OFFCURVE",
"115 749 OFFCURVE",
"123 749 CURVE SMOOTH",
"128 749 OFFCURVE",
"132 748 OFFCURVE",
"135 746 CURVE SMOOTH",
"176 721 OFFCURVE",
"215 692 OFFCURVE",
"254 664 CURVE SMOOTH",
"262 658 OFFCURVE",
"265 650 OFFCURVE",
"265 643 CURVE SMOOTH",
"265 637 OFFCURVE",
"262 633 OFFCURVE",
"257 633 CURVE SMOOTH",
"255 633 OFFCURVE",
"252 634 OFFCURVE",
"248 636 CURVE SMOOTH",
"212 659 OFFCURVE",
"177 682 OFFCURVE",
"141 705 CURVE SMOOTH",
"131 711 OFFCURVE",
"126 715 OFFCURVE",
"120 715 CURVE SMOOTH",
"115 715 OFFCURVE",
"109 712 OFFCURVE",
"99 706 CURVE SMOOTH",
"62 683 OFFCURVE",
"28 659 OFFCURVE",
"-8 636 CURVE SMOOTH",
"-12 634 OFFCURVE",
"-15 633 OFFCURVE",
"-17 633 CURVE SMOOTH",
"-22 633 OFFCURVE",
"-25 637 OFFCURVE",
"-25 643 CURVE SMOOTH"
);
}
);
width = 265;
}
);
unicode = 00CE;
},
{
glyphname = Idieresis;
layers = (
{
layerId = master01;
paths = (
{
closed = 1;
nodes = (
"214 -8 OFFCURVE",
"153 -12 OFFCURVE",
"121 -13 CURVE SMOOTH",
"119 -13 OFFCURVE",
"117 -13 OFFCURVE",
"115 -13 CURVE SMOOTH",
"86 -13 OFFCURVE",
"71 -6 OFFCURVE",
"14 5 CURVE SMOOTH",
"11 7 OFFCURVE",
"9 13 OFFCURVE",
"9 19 CURVE SMOOTH",
"9 24 OFFCURVE",
"10 29 OFFCURVE",
"14 32 CURVE SMOOTH",
"37 39 OFFCURVE",
"58 39 OFFCURVE",
"73 59 CURVE",
"73 240 OFFCURVE",
"71 461 OFFCURVE",
"68 535 CURVE",
"48 550 OFFCURVE",
"39 553 OFFCURVE",
"14 556 CURVE SMOOTH",
"11 557 OFFCURVE",
"10 562 OFFCURVE",
"10 566 CURVE SMOOTH",
"10 570 OFFCURVE",
"11 573 OFFCURVE",
"14 574 CURVE SMOOTH",
"35 578 OFFCURVE",
"92 587 OFFCURVE",
"108 587 CURVE SMOOTH",
"159 587 OFFCURVE",
"181 583 OFFCURVE",
"214 574 CURVE SMOOTH",
"216 572 OFFCURVE",
"217 569 OFFCURVE",
"217 566 CURVE SMOOTH",
"217 562 OFFCURVE",
"216 558 OFFCURVE",
"214 556 CURVE",
"194 554 OFFCURVE",
"179 549 OFFCURVE",
"160 528 CURVE",
"158 505 OFFCURVE",
"156 241 OFFCURVE",
"156 62 CURVE",
"186 31 OFFCURVE",
"208 35 OFFCURVE",
"236 32 CURVE",
"240 28 OFFCURVE",
"243 23 OFFCURVE",
"243 18 CURVE SMOOTH",
"243 14 OFFCURVE",
"241 10 OFFCURVE",
"237 6 CURVE SMOOTH"
);
},
{
closed = 1;
nodes = (
"21 686 OFFCURVE",
"32 701 OFFCURVE",
"53 712 CURVE SMOOTH",
"59 715 OFFCURVE",
"64 717 OFFCURVE",
"68 717 CURVE SMOOTH",
"79 717 OFFCURVE",
"84 706 OFFCURVE",
"84 684 CURVE SMOOTH",
"84 662 OFFCURVE",
"84 659 OFFCURVE",
"70 650 CURVE SMOOTH",
"61 644 OFFCURVE",
"53 641 OFFCURVE",
"45 641 CURVE SMOOTH",
"28 641 OFFCURVE",
"21 655 OFFCURVE",
"21 669 CURVE SMOOTH"
);
},
{
closed = 1;
nodes = (
"139 686 OFFCURVE",
"150 701 OFFCURVE",
"171 712 CURVE SMOOTH",
"177 715 OFFCURVE",
"182 717 OFFCURVE",
"186 717 CURVE SMOOTH",
"197 717 OFFCURVE",
"203 706 OFFCURVE",
"203 684 CURVE SMOOTH",
"203 662 OFFCURVE",
"202 659 OFFCURVE",
"188 650 CURVE SMOOTH",
"179 644 OFFCURVE",
"171 641 OFFCURVE",
"163 641 CURVE SMOOTH",
"146 641 OFFCURVE",
"139 655 OFFCURVE",
"139 669 CURVE SMOOTH"
);
}
);
width = 265;
}
);
unicode = 00CF;
},
{
glyphname = Igrave;
layers = (
{
layerId = master01;
paths = (
{
closed = 1;
nodes = (
"214 -8 OFFCURVE",
"153 -12 OFFCURVE",
"121 -13 CURVE SMOOTH",
"119 -13 OFFCURVE",
"117 -13 OFFCURVE",
"115 -13 CURVE SMOOTH",
"86 -13 OFFCURVE",
"71 -6 OFFCURVE",
"14 5 CURVE SMOOTH",
"11 7 OFFCURVE",
"9 13 OFFCURVE",
"9 19 CURVE SMOOTH",
"9 24 OFFCURVE",
"10 29 OFFCURVE",
"14 32 CURVE SMOOTH",
"37 39 OFFCURVE",
"58 39 OFFCURVE",
"73 59 CURVE",
"73 240 OFFCURVE",
"71 461 OFFCURVE",
"68 535 CURVE",
"48 550 OFFCURVE",
"39 553 OFFCURVE",
"14 556 CURVE SMOOTH",
"11 557 OFFCURVE",
"10 562 OFFCURVE",
"10 566 CURVE SMOOTH",
"10 570 OFFCURVE",
"11 573 OFFCURVE",
"14 574 CURVE SMOOTH",
"35 578 OFFCURVE",
"92 587 OFFCURVE",
"108 587 CURVE SMOOTH",
"159 587 OFFCURVE",
"181 583 OFFCURVE",
"214 574 CURVE SMOOTH",
"216 572 OFFCURVE",
"217 569 OFFCURVE",
"217 566 CURVE SMOOTH",
"217 562 OFFCURVE",
"216 558 OFFCURVE",
"214 556 CURVE",
"194 554 OFFCURVE",
"179 549 OFFCURVE",
"160 528 CURVE",
"158 505 OFFCURVE",
"156 241 OFFCURVE",
"156 62 CURVE",
"186 31 OFFCURVE",
"208 35 OFFCURVE",
"236 32 CURVE",
"240 28 OFFCURVE",
"243 23 OFFCURVE",
"243 18 CURVE SMOOTH",
"243 14 OFFCURVE",
"241 10 OFFCURVE",
"237 6 CURVE SMOOTH"
);
},
{
closed = 1;
nodes = (
"-76 729 OFFCURVE",
"-57 738 OFFCURVE",
"-36 738 CURVE SMOOTH",
"-18 738 OFFCURVE",
"-3 732 OFFCURVE",
"21 725 CURVE SMOOTH",
"95 703 OFFCURVE",
"220 666 OFFCURVE",
"266 636 CURVE",
"264 632 LINE",
"193 664 OFFCURVE",
"153 678 OFFCURVE",
"76 700 CURVE SMOOTH",
"50 708 OFFCURVE",
"33 715 OFFCURVE",
"14 715 CURVE SMOOTH",
"-3 715 OFFCURVE",
"-24 672 OFFCURVE",
"-45 668 CURVE",
"-60 672 OFFCURVE",
"-86 698 OFFCURVE",
"-87 709 CURVE"
);
}
);
width = 265;
}
);
unicode = 00CC;
},
{
glyphname = Imacron;
layers = (
{
layerId = master01;
paths = (
{
closed = 1;
nodes = (
"291.9 692.75 OFFCURVE",
"264.7 656.2 OFFCURVE",
"242.6 656.2 CURVE SMOOTH",
"230.7 656.2 OFFCURVE",
"228.15 674.9 OFFCURVE",
"218.8 674.9 CURVE SMOOTH",
"195 674.9 OFFCURVE",
"12.25 658.75 OFFCURVE",
"-10.7 658.75 CURVE SMOOTH",
"-30.25 658.75 OFFCURVE",
"-42.15 659.6 OFFCURVE",
"-42.15 675.75 CURVE SMOOTH",
"-42.15 691.9 OFFCURVE",
"-15.8 721.65 OFFCURVE",
"2.9 721.65 CURVE SMOOTH",
"16.5 721.65 OFFCURVE",
"13.95 703.8 OFFCURVE",
"34.35 703.8 CURVE SMOOTH",
"67.5 703.8 OFFCURVE",
"227.3 721.65 OFFCURVE",
"254.5 721.65 CURVE SMOOTH",
"271.5 721.65 OFFCURVE",
"291.9 721.65 OFFCURVE",
"291.9 706.35 CURVE SMOOTH"
);
},
{
closed = 1;
nodes = (
"214 -8 OFFCURVE",
"153 -12 OFFCURVE",
"121 -13 CURVE SMOOTH",
"119 -13 OFFCURVE",
"117 -13 OFFCURVE",
"115 -13 CURVE SMOOTH",
"86 -13 OFFCURVE",
"71 -6 OFFCURVE",
"14 5 CURVE SMOOTH",
"11 7 OFFCURVE",
"9 13 OFFCURVE",
"9 19 CURVE SMOOTH",
"9 24 OFFCURVE",
"10 29 OFFCURVE",
"14 32 CURVE SMOOTH",
"37 39 OFFCURVE",
"58 39 OFFCURVE",
"73 59 CURVE",
"73 240 OFFCURVE",
"71 461 OFFCURVE",
"68 535 CURVE",
"48 550 OFFCURVE",
"39 553 OFFCURVE",
"14 556 CURVE SMOOTH",
"11 557 OFFCURVE",
"10 562 OFFCURVE",
"10 566 CURVE SMOOTH",
"10 570 OFFCURVE",
"11 573 OFFCURVE",
"14 574 CURVE SMOOTH",
"35 578 OFFCURVE",
"92 587 OFFCURVE",
"108 587 CURVE SMOOTH",
"159 587 OFFCURVE",
"181 583 OFFCURVE",
"214 574 CURVE SMOOTH",
"218 571 OFFCURVE",
"217 560 OFFCURVE",
"214 556 CURVE",
"194 554 OFFCURVE",
"179 549 OFFCURVE",
"160 528 CURVE",
"158 505 OFFCURVE",
"156 241 OFFCURVE",
"156 62 CURVE",
"186 31 OFFCURVE",
"208 35 OFFCURVE",
"236 32 CURVE",
"240 28 OFFCURVE",
"243 23 OFFCURVE",
"243 18 CURVE SMOOTH",
"243 14 OFFCURVE",
"241 10 OFFCURVE",
"237 6 CURVE SMOOTH"
);
}
);
width = 265;
}
);
unicode = 012A;
},
{
glyphname = J;
layers = (
{
anchors = (
{
name = Above;
position = "{114, 595}";
},
{
name = Below;
position = "{134, -42}";
}
);
layerId = master01;
paths = (
{
closed = 1;
nodes = (
"156 -16 OFFCURVE",
"70 -71 OFFCURVE",
"-1 -113 CURVE",
"-14 -99 LINE",
"55 -40 OFFCURVE",
"73 0 OFFCURVE",
"73 54 CURVE SMOOTH",
"73 235 OFFCURVE",
"71 461 OFFCURVE",
"68 535 CURVE",
"48 550 OFFCURVE",
"39 553 OFFCURVE",
"14 556 CURVE SMOOTH",
"11 558 OFFCURVE",
"10 562 OFFCURVE",
"10 565 CURVE SMOOTH",
"10 569 OFFCURVE",
"11 573 OFFCURVE",
"14 574 CURVE SMOOTH",
"35 578 OFFCURVE",
"92 587 OFFCURVE",
"108 587 CURVE SMOOTH",
"159 587 OFFCURVE",
"181 583 OFFCURVE",
"214 574 CURVE SMOOTH",
"218 571 OFFCURVE",
"217 560 OFFCURVE",
"214 556 CURVE",
"194 554 OFFCURVE",
"179 549 OFFCURVE",
"160 528 CURVE",
"158 505 OFFCURVE",
"156 340 OFFCURVE",
"156 162 CURVE SMOOTH"
);
}
);
width = 265;
}
);
unicode = 004A;
},
{
glyphname = K;
layers = (
{
anchors = (
{
name = Above;
position = "{222, 595}";
},
{
name = Below;
position = "{245, -42}";
}
);
layerId = master01;
paths = (
{
closed = 1;
nodes = (
"484 -2 OFFCURVE",
"458 -3 OFFCURVE",
"418 -3 CURVE SMOOTH",
"390 -3 OFFCURVE",
"301 0 OFFCURVE",
"298 5 CURVE SMOOTH",
"293 13 OFFCURVE",
"291 22 OFFCURVE",
"296 28 CURVE",
"308 30 OFFCURVE",
"330 30 OFFCURVE",
"334 41 CURVE",
"326 52 OFFCURVE",
"308 70 OFFCURVE",
"301 83 CURVE SMOOTH",
"249 145 OFFCURVE",
"206 219 OFFCURVE",
"156 274 CURVE",
"156 54 LINE",
"176 33 OFFCURVE",
"200 37 OFFCURVE",
"228 32 CURVE",
"232 28 OFFCURVE",
"234 23 OFFCURVE",
"234 18 CURVE SMOOTH",
"234 14 OFFCURVE",
"233 10 OFFCURVE",
"229 6 CURVE SMOOTH",
"205 -4 OFFCURVE",
"152 -2 OFFCURVE",
"120 -3 CURVE SMOOTH",
"111 -3 OFFCURVE",
"103 -3 OFFCURVE",
"96 -3 CURVE SMOOTH",
"79 -3 OFFCURVE",
"63 -2 OFFCURVE",
"23 5 CURVE SMOOTH",
"20 7 OFFCURVE",
"17 13 OFFCURVE",
"17 19 CURVE SMOOTH",
"17 24 OFFCURVE",
"19 29 OFFCURVE",
"23 32 CURVE SMOOTH",
"49 42 OFFCURVE",
"63 36 OFFCURVE",
"73 47 CURVE",
"73 228 OFFCURVE",
"71 461 OFFCURVE",
"68 535 CURVE",
"55 556 OFFCURVE",
"43 556 OFFCURVE",
"23 560 CURVE SMOOTH",
"20 561 OFFCURVE",
"18 566 OFFCURVE",
"18 571 CURVE SMOOTH",
"18 575 OFFCURVE",
"20 580 OFFCURVE",
"23 581 CURVE SMOOTH",
"44 584 OFFCURVE",
"92 587 OFFCURVE",
"108 587 CURVE SMOOTH",
"159 587 OFFCURVE",
"183 588 OFFCURVE",
"217 581 CURVE SMOOTH",
"221 578 OFFCURVE",
"219 564 OFFCURVE",
"216 560 CURVE",
"195 559 OFFCURVE",
"177 556 OFFCURVE",
"160 542 CURVE SMOOTH",
"157 407 LINE SMOOTH",
"157 358 OFFCURVE",
"203 321 OFFCURVE",
"236 290 CURVE SMOOTH",
"236 289 OFFCURVE",
"240 289 OFFCURVE",
"241 292 CURVE SMOOTH",
"278 359 OFFCURVE",
"326 456 OFFCURVE",
"361 536 CURVE",
"353 555 OFFCURVE",
"344 558 OFFCURVE",
"326 562 CURVE",
"320 568 OFFCURVE",
"322 579 OFFCURVE",
"329 583 CURVE SMOOTH",
"337 585 OFFCURVE",
"382 587 OFFCURVE",
"417 587 CURVE SMOOTH",
"451 587 OFFCURVE",
"489 587 OFFCURVE",
"496 585 CURVE SMOOTH",
"499 583 OFFCURVE",
"500 579 OFFCURVE",
"500 575 CURVE SMOOTH",
"500 570 OFFCURVE",
"498 564 OFFCURVE",
"493 562 CURVE SMOOTH",
"460 562 OFFCURVE",
"439 551 OFFCURVE",
"427 539 CURVE",
"407 505 OFFCURVE",
"369 436 OFFCURVE",
"347 399 CURVE SMOOTH",
"318 351 OFFCURVE",
"291 303 OFFCURVE",
"269 252 CURVE",
"269 252 OFFCURVE",
"269 249 OFFCURVE",
"272 246 CURVE SMOOTH",
"326 179 OFFCURVE",
"383 101 OFFCURVE",
"446 39 CURVE",
"464 29 OFFCURVE",
"481 29 OFFCURVE",
"495 28 CURVE SMOOTH",
"500 25 OFFCURVE",
"502 19 OFFCURVE",
"502 13 CURVE SMOOTH",
"502 9 OFFCURVE",
"501 6 OFFCURVE",
"498 4 CURVE SMOOTH"
);
}
);
width = 517;
}
);
unicode = 004B;
},
{
glyphname = L;
layers = (
{
anchors = (
{
name = Above;
position = "{235, 595}";
},
{
name = Below;
position = "{235, -42}";
}
);
layerId = master01;
paths = (
{
closed = 1;
nodes = (
"433 101 OFFCURVE",
"433 95 OFFCURVE",
"433 88 CURVE SMOOTH",
"433 58 OFFCURVE",
"431 8 OFFCURVE",
"425 -4 CURVE",
"404 -4 OFFCURVE",
"388 -5 OFFCURVE",
"372 -5 CURVE SMOOTH",
"341 -5 OFFCURVE",
"315 -4 OFFCURVE",
"274 -4 CURVE SMOOTH",
"229 -4 OFFCURVE",
"190 -5 OFFCURVE",
"154 -5 CURVE SMOOTH",
"109 -5 OFFCURVE",
"65 -4 OFFCURVE",
"14 -2 CURVE SMOOTH",
"10 0 OFFCURVE",
"8 6 OFFCURVE",
"8 12 CURVE SMOOTH",
"8 17 OFFCURVE",
"10 23 OFFCURVE",
"14 25 CURVE SMOOTH",
"33 28 OFFCURVE",
"54 33 OFFCURVE",
"68 43 CURVE",
"71 117 OFFCURVE",
"73 352 OFFCURVE",
"73 533 CURVE",
"61 547 OFFCURVE",
"40 549 OFFCURVE",
"14 551 CURVE SMOOTH",
"10 554 OFFCURVE",
"9 559 OFFCURVE",
"9 564 CURVE SMOOTH",
"9 570 OFFCURVE",
"11 576 OFFCURVE",
"14 578 CURVE SMOOTH",
"50 582 OFFCURVE",
"71 582 OFFCURVE",
"89 582 CURVE SMOOTH",
"99 582 OFFCURVE",
"109 582 OFFCURVE",
"121 582 CURVE SMOOTH",
"154 582 OFFCURVE",
"211 580 OFFCURVE",
"237 577 CURVE",
"241 573 OFFCURVE",
"243 569 OFFCURVE",
"243 565 CURVE SMOOTH",
"243 560 OFFCURVE",
"240 555 OFFCURVE",
"236 551 CURVE",
"201 551 OFFCURVE",
"176 549 OFFCURVE",
"156 533 CURVE",
"156 504 OFFCURVE",
"155 348 OFFCURVE",
"155 348 CURVE SMOOTH",
"154 278 OFFCURVE",
"152 213 OFFCURVE",
"151 162 CURVE SMOOTH",
"151 158 OFFCURVE",
"151 153 OFFCURVE",
"151 148 CURVE SMOOTH",
"151 112 OFFCURVE",
"153 72 OFFCURVE",
"153 53 CURVE SMOOTH",
"153 49 OFFCURVE",
"153 45 OFFCURVE",
"153 43 CURVE SMOOTH",
"164 35 OFFCURVE",
"197 26 OFFCURVE",
"253 26 CURVE SMOOTH",
"264 26 OFFCURVE",
"274 26 OFFCURVE",
"285 26 CURVE SMOOTH",
"298 26 OFFCURVE",
"312 27 OFFCURVE",
"329 29 CURVE SMOOTH",
"365 39 OFFCURVE",
"404 93 OFFCURVE",
"412 109 CURVE",
"420 116 OFFCURVE",
"430 112 OFFCURVE",
"433 105 CURVE SMOOTH"
);
}
);
width = 452;
}
);
unicode = 004C;
},
{
glyphname = M;
layers = (
{
anchors = (
{
name = Above;
position = "{326, 595}";
},
{
name = Below;
position = "{330, -42}";
}
);
layerId = master01;
paths = (
{
closed = 1;
nodes = (
"678 -40 OFFCURVE",
"622 -84 OFFCURVE",
"587 -84 CURVE SMOOTH",
"553 -84 OFFCURVE",
"531 -79 OFFCURVE",
"531 -17 CURVE SMOOTH",
"531 62 OFFCURVE",
"530 135 OFFCURVE",
"530 206 CURVE SMOOTH",
"530 270 OFFCURVE",
"536 334 OFFCURVE",
"539 401 CURVE",
"460 317 OFFCURVE",
"412 205 OFFCURVE",
"309 88 CURVE SMOOTH",
"304 87 OFFCURVE",
"299 86 OFFCURVE",
"295 86 CURVE SMOOTH",
"279 86 OFFCURVE",
"269 95 OFFCURVE",
"269 106 CURVE",
"285 128 LINE",
"261 172 OFFCURVE",
"239 213 OFFCURVE",
"218 247 CURVE SMOOTH",
"185 301 OFFCURVE",
"159 343 OFFCURVE",
"133 391 CURVE",
"131 333 OFFCURVE",
"131 298 OFFCURVE",
"131 267 CURVE SMOOTH",
"131 225 OFFCURVE",
"131 188 OFFCURVE",
"133 112 CURVE SMOOTH",
"135 32 OFFCURVE",
"149 38 OFFCURVE",
"175 32 CURVE SMOOTH",
"179 28 OFFCURVE",
"182 23 OFFCURVE",
"182 18 CURVE SMOOTH",
"182 14 OFFCURVE",
"182 8 OFFCURVE",
"176 6 CURVE SMOOTH",
"155 -3 OFFCURVE",
"139 -5 OFFCURVE",
"107 -5 CURVE SMOOTH",
"84 -5 OFFCURVE",
"59 -4 OFFCURVE",
"54 5 CURVE",
"54 30 OFFCURVE",
"47 104 OFFCURVE",
"47 194 CURVE SMOOTH",
"47 313 OFFCURVE",
"51 505 OFFCURVE",
"54 545 CURVE",
"43 560 OFFCURVE",
"22 563 OFFCURVE",
"9 566 CURVE SMOOTH",
"6 567 OFFCURVE",
"4 572 OFFCURVE",
"4 576 CURVE SMOOTH",
"4 580 OFFCURVE",
"6 583 OFFCURVE",
"9 584 CURVE SMOOTH",
"34 587 OFFCURVE",
"83 587 OFFCURVE",
"99 587 CURVE SMOOTH",
"107 587 OFFCURVE",
"113 588 OFFCURVE",
"118 588 CURVE SMOOTH",
"127 588 OFFCURVE",
"133 587 OFFCURVE",
"155 582 CURVE SMOOTH",
"157 581 OFFCURVE",
"158 578 OFFCURVE",
"158 575 CURVE SMOOTH",
"158 571 OFFCURVE",
"157 566 OFFCURVE",
"155 564 CURVE",
"147 563 OFFCURVE",
"139 562 OFFCURVE",
"135 558 CURVE SMOOTH",
"134 554 OFFCURVE",
"134 547 OFFCURVE",
"134 541 CURVE SMOOTH",
"134 535 OFFCURVE",
"134 530 OFFCURVE",
"134 528 CURVE SMOOTH",
"170 460 OFFCURVE",
"229 379 OFFCURVE",
"276 306 CURVE SMOOTH",
"303 263 OFFCURVE",
"321 222 OFFCURVE",
"335 200 CURVE",
"419 299 OFFCURVE",
"452 384 OFFCURVE",
"539 467 CURVE",
"541 538 LINE",
"531 548 OFFCURVE",
"515 553 OFFCURVE",
"496 556 CURVE SMOOTH",
"493 557 OFFCURVE",
"491 563 OFFCURVE",
"491 569 CURVE SMOOTH",
"491 574 OFFCURVE",
"493 580 OFFCURVE",
"496 581 CURVE SMOOTH",
"517 585 OFFCURVE",
"562 587 OFFCURVE",
"578 587 CURVE SMOOTH",
"613 587 OFFCURVE",
"635 579 OFFCURVE",
"673 577 CURVE SMOOTH",
"675 575 OFFCURVE",
"676 573 OFFCURVE",
"676 570 CURVE SMOOTH",
"676 566 OFFCURVE",
"675 561 OFFCURVE",
"673 559 CURVE",
"655 557 OFFCURVE",
"632 554 OFFCURVE",
"620 545 CURVE",
"614 399 OFFCURVE",
"610 207 OFFCURVE",
"610 46 CURVE SMOOTH",
"610 -33 OFFCURVE",
"678 26 OFFCURVE",
"678 -20 CURVE SMOOTH"
);
}
);
width = 708;
}
);
unicode = 004D;
},
{
glyphname = N;
layers = (
{
anchors = (
{
name = Above;
position = "{333, 595}";
},
{
name = Below;
position = "{330, -42}";
}
);
layerId = master01;
paths = (
{
closed = 1;
nodes = (
"694 542 OFFCURVE",
"689 541 OFFCURVE",
"684 541 CURVE SMOOTH",
"662 541 OFFCURVE",
"631 537 OFFCURVE",
"615 525 CURVE",
"615 492 OFFCURVE",
"615 433 OFFCURVE",
"615 370 CURVE SMOOTH",
"615 323 OFFCURVE",
"615 274 OFFCURVE",
"614 233 CURVE SMOOTH",
"612 187 OFFCURVE",
"605 143 OFFCURVE",
"605 111 CURVE SMOOTH",
"605 89 OFFCURVE",
"605 53 OFFCURVE",
"610 39 CURVE",
"618 35 OFFCURVE",
"627 34 OFFCURVE",
"637 34 CURVE",
"642 29 OFFCURVE",
"646 21 OFFCURVE",
"646 14 CURVE SMOOTH",
"646 8 OFFCURVE",
"644 4 OFFCURVE",
"637 2 CURVE SMOOTH",
"636 2 OFFCURVE",
"634 2 OFFCURVE",
"633 2 CURVE SMOOTH",
"599 2 OFFCURVE",
"556 -17 OFFCURVE",
"533 -17 CURVE SMOOTH",
"514 -17 OFFCURVE",
"488 -11 OFFCURVE",
"462 -2 CURVE SMOOTH",
"459 -1 OFFCURVE",
"459 2 OFFCURVE",
"459 5 CURVE SMOOTH",
"459 9 OFFCURVE",
"461 14 OFFCURVE",
"462 18 CURVE",
"477 22 OFFCURVE",
"494 21 OFFCURVE",
"502 29 CURVE",
"504 49 OFFCURVE",
"503 80 OFFCURVE",
"504 94 CURVE",
"467 129 OFFCURVE",
"404 158 OFFCURVE",
"344 216 CURVE SMOOTH",
"282 277 OFFCURVE",
"246 338 OFFCURVE",
"160 398 CURVE",
"152 393 OFFCURVE",
"149 369 OFFCURVE",
"149 332 CURVE SMOOTH",
"149 268 OFFCURVE",
"156 166 OFFCURVE",
"156 54 CURVE",
"183 32 OFFCURVE",
"213 36 OFFCURVE",
"236 32 CURVE",
"240 28 OFFCURVE",
"243 23 OFFCURVE",
"243 18 CURVE SMOOTH",
"243 14 OFFCURVE",
"241 10 OFFCURVE",
"237 6 CURVE SMOOTH",
"214 -8 OFFCURVE",
"153 -12 OFFCURVE",
"121 -13 CURVE SMOOTH",
"119 -13 OFFCURVE",
"117 -13 OFFCURVE",
"115 -13 CURVE SMOOTH",
"86 -13 OFFCURVE",
"71 -6 OFFCURVE",
"14 5 CURVE SMOOTH",
"11 7 OFFCURVE",
"9 13 OFFCURVE",
"9 19 CURVE SMOOTH",
"9 24 OFFCURVE",
"10 29 OFFCURVE",
"14 32 CURVE SMOOTH",
"31 36 OFFCURVE",
"59 37 OFFCURVE",
"73 48 CURVE",
"73 229 OFFCURVE",
"71 461 OFFCURVE",
"68 535 CURVE",
"53 552 OFFCURVE",
"36 552 OFFCURVE",
"14 556 CURVE",
"11 557 OFFCURVE",
"10 562 OFFCURVE",
"10 566 CURVE SMOOTH",
"10 570 OFFCURVE",
"11 573 OFFCURVE",
"14 574 CURVE",
"35 578 OFFCURVE",
"92 587 OFFCURVE",
"108 587 CURVE SMOOTH",
"159 587 OFFCURVE",
"181 583 OFFCURVE",
"214 574 CURVE",
"216 572 OFFCURVE",
"217 569 OFFCURVE",
"217 566 CURVE SMOOTH",
"217 562 OFFCURVE",
"216 558 OFFCURVE",
"214 556 CURVE",
"203 555 OFFCURVE",
"184 548 OFFCURVE",
"175 539 CURVE",
"175 539 OFFCURVE",
"174 531 OFFCURVE",
"174 524 CURVE SMOOTH",
"174 518 OFFCURVE",
"175 513 OFFCURVE",
"177 511 CURVE SMOOTH",
"295 402 OFFCURVE",
"351 341 OFFCURVE",
"404 288 CURVE SMOOTH",
"449 242 OFFCURVE",
"496 219 OFFCURVE",
"531 193 CURVE",
"540 243 OFFCURVE",
"536 296 OFFCURVE",
"539 356 CURVE SMOOTH",
"541 391 OFFCURVE",
"553 466 OFFCURVE",
"553 516 CURVE SMOOTH",
"553 524 OFFCURVE",
"553 531 OFFCURVE",
"552 537 CURVE",
"532 555 OFFCURVE",
"515 554 OFFCURVE",
"495 558 CURVE SMOOTH",
"492 560 OFFCURVE",
"491 565 OFFCURVE",
"491 571 CURVE SMOOTH",
"491 576 OFFCURVE",
"492 580 OFFCURVE",
"494 582 CURVE",
"526 583 OFFCURVE",
"540 591 OFFCURVE",
"561 591 CURVE SMOOTH",
"597 591 OFFCURVE",
"683 568 OFFCURVE",
"698 568 CURVE",
"700 566 OFFCURVE",
"701 560 OFFCURVE",
"701 554 CURVE SMOOTH",
"701 548 OFFCURVE",
"700 542 OFFCURVE",
"698 541 CURVE"
);
}
);
width = 696;
}
);
unicode = 004E;
},
{
glyphname = Ntilde;
layers = (
{
layerId = master01;
paths = (
{
closed = 1;
nodes = (
"694 542 OFFCURVE",
"689 541 OFFCURVE",
"684 541 CURVE SMOOTH",
"662 541 OFFCURVE",
"631 537 OFFCURVE",
"615 525 CURVE",
"615 492 OFFCURVE",
"615 433 OFFCURVE",
"615 370 CURVE SMOOTH",
"615 323 OFFCURVE",
"615 274 OFFCURVE",
"614 233 CURVE SMOOTH",
"612 187 OFFCURVE",
"605 143 OFFCURVE",
"605 111 CURVE SMOOTH",
"605 89 OFFCURVE",
"605 53 OFFCURVE",
"610 39 CURVE",
"618 35 OFFCURVE",
"627 34 OFFCURVE",
"637 34 CURVE",
"642 29 OFFCURVE",
"646 21 OFFCURVE",
"646 14 CURVE SMOOTH",
"646 8 OFFCURVE",
"644 4 OFFCURVE",
"637 2 CURVE SMOOTH",
"636 2 OFFCURVE",
"634 2 OFFCURVE",
"633 2 CURVE SMOOTH",
"599 2 OFFCURVE",
"556 -17 OFFCURVE",
"533 -17 CURVE SMOOTH",
"514 -17 OFFCURVE",
"488 -11 OFFCURVE",
"462 -2 CURVE SMOOTH",
"459 -1 OFFCURVE",
"459 2 OFFCURVE",
"459 5 CURVE SMOOTH",
"459 9 OFFCURVE",
"461 14 OFFCURVE",
"462 18 CURVE",
"477 22 OFFCURVE",
"494 21 OFFCURVE",
"502 29 CURVE",
"504 49 OFFCURVE",
"503 80 OFFCURVE",
"504 94 CURVE",
"467 129 OFFCURVE",
"404 158 OFFCURVE",
"344 216 CURVE SMOOTH",
"282 277 OFFCURVE",
"246 338 OFFCURVE",
"160 398 CURVE",
"152 393 OFFCURVE",
"149 369 OFFCURVE",
"149 332 CURVE SMOOTH",
"149 268 OFFCURVE",
"156 166 OFFCURVE",
"156 54 CURVE",
"183 32 OFFCURVE",
"213 36 OFFCURVE",
"236 32 CURVE",
"240 28 OFFCURVE",
"243 23 OFFCURVE",
"243 18 CURVE SMOOTH",
"243 14 OFFCURVE",
"241 10 OFFCURVE",
"237 6 CURVE SMOOTH",
"214 -8 OFFCURVE",
"153 -12 OFFCURVE",
"121 -13 CURVE SMOOTH",
"119 -13 OFFCURVE",
"117 -13 OFFCURVE",
"115 -13 CURVE SMOOTH",
"86 -13 OFFCURVE",
"71 -6 OFFCURVE",
"14 5 CURVE SMOOTH",
"11 7 OFFCURVE",
"9 13 OFFCURVE",
"9 19 CURVE SMOOTH",
"9 24 OFFCURVE",
"10 29 OFFCURVE",
"14 32 CURVE SMOOTH",
"31 36 OFFCURVE",
"59 37 OFFCURVE",
"73 48 CURVE",
"73 229 OFFCURVE",
"71 461 OFFCURVE",
"68 535 CURVE",
"53 552 OFFCURVE",
"36 552 OFFCURVE",
"14 556 CURVE",
"11 557 OFFCURVE",
"10 562 OFFCURVE",
"10 566 CURVE SMOOTH",
"10 570 OFFCURVE",
"11 573 OFFCURVE",
"14 574 CURVE",
"35 578 OFFCURVE",
"92 587 OFFCURVE",
"108 587 CURVE SMOOTH",
"159 587 OFFCURVE",
"181 583 OFFCURVE",
"214 574 CURVE",
"216 572 OFFCURVE",
"217 569 OFFCURVE",
"217 566 CURVE SMOOTH",
"217 562 OFFCURVE",
"216 558 OFFCURVE",
"214 556 CURVE",
"203 555 OFFCURVE",
"184 548 OFFCURVE",
"175 539 CURVE",
"175 539 OFFCURVE",
"174 531 OFFCURVE",
"174 524 CURVE SMOOTH",
"174 518 OFFCURVE",
"175 513 OFFCURVE",
"177 511 CURVE SMOOTH",
"295 402 OFFCURVE",
"351 341 OFFCURVE",
"404 288 CURVE SMOOTH",
"449 242 OFFCURVE",
"496 219 OFFCURVE",
"531 193 CURVE",
"540 243 OFFCURVE",
"536 296 OFFCURVE",
"539 356 CURVE SMOOTH",
"541 391 OFFCURVE",
"553 466 OFFCURVE",
"553 516 CURVE SMOOTH",
"553 524 OFFCURVE",
"553 531 OFFCURVE",
"552 537 CURVE",
"532 555 OFFCURVE",
"515 554 OFFCURVE",
"495 558 CURVE SMOOTH",
"492 560 OFFCURVE",
"491 565 OFFCURVE",
"491 571 CURVE SMOOTH",
"491 576 OFFCURVE",
"492 580 OFFCURVE",
"494 582 CURVE",
"526 583 OFFCURVE",
"540 591 OFFCURVE",
"561 591 CURVE SMOOTH",
"597 591 OFFCURVE",
"683 568 OFFCURVE",
"698 568 CURVE",
"700 566 OFFCURVE",
"701 560 OFFCURVE",
"701 554 CURVE SMOOTH",
"701 548 OFFCURVE",
"700 542 OFFCURVE",
"698 541 CURVE"
);
},
{
closed = 1;
nodes = (
"221 703 OFFCURVE",
"243 720 OFFCURVE",
"258 732 CURVE SMOOTH",
"263 736 OFFCURVE",
"274 742 OFFCURVE",
"282 742 CURVE SMOOTH",
"288 742 OFFCURVE",
"293 739 OFFCURVE",
"295 729 CURVE SMOOTH",
"298 712 OFFCURVE",
"312 702 OFFCURVE",
"328 702 CURVE SMOOTH",
"334 702 OFFCURVE",
"341 704 OFFCURVE",
"348 707 CURVE SMOOTH",
"362 714 OFFCURVE",
"378 721 OFFCURVE",
"394 727 CURVE SMOOTH",
"402 730 OFFCURVE",
"412 733 OFFCURVE",
"422 733 CURVE SMOOTH",
"449 733 OFFCURVE",
"466 714 OFFCURVE",
"481 701 CURVE SMOOTH",
"487 696 OFFCURVE",
"491 689 OFFCURVE",
"491 681 CURVE SMOOTH",
"491 675 OFFCURVE",
"489 669 OFFCURVE",
"483 664 CURVE SMOOTH",
"470 653 OFFCURVE",
"455 632 OFFCURVE",
"433 632 CURVE SMOOTH",
"404 632 OFFCURVE",
"414 693 OFFCURVE",
"378 693 CURVE SMOOTH",
"374 693 OFFCURVE",
"371 692 OFFCURVE",
"366 691 CURVE SMOOTH",
"337 682 OFFCURVE",
"313 667 OFFCURVE",
"286 656 CURVE SMOOTH",
"280 653 OFFCURVE",
"272 652 OFFCURVE",
"263 652 CURVE SMOOTH",
"243 652 OFFCURVE",
"221 660 OFFCURVE",
"221 678 CURVE SMOOTH"
);
}
);
width = 696;
}
);
unicode = 00D1;
},
{
glyphname = O;
layers = (
{
anchors = (
{
name = Above;
position = "{274, 595}";
},
{
name = Below;
position = "{262, -42}";
}
);
layerId = master01;
paths = (
{
closed = 1;
nodes = (
"536 240 OFFCURVE",
"464 -11 OFFCURVE",
"277 -11 CURVE SMOOTH",
"142 -11 OFFCURVE",
"20 124 OFFCURVE",
"20 258 CURVE SMOOTH",
"20 432 OFFCURVE",
"131 589 OFFCURVE",
"287 589 CURVE SMOOTH",
"457 589 OFFCURVE",
"536 436 OFFCURVE",
"536 305 CURVE SMOOTH"
);
},
{
closed = 1;
nodes = (
"472 364 OFFCURVE",
"373 515 OFFCURVE",
"239 515 CURVE SMOOTH",
"132 515 OFFCURVE",
"90 451 OFFCURVE",
"90 342 CURVE SMOOTH",
"90 193 OFFCURVE",
"228 69 OFFCURVE",
"319 69 CURVE SMOOTH",
"457 69 OFFCURVE",
"472 194 OFFCURVE",
"472 252 CURVE SMOOTH"
);
}
);
width = 559;
}
);
unicode = 004F;
},
{
glyphname = Oacute;
layers = (
{
layerId = master01;
paths = (
{
closed = 1;
nodes = (
"539 698 OFFCURVE",
"513 672 OFFCURVE",
"498 668 CURVE",
"477 672 OFFCURVE",
"456 715 OFFCURVE",
"439 715 CURVE SMOOTH",
"420 715 OFFCURVE",
"403 708 OFFCURVE",
"377 700 CURVE SMOOTH",
"300 678 OFFCURVE",
"261 664 OFFCURVE",
"190 632 CURVE",
"187 636 LINE",
"233 666 OFFCURVE",
"358 703 OFFCURVE",
"432 725 CURVE SMOOTH",
"456 732 OFFCURVE",
"471 738 OFFCURVE",
"489 738 CURVE SMOOTH",
"510 738 OFFCURVE",
"529 729 OFFCURVE",
"540 709 CURVE"
);
},
{
closed = 1;
nodes = (
"536 240 OFFCURVE",
"464 -11 OFFCURVE",
"277 -11 CURVE SMOOTH",
"142 -11 OFFCURVE",
"20 124 OFFCURVE",
"20 258 CURVE SMOOTH",
"20 432 OFFCURVE",
"131 589 OFFCURVE",
"287 589 CURVE SMOOTH",
"457 589 OFFCURVE",
"536 436 OFFCURVE",
"536 305 CURVE SMOOTH"
);
},
{
closed = 1;
nodes = (
"472 364 OFFCURVE",
"373 515 OFFCURVE",
"239 515 CURVE SMOOTH",
"132 515 OFFCURVE",
"90 451 OFFCURVE",
"90 342 CURVE SMOOTH",
"90 193 OFFCURVE",
"228 69 OFFCURVE",
"319 69 CURVE SMOOTH",
"457 69 OFFCURVE",
"472 194 OFFCURVE",
"472 252 CURVE SMOOTH"
);
}
);
width = 559;
}
);
unicode = 00D3;
},
{
glyphname = Ocircumflex;
layers = (
{
layerId = master01;
paths = (
{
closed = 1;
nodes = (
"536 240 OFFCURVE",
"464 -11 OFFCURVE",
"277 -11 CURVE SMOOTH",
"142 -11 OFFCURVE",
"20 124 OFFCURVE",
"20 258 CURVE SMOOTH",
"20 432 OFFCURVE",
"131 589 OFFCURVE",
"287 589 CURVE SMOOTH",
"457 589 OFFCURVE",
"536 436 OFFCURVE",
"536 305 CURVE SMOOTH"
);
},
{
closed = 1;
nodes = (
"472 364 OFFCURVE",
"373 515 OFFCURVE",
"239 515 CURVE SMOOTH",
"132 515 OFFCURVE",
"90 451 OFFCURVE",
"90 342 CURVE SMOOTH",
"90 193 OFFCURVE",
"228 69 OFFCURVE",
"319 69 CURVE SMOOTH",
"457 69 OFFCURVE",
"472 194 OFFCURVE",
"472 252 CURVE SMOOTH"
);
},
{
closed = 1;
nodes = (
"131 650 OFFCURVE",
"135 658 OFFCURVE",
"143 664 CURVE SMOOTH",
"181 691 OFFCURVE",
"219 719 OFFCURVE",
"258 744 CURVE SMOOTH",
"262 747 OFFCURVE",
"272 749 OFFCURVE",
"280 749 CURVE SMOOTH",
"285 749 OFFCURVE",
"289 748 OFFCURVE",
"292 746 CURVE SMOOTH",
"333 721 OFFCURVE",
"371 692 OFFCURVE",
"410 664 CURVE SMOOTH",
"418 658 OFFCURVE",
"422 650 OFFCURVE",
"422 643 CURVE SMOOTH",
"422 637 OFFCURVE",
"419 633 OFFCURVE",
"414 633 CURVE SMOOTH",
"412 633 OFFCURVE",
"409 634 OFFCURVE",
"405 636 CURVE SMOOTH",
"369 659 OFFCURVE",
"334 682 OFFCURVE",
"298 705 CURVE SMOOTH",
"288 711 OFFCURVE",
"282 715 OFFCURVE",
"276 715 CURVE SMOOTH",
"271 715 OFFCURVE",
"266 712 OFFCURVE",
"256 706 CURVE SMOOTH",
"219 683 OFFCURVE",
"184 659 OFFCURVE",
"148 636 CURVE SMOOTH",
"144 634 OFFCURVE",
"141 633 OFFCURVE",
"139 633 CURVE SMOOTH",
"134 633 OFFCURVE",
"131 637 OFFCURVE",
"131 643 CURVE SMOOTH"
);
}
);
width = 559;
}
);
unicode = 00D4;
},
{
glyphname = Odieresis;
layers = (
{
layerId = master01;
paths = (
{
closed = 1;
nodes = (
"189 686 OFFCURVE",
"200 701 OFFCURVE",
"221 712 CURVE SMOOTH",
"227 715 OFFCURVE",
"232 717 OFFCURVE",
"236 717 CURVE SMOOTH",
"247 717 OFFCURVE",
"253 706 OFFCURVE",
"253 684 CURVE SMOOTH",
"253 662 OFFCURVE",
"252 659 OFFCURVE",
"238 650 CURVE SMOOTH",
"229 644 OFFCURVE",
"221 641 OFFCURVE",
"213 641 CURVE SMOOTH",
"196 641 OFFCURVE",
"189 655 OFFCURVE",
"189 669 CURVE SMOOTH"
);
},
{
closed = 1;
nodes = (
"307 686 OFFCURVE",
"318 701 OFFCURVE",
"339 712 CURVE SMOOTH",
"345 715 OFFCURVE",
"351 717 OFFCURVE",
"355 717 CURVE SMOOTH",
"366 717 OFFCURVE",
"371 706 OFFCURVE",
"371 684 CURVE SMOOTH",
"371 662 OFFCURVE",
"371 659 OFFCURVE",
"357 650 CURVE SMOOTH",
"348 644 OFFCURVE",
"340 641 OFFCURVE",
"332 641 CURVE SMOOTH",
"315 641 OFFCURVE",
"307 655 OFFCURVE",
"307 669 CURVE SMOOTH"
);
},
{
closed = 1;
nodes = (
"536 240 OFFCURVE",
"464 -11 OFFCURVE",
"277 -11 CURVE SMOOTH",
"142 -11 OFFCURVE",
"20 124 OFFCURVE",
"20 258 CURVE SMOOTH",
"20 432 OFFCURVE",
"131 589 OFFCURVE",
"287 589 CURVE SMOOTH",
"457 589 OFFCURVE",
"536 436 OFFCURVE",
"536 305 CURVE SMOOTH"
);
},
{
closed = 1;
nodes = (
"472 364 OFFCURVE",
"373 515 OFFCURVE",
"239 515 CURVE SMOOTH",
"132 515 OFFCURVE",
"90 451 OFFCURVE",
"90 342 CURVE SMOOTH",
"90 193 OFFCURVE",
"228 69 OFFCURVE",
"319 69 CURVE SMOOTH",
"457 69 OFFCURVE",
"472 194 OFFCURVE",
"472 252 CURVE SMOOTH"
);
}
);
width = 559;
}
);
unicode = 00D6;
},
{
glyphname = Ograve;
layers = (
{
layerId = master01;
paths = (
{
closed = 1;
nodes = (
"536 240 OFFCURVE",
"464 -11 OFFCURVE",
"277 -11 CURVE SMOOTH",
"142 -11 OFFCURVE",
"20 124 OFFCURVE",
"20 258 CURVE SMOOTH",
"20 432 OFFCURVE",
"131 589 OFFCURVE",
"287 589 CURVE SMOOTH",
"457 589 OFFCURVE",
"536 436 OFFCURVE",
"536 305 CURVE SMOOTH"
);
},
{
closed = 1;
nodes = (
"472 364 OFFCURVE",
"373 515 OFFCURVE",
"239 515 CURVE SMOOTH",
"132 515 OFFCURVE",
"90 451 OFFCURVE",
"90 342 CURVE SMOOTH",
"90 193 OFFCURVE",
"228 69 OFFCURVE",
"319 69 CURVE SMOOTH",
"457 69 OFFCURVE",
"472 194 OFFCURVE",
"472 252 CURVE SMOOTH"
);
},
{
closed = 1;
nodes = (
"64 729 OFFCURVE",
"83 738 OFFCURVE",
"104 738 CURVE SMOOTH",
"122 738 OFFCURVE",
"137 732 OFFCURVE",
"161 725 CURVE SMOOTH",
"235 703 OFFCURVE",
"359 666 OFFCURVE",
"405 636 CURVE",
"403 632 LINE",
"332 664 OFFCURVE",
"293 678 OFFCURVE",
"216 700 CURVE SMOOTH",
"190 708 OFFCURVE",
"172 715 OFFCURVE",
"153 715 CURVE SMOOTH",
"136 715 OFFCURVE",
"115 672 OFFCURVE",
"94 668 CURVE",
"79 672 OFFCURVE",
"54 698 OFFCURVE",
"53 709 CURVE"
);
}
);
width = 559;
}
);
unicode = 00D2;
},
{
glyphname = Omacron;
layers = (
{
layerId = master01;
paths = (
{
closed = 1;
nodes = (
"461.9 692.75 OFFCURVE",
"434.7 656.2 OFFCURVE",
"412.6 656.2 CURVE SMOOTH",
"400.7 656.2 OFFCURVE",
"398.15 674.9 OFFCURVE",
"388.8 674.9 CURVE SMOOTH",
"365 674.9 OFFCURVE",
"182.25 658.75 OFFCURVE",
"159.3 658.75 CURVE SMOOTH",
"139.75 658.75 OFFCURVE",
"127.85 659.6 OFFCURVE",
"127.85 675.75 CURVE SMOOTH",
"127.85 691.9 OFFCURVE",
"154.2 721.65 OFFCURVE",
"172.9 721.65 CURVE SMOOTH",
"186.5 721.65 OFFCURVE",
"183.95 703.8 OFFCURVE",
"204.35 703.8 CURVE SMOOTH",
"237.5 703.8 OFFCURVE",
"397.3 721.65 OFFCURVE",
"424.5 721.65 CURVE SMOOTH",
"441.5 721.65 OFFCURVE",
"461.9 721.65 OFFCURVE",
"461.9 706.35 CURVE SMOOTH"
);
},
{
closed = 1;
nodes = (
"536 240 OFFCURVE",
"464 -11 OFFCURVE",
"277 -11 CURVE SMOOTH",
"142 -11 OFFCURVE",
"20 124 OFFCURVE",
"20 258 CURVE SMOOTH",
"20 432 OFFCURVE",
"131 589 OFFCURVE",
"287 589 CURVE SMOOTH",
"457 589 OFFCURVE",
"536 436 OFFCURVE",
"536 305 CURVE SMOOTH"
);
},
{
closed = 1;
nodes = (
"472 364 OFFCURVE",
"373 515 OFFCURVE",
"239 515 CURVE SMOOTH",
"132 515 OFFCURVE",
"90 451 OFFCURVE",
"90 342 CURVE SMOOTH",
"90 193 OFFCURVE",
"228 69 OFFCURVE",
"319 69 CURVE SMOOTH",
"457 69 OFFCURVE",
"472 194 OFFCURVE",
"472 252 CURVE SMOOTH"
);
}
);
width = 559;
}
);
unicode = 014C;
},
{
glyphname = Oslash;
layers = (
{
layerId = master01;
paths = (
{
closed = 1;
nodes = (
"536 240 OFFCURVE",
"464 -11 OFFCURVE",
"277 -11 CURVE SMOOTH",
"142 -11 OFFCURVE",
"20 124 OFFCURVE",
"20 258 CURVE SMOOTH",
"20 432 OFFCURVE",
"131 589 OFFCURVE",
"287 589 CURVE SMOOTH",
"457 589 OFFCURVE",
"536 436 OFFCURVE",
"536 305 CURVE SMOOTH"
);
},
{
closed = 1;
nodes = (
"472 364 OFFCURVE",
"373 515 OFFCURVE",
"239 515 CURVE SMOOTH",
"132 515 OFFCURVE",
"90 451 OFFCURVE",
"90 342 CURVE SMOOTH",
"90 193 OFFCURVE",
"228 69 OFFCURVE",
"319 69 CURVE SMOOTH",
"457 69 OFFCURVE",
"472 194 OFFCURVE",
"472 252 CURVE SMOOTH"
);
}
);
width = 559;
}
);
unicode = 00D8;
},
{
glyphname = Otilde;
layers = (
{
layerId = master01;
paths = (
{
closed = 1;
nodes = (
"536 240 OFFCURVE",
"464 -11 OFFCURVE",
"277 -11 CURVE SMOOTH",
"142 -11 OFFCURVE",
"20 124 OFFCURVE",
"20 258 CURVE SMOOTH",
"20 432 OFFCURVE",
"131 589 OFFCURVE",
"287 589 CURVE SMOOTH",
"457 589 OFFCURVE",
"536 436 OFFCURVE",
"536 305 CURVE SMOOTH"
);
},
{
closed = 1;
nodes = (
"472 364 OFFCURVE",
"373 515 OFFCURVE",
"239 515 CURVE SMOOTH",
"132 515 OFFCURVE",
"90 451 OFFCURVE",
"90 342 CURVE SMOOTH",
"90 193 OFFCURVE",
"228 69 OFFCURVE",
"319 69 CURVE SMOOTH",
"457 69 OFFCURVE",
"472 194 OFFCURVE",
"472 252 CURVE SMOOTH"
);
},
{
closed = 1;
nodes = (
"160 703 OFFCURVE",
"182 720 OFFCURVE",
"197 732 CURVE SMOOTH",
"202 736 OFFCURVE",
"213 742 OFFCURVE",
"221 742 CURVE SMOOTH",
"227 742 OFFCURVE",
"232 739 OFFCURVE",
"234 729 CURVE SMOOTH",
"237 712 OFFCURVE",
"251 702 OFFCURVE",
"267 702 CURVE SMOOTH",
"273 702 OFFCURVE",
"280 704 OFFCURVE",
"287 707 CURVE SMOOTH",
"301 714 OFFCURVE",
"317 721 OFFCURVE",
"333 727 CURVE SMOOTH",
"341 730 OFFCURVE",
"350 733 OFFCURVE",
"360 733 CURVE SMOOTH",
"387 733 OFFCURVE",
"405 714 OFFCURVE",
"420 701 CURVE SMOOTH",
"426 696 OFFCURVE",
"430 689 OFFCURVE",
"430 681 CURVE SMOOTH",
"430 675 OFFCURVE",
"428 669 OFFCURVE",
"422 664 CURVE SMOOTH",
"409 653 OFFCURVE",
"393 632 OFFCURVE",
"371 632 CURVE SMOOTH",
"342 632 OFFCURVE",
"353 693 OFFCURVE",
"317 693 CURVE SMOOTH",
"313 693 OFFCURVE",
"309 692 OFFCURVE",
"304 691 CURVE SMOOTH",
"275 682 OFFCURVE",
"252 667 OFFCURVE",
"225 656 CURVE SMOOTH",
"219 653 OFFCURVE",
"211 652 OFFCURVE",
"202 652 CURVE SMOOTH",
"182 652 OFFCURVE",
"160 660 OFFCURVE",
"160 678 CURVE SMOOTH"
);
}
);
width = 559;
}
);
unicode = 00D5;
},
{
glyphname = P;
layers = (
{
anchors = (
{
name = Above;
position = "{228, 595}";
},
{
name = Below;
position = "{199, -42}";
}
);
layerId = master01;
paths = (
{
closed = 1;
nodes = (
"462 323 OFFCURVE",
"380 230 OFFCURVE",
"236 230 CURVE SMOOTH",
"211 230 OFFCURVE",
"185 231 OFFCURVE",
"156 237 CURVE",
"156 199 OFFCURVE",
"156 89 OFFCURVE",
"156 51 CURVE",
"182 33 OFFCURVE",
"209 32 OFFCURVE",
"236 30 CURVE",
"240 26 OFFCURVE",
"243 21 OFFCURVE",
"243 16 CURVE SMOOTH",
"243 12 OFFCURVE",
"241 7 OFFCURVE",
"237 3 CURVE SMOOTH",
"212 -6 OFFCURVE",
"153 -8 OFFCURVE",
"121 -8 CURVE SMOOTH",
"89 -8 OFFCURVE",
"51 -5 OFFCURVE",
"14 3 CURVE SMOOTH",
"11 5 OFFCURVE",
"9 10 OFFCURVE",
"9 16 CURVE SMOOTH",
"9 21 OFFCURVE",
"10 27 OFFCURVE",
"14 30 CURVE SMOOTH",
"34 34 OFFCURVE",
"58 36 OFFCURVE",
"73 48 CURVE",
"73 229 OFFCURVE",
"71 465 OFFCURVE",
"68 539 CURVE",
"55 549 OFFCURVE",
"33 556 OFFCURVE",
"14 556 CURVE SMOOTH",
"11 557 OFFCURVE",
"10 562 OFFCURVE",
"10 566 CURVE SMOOTH",
"10 570 OFFCURVE",
"11 573 OFFCURVE",
"14 574 CURVE SMOOTH",
"69 582 OFFCURVE",
"126 582 OFFCURVE",
"219 582 CURVE SMOOTH",
"236 582 OFFCURVE",
"254 582 OFFCURVE",
"274 582 CURVE SMOOTH",
"400 582 OFFCURVE",
"462 515 OFFCURVE",
"462 439 CURVE SMOOTH"
);
},
{
closed = 1;
nodes = (
"377 488 OFFCURVE",
"318 552 OFFCURVE",
"245 552 CURVE SMOOTH",
"197 552 OFFCURVE",
"167 547 OFFCURVE",
"153 539 CURVE SMOOTH",
"153 537 OFFCURVE",
"153 534 OFFCURVE",
"153 529 CURVE SMOOTH",
"153 509 OFFCURVE",
"151 466 OFFCURVE",
"151 430 CURVE SMOOTH",
"151 425 OFFCURVE",
"151 421 OFFCURVE",
"151 417 CURVE SMOOTH",
"152 370 OFFCURVE",
"154 328 OFFCURVE",
"155 264 CURVE",
"175 261 OFFCURVE",
"195 259 OFFCURVE",
"212 259 CURVE SMOOTH",
"331 259 OFFCURVE",
"377 334 OFFCURVE",
"377 417 CURVE SMOOTH"
);
}
);
width = 479;
}
);
unicode = 0050;
},
{
glyphname = Thorn;
layers = (
{
anchors = (
{
name = Above;
position = "{264, 595}";
},
{
name = Below;
position = "{274, -42}";
}
);
layerId = master01;
paths = (
{
closed = 1;
nodes = (
"456 181 OFFCURVE",
"260 67 OFFCURVE",
"150 -3 CURVE",
"147 -58 OFFCURVE",
"140 -148 OFFCURVE",
"134 -210 CURVE",
"128 -229 OFFCURVE",
"81 -246 OFFCURVE",
"62 -246 CURVE",
"62 -154 OFFCURVE",
"67 -109 OFFCURVE",
"67 -21 CURVE SMOOTH",
"67 72 OFFCURVE",
"68 147 OFFCURVE",
"68 228 CURVE SMOOTH",
"68 279 OFFCURVE",
"68 331 OFFCURVE",
"66 392 CURVE SMOOTH",
"64 460 OFFCURVE",
"70 528 OFFCURVE",
"-11 528 CURVE SMOOTH",
"-14 529 OFFCURVE",
"-16 532 OFFCURVE",
"-16 536 CURVE SMOOTH",
"-16 540 OFFCURVE",
"-14 544 OFFCURVE",
"-11 546 CURVE SMOOTH",
"16 564 OFFCURVE",
"77 589 OFFCURVE",
"104 589 CURVE SMOOTH",
"124 589 OFFCURVE",
"150 589 OFFCURVE",
"150 548 CURVE SMOOTH",
"150 543 OFFCURVE",
"148 405 OFFCURVE",
"148 405 CURVE",
"202 431 OFFCURVE",
"269 454 OFFCURVE",
"334 454 CURVE SMOOTH",
"399 454 OFFCURVE",
"456 428 OFFCURVE",
"456 368 CURVE SMOOTH"
);
},
{
closed = 1;
nodes = (
"343 353 OFFCURVE",
"328 411 OFFCURVE",
"263 411 CURVE SMOOTH",
"223 411 OFFCURVE",
"194 401 OFFCURVE",
"147 377 CURVE",
"147 369 OFFCURVE",
"147 360 OFFCURVE",
"147 352 CURVE SMOOTH",
"147 318 OFFCURVE",
"146 285 OFFCURVE",
"146 267 CURVE SMOOTH",
"146 157 OFFCURVE",
"150 162 OFFCURVE",
"150 28 CURVE",
"243 117 OFFCURVE",
"343 173 OFFCURVE",
"343 304 CURVE SMOOTH"
);
}
);
width = 470;
}
);
unicode = 00DE;
},
{
glyphname = Q;
layers = (
{
anchors = (
{
name = Above;
position = "{287, 595}";
},
{
name = Below;
position = "{272, -42}";
}
);
layerId = master01;
paths = (
{
closed = 1;
nodes = (
"718 -206 LINE",
"681 -236 OFFCURVE",
"663 -254 OFFCURVE",
"604 -254 CURVE SMOOTH",
"565 -254 OFFCURVE",
"527 -235 OFFCURVE",
"492 -197 CURVE SMOOTH",
"320 -8 LINE",
"306 -11 OFFCURVE",
"291 -11 OFFCURVE",
"277 -11 CURVE SMOOTH",
"142 -11 OFFCURVE",
"20 124 OFFCURVE",
"20 258 CURVE SMOOTH",
"20 433 OFFCURVE",
"128 589 OFFCURVE",
"287 589 CURVE SMOOTH",
"458 589 OFFCURVE",
"536 436 OFFCURVE",
"536 305 CURVE SMOOTH",
"536 213 OFFCURVE",
"494 85 OFFCURVE",
"405 24 CURVE",
"559 -141 LINE SMOOTH",
"589 -173 OFFCURVE",
"614 -194 OFFCURVE",
"664 -194 CURVE SMOOTH",
"712 -194 OFFCURVE",
"747 -149 OFFCURVE",
"766 -134 CURVE SMOOTH",
"771 -133 OFFCURVE",
"781 -139 OFFCURVE",
"779 -145 CURVE SMOOTH"
);
},
{
closed = 1;
nodes = (
"471 368 OFFCURVE",
"373 514 OFFCURVE",
"241 514 CURVE SMOOTH",
"176 514 OFFCURVE",
"89 491 OFFCURVE",
"89 346 CURVE SMOOTH",
"89 202 OFFCURVE",
"222 69 OFFCURVE",
"313 69 CURVE SMOOTH",
"464 69 OFFCURVE",
"471 182 OFFCURVE",
"471 252 CURVE SMOOTH"
);
}
);
width = 559;
}
);
unicode = 0051;
},
{
glyphname = R;
layers = (
{
anchors = (
{
name = Above;
position = "{230, 595}";
},
{
name = Below;
position = "{243, -42}";
}
);
layerId = master01;
paths = (
{
closed = 1;
nodes = (
"634 29 OFFCURVE",
"571 -14 OFFCURVE",
"537 -14 CURVE SMOOTH",
"468 -14 OFFCURVE",
"439 28 OFFCURVE",
"397 77 CURVE SMOOTH",
"345 140 OFFCURVE",
"312 170 OFFCURVE",
"264 230 CURVE",
"233 224 OFFCURVE",
"196 221 OFFCURVE",
"156 220 CURVE",
"156 182 OFFCURVE",
"156 85 OFFCURVE",
"156 47 CURVE",
"179 30 OFFCURVE",
"210 32 OFFCURVE",
"236 28 CURVE",
"240 24 OFFCURVE",
"243 19 OFFCURVE",
"243 14 CURVE SMOOTH",
"243 10 OFFCURVE",
"241 6 OFFCURVE",
"237 2 CURVE SMOOTH",
"214 -8 OFFCURVE",
"153 -9 OFFCURVE",
"121 -9 CURVE SMOOTH",
"89 -9 OFFCURVE",
"51 -5 OFFCURVE",
"14 1 CURVE SMOOTH",
"11 3 OFFCURVE",
"9 9 OFFCURVE",
"9 15 CURVE SMOOTH",
"9 20 OFFCURVE",
"10 25 OFFCURVE",
"14 28 CURVE SMOOTH",
"34 33 OFFCURVE",
"60 32 OFFCURVE",
"73 45 CURVE",
"73 226 OFFCURVE",
"71 461 OFFCURVE",
"68 535 CURVE",
"54 553 OFFCURVE",
"32 553 OFFCURVE",
"14 556 CURVE SMOOTH",
"11 557 OFFCURVE",
"10 562 OFFCURVE",
"10 566 CURVE SMOOTH",
"10 570 OFFCURVE",
"11 573 OFFCURVE",
"14 574 CURVE SMOOTH",
"63 581 OFFCURVE",
"74 582 OFFCURVE",
"100 582 CURVE SMOOTH",
"118 582 OFFCURVE",
"144 582 OFFCURVE",
"194 582 CURVE SMOOTH",
"216 582 OFFCURVE",
"242 582 OFFCURVE",
"274 582 CURVE SMOOTH",
"275 582 OFFCURVE",
"277 582 OFFCURVE",
"278 582 CURVE SMOOTH",
"396 582 OFFCURVE",
"462 514 OFFCURVE",
"462 439 CURVE SMOOTH",
"462 357 OFFCURVE",
"423 295 OFFCURVE",
"347 258 CURVE",
"385 216 OFFCURVE",
"412 192 OFFCURVE",
"457 138 CURVE SMOOTH",
"497 90 OFFCURVE",
"517 48 OFFCURVE",
"587 48 CURVE SMOOTH",
"605 48 OFFCURVE",
"622 52 OFFCURVE",
"635 65 CURVE SMOOTH",
"640 66 OFFCURVE",
"644 62 OFFCURVE",
"643 55 CURVE SMOOTH"
);
},
{
closed = 1;
nodes = (
"377 488 OFFCURVE",
"326 552 OFFCURVE",
"253 552 CURVE SMOOTH",
"191 552 OFFCURVE",
"165 539 OFFCURVE",
"153 535 CURVE SMOOTH",
"153 533 OFFCURVE",
"153 529 OFFCURVE",
"153 525 CURVE SMOOTH",
"153 506 OFFCURVE",
"151 466 OFFCURVE",
"151 430 CURVE SMOOTH",
"151 426 OFFCURVE",
"151 421 OFFCURVE",
"151 417 CURVE SMOOTH",
"152 370 OFFCURVE",
"154 311 OFFCURVE",
"155 247 CURVE",
"317 253 OFFCURVE",
"377 322 OFFCURVE",
"377 417 CURVE SMOOTH"
);
}
);
width = 640;
}
);
unicode = 0052;
},
{
glyphname = S;
layers = (
{
anchors = (
{
name = Above;
position = "{301, 595}";
},
{
name = Below;
position = "{292, -42}";
}
);
layerId = master01;
paths = (
{
closed = 1;
nodes = (
"545 59 OFFCURVE",
"412 -26 OFFCURVE",
"262 -26 CURVE SMOOTH",
"191 -26 OFFCURVE",
"166 67 OFFCURVE",
"154 92 CURVE",
"167 116 OFFCURVE",
"190 125 OFFCURVE",
"212 125 CURVE SMOOTH",
"229 125 OFFCURVE",
"245 120 OFFCURVE",
"256 112 CURVE",
"268 89 OFFCURVE",
"294 37 OFFCURVE",
"338 37 CURVE SMOOTH",
"415 37 OFFCURVE",
"436 56 OFFCURVE",
"436 101 CURVE SMOOTH",
"436 139 OFFCURVE",
"395 206 OFFCURVE",
"235 206 CURVE SMOOTH",
"230 206 OFFCURVE",
"225 206 OFFCURVE",
"220 206 CURVE SMOOTH",
"132 206 OFFCURVE",
"11 208 OFFCURVE",
"11 294 CURVE SMOOTH",
"11 336 OFFCURVE",
"26 388 OFFCURVE",
"74 443 CURVE SMOOTH",
"173 559 OFFCURVE",
"292 589 OFFCURVE",
"336 589 CURVE SMOOTH",
"396 589 OFFCURVE",
"453 548 OFFCURVE",
"465 500 CURVE",
"460 473 OFFCURVE",
"422 446 OFFCURVE",
"401 446 CURVE SMOOTH",
"400 446 OFFCURVE",
"400 446 OFFCURVE",
"399 446 CURVE SMOOTH",
"366 477 OFFCURVE",
"326 508 OFFCURVE",
"282 508 CURVE SMOOTH",
"188 508 OFFCURVE",
"67 439 OFFCURVE",
"67 363 CURVE SMOOTH",
"67 290 OFFCURVE",
"191 288 OFFCURVE",
"303 288 CURVE SMOOTH",
"310 288 OFFCURVE",
"318 288 OFFCURVE",
"325 288 CURVE SMOOTH",
"409 288 OFFCURVE",
"545 261 OFFCURVE",
"545 156 CURVE SMOOTH"
);
}
);
width = 562;
}
);
unicode = 0053;
},
{
glyphname = T;
layers = (
{
anchors = (
{
name = Above;
position = "{286, 595}";
},
{
name = Below;
position = "{282, -42}";
}
);
layerId = master01;
paths = (
{
closed = 1;
nodes = (
"567 476 OFFCURVE",
"558 471 OFFCURVE",
"550 479 CURVE",
"544 493 OFFCURVE",
"521 519 OFFCURVE",
"503 535 CURVE",
"479 542 OFFCURVE",
"458 543 OFFCURVE",
"438 543 CURVE SMOOTH",
"428 543 OFFCURVE",
"418 543 OFFCURVE",
"408 543 CURVE SMOOTH",
"342 543 OFFCURVE",
"334 515 OFFCURVE",
"333 501 CURVE SMOOTH",
"330 427 OFFCURVE",
"328 235 OFFCURVE",
"328 54 CURVE",
"335 36 OFFCURVE",
"353 30 OFFCURVE",
"387 27 CURVE SMOOTH",
"391 24 OFFCURVE",
"392 19 OFFCURVE",
"392 14 CURVE SMOOTH",
"392 8 OFFCURVE",
"390 2 OFFCURVE",
"387 0 CURVE SMOOTH",
"351 -4 OFFCURVE",
"330 -4 OFFCURVE",
"312 -4 CURVE SMOOTH",
"302 -4 OFFCURVE",
"292 -4 OFFCURVE",
"280 -4 CURVE SMOOTH",
"247 -4 OFFCURVE",
"190 -2 OFFCURVE",
"164 1 CURVE",
"160 5 OFFCURVE",
"158 9 OFFCURVE",
"158 13 CURVE SMOOTH",
"158 18 OFFCURVE",
"161 23 OFFCURVE",
"165 27 CURVE",
"197 29 OFFCURVE",
"225 34 OFFCURVE",
"245 54 CURVE",
"245 83 OFFCURVE",
"246 230 OFFCURVE",
"246 230 CURVE SMOOTH",
"247 300 OFFCURVE",
"249 357 OFFCURVE",
"250 408 CURVE SMOOTH",
"250 412 OFFCURVE",
"250 417 OFFCURVE",
"250 421 CURVE SMOOTH",
"250 454 OFFCURVE",
"248 479 OFFCURVE",
"248 493 CURVE SMOOTH",
"248 496 OFFCURVE",
"248 499 OFFCURVE",
"248 501 CURVE SMOOTH",
"248 515 OFFCURVE",
"239 543 OFFCURVE",
"173 543 CURVE SMOOTH",
"163 543 OFFCURVE",
"154 543 OFFCURVE",
"144 543 CURVE SMOOTH",
"124 543 OFFCURVE",
"102 543 OFFCURVE",
"78 536 CURVE",
"60 521 OFFCURVE",
"37 493 OFFCURVE",
"31 479 CURVE",
"23 471 OFFCURVE",
"14 476 OFFCURVE",
"11 483 CURVE SMOOTH",
"11 486 OFFCURVE",
"11 491 OFFCURVE",
"11 496 CURVE SMOOTH",
"11 524 OFFCURVE",
"13 572 OFFCURVE",
"19 582 CURVE",
"81 583 OFFCURVE",
"227 583 OFFCURVE",
"289 583 CURVE SMOOTH",
"350 583 OFFCURVE",
"501 583 OFFCURVE",
"563 582 CURVE",
"569 572 OFFCURVE",
"571 525 OFFCURVE",
"571 498 CURVE SMOOTH",
"571 492 OFFCURVE",
"570 486 OFFCURVE",
"570 483 CURVE SMOOTH"
);
}
);
width = 581;
}
);
unicode = 0054;
},
{
glyphname = U;
layers = (
{
anchors = (
{
name = Above;
position = "{298, 595}";
},
{
name = Below;
position = "{269, -42}";
}
);
layerId = master01;
paths = (
{
closed = 1;
nodes = (
"479 -33 OFFCURVE",
"454 3 OFFCURVE",
"454 32 CURVE SMOOTH",
"454 47 OFFCURVE",
"452 73 OFFCURVE",
"452 73 CURVE",
"398 22 OFFCURVE",
"338 -15 OFFCURVE",
"263 -15 CURVE SMOOTH",
"150 -15 OFFCURVE",
"10 48 OFFCURVE",
"10 208 CURVE SMOOTH",
"10 334 OFFCURVE",
"43 409 OFFCURVE",
"43 429 CURVE SMOOTH",
"43 457 OFFCURVE",
"19 475 OFFCURVE",
"-14 478 CURVE SMOOTH",
"-18 481 OFFCURVE",
"-19 485 OFFCURVE",
"-19 489 CURVE SMOOTH",
"-19 493 OFFCURVE",
"-18 497 OFFCURVE",
"-14 500 CURVE SMOOTH",
"-14 500 OFFCURVE",
"76 576 OFFCURVE",
"141 576 CURVE SMOOTH",
"158 576 OFFCURVE",
"162 566 OFFCURVE",
"162 550 CURVE SMOOTH",
"162 500 OFFCURVE",
"83 405 OFFCURVE",
"83 280 CURVE SMOOTH",
"83 168 OFFCURVE",
"188 56 OFFCURVE",
"333 56 CURVE SMOOTH",
"379 56 OFFCURVE",
"429 82 OFFCURVE",
"451 100 CURVE",
"451 100 OFFCURVE",
"450 132 OFFCURVE",
"450 147 CURVE SMOOTH",
"450 206 OFFCURVE",
"458 320 OFFCURVE",
"458 408 CURVE SMOOTH",
"458 455 OFFCURVE",
"442 461 OFFCURVE",
"382 477 CURVE SMOOTH",
"378 481 OFFCURVE",
"377 485 OFFCURVE",
"377 490 CURVE SMOOTH",
"377 494 OFFCURVE",
"379 498 OFFCURVE",
"382 502 CURVE SMOOTH",
"408 523 OFFCURVE",
"476 572 OFFCURVE",
"527 572 CURVE SMOOTH",
"547 572 OFFCURVE",
"552 563 OFFCURVE",
"552 547 CURVE SMOOTH",
"552 521 OFFCURVE",
"540 480 OFFCURVE",
"537 435 CURVE SMOOTH",
"532 375 OFFCURVE",
"532 330 OFFCURVE",
"532 287 CURVE SMOOTH",
"532 265 OFFCURVE",
"532 244 OFFCURVE",
"532 222 CURVE SMOOTH",
"532 182 OFFCURVE",
"536 158 OFFCURVE",
"536 104 CURVE SMOOTH",
"536 18 OFFCURVE",
"610 53 OFFCURVE",
"610 31 CURVE SMOOTH",
"610 10 OFFCURVE",
"555 -33 OFFCURVE",
"507 -33 CURVE SMOOTH"
);
}
);
width = 627;
}
);
unicode = 0055;
},
{
glyphname = Uacute;
layers = (
{
layerId = master01;
paths = (
{
closed = 1;
nodes = (
"590 698 OFFCURVE",
"564 672 OFFCURVE",
"549 668 CURVE",
"528 672 OFFCURVE",
"507 715 OFFCURVE",
"490 715 CURVE SMOOTH",
"471 715 OFFCURVE",
"454 708 OFFCURVE",
"428 700 CURVE SMOOTH",
"351 678 OFFCURVE",
"312 664 OFFCURVE",
"241 632 CURVE",
"238 636 LINE",
"284 666 OFFCURVE",
"409 703 OFFCURVE",
"483 725 CURVE SMOOTH",
"507 732 OFFCURVE",
"522 738 OFFCURVE",
"540 738 CURVE SMOOTH",
"561 738 OFFCURVE",
"580 729 OFFCURVE",
"591 709 CURVE"
);
},
{
closed = 1;
nodes = (
"479 -33 OFFCURVE",
"454 3 OFFCURVE",
"454 32 CURVE SMOOTH",
"454 47 OFFCURVE",
"452 73 OFFCURVE",
"452 73 CURVE",
"398 22 OFFCURVE",
"338 -15 OFFCURVE",
"263 -15 CURVE SMOOTH",
"150 -15 OFFCURVE",
"10 48 OFFCURVE",
"10 208 CURVE SMOOTH",
"10 334 OFFCURVE",
"43 409 OFFCURVE",
"43 429 CURVE SMOOTH",
"43 457 OFFCURVE",
"19 475 OFFCURVE",
"-14 478 CURVE SMOOTH",
"-18 481 OFFCURVE",
"-19 485 OFFCURVE",
"-19 489 CURVE SMOOTH",
"-19 493 OFFCURVE",
"-18 497 OFFCURVE",
"-14 500 CURVE SMOOTH",
"-14 500 OFFCURVE",
"76 576 OFFCURVE",
"141 576 CURVE SMOOTH",
"158 576 OFFCURVE",
"162 566 OFFCURVE",
"162 550 CURVE SMOOTH",
"162 500 OFFCURVE",
"83 405 OFFCURVE",
"83 280 CURVE SMOOTH",
"83 168 OFFCURVE",
"188 56 OFFCURVE",
"333 56 CURVE SMOOTH",
"379 56 OFFCURVE",
"429 82 OFFCURVE",
"451 100 CURVE",
"451 100 OFFCURVE",
"450 132 OFFCURVE",
"450 147 CURVE SMOOTH",
"450 206 OFFCURVE",
"458 320 OFFCURVE",
"458 408 CURVE SMOOTH",
"458 455 OFFCURVE",
"442 461 OFFCURVE",
"382 477 CURVE SMOOTH",
"378 481 OFFCURVE",
"377 485 OFFCURVE",
"377 490 CURVE SMOOTH",
"377 494 OFFCURVE",
"379 498 OFFCURVE",
"382 502 CURVE SMOOTH",
"408 523 OFFCURVE",
"476 572 OFFCURVE",
"527 572 CURVE SMOOTH",
"547 572 OFFCURVE",
"552 563 OFFCURVE",
"552 547 CURVE SMOOTH",
"552 521 OFFCURVE",
"540 480 OFFCURVE",
"537 435 CURVE SMOOTH",
"532 375 OFFCURVE",
"532 330 OFFCURVE",
"532 287 CURVE SMOOTH",
"532 265 OFFCURVE",
"532 244 OFFCURVE",
"532 222 CURVE SMOOTH",
"532 182 OFFCURVE",
"536 158 OFFCURVE",
"536 104 CURVE SMOOTH",
"536 18 OFFCURVE",
"610 53 OFFCURVE",
"610 31 CURVE SMOOTH",
"610 10 OFFCURVE",
"555 -33 OFFCURVE",
"507 -33 CURVE SMOOTH"
);
}
);
width = 627;
}
);
unicode = 00DA;
},
{
glyphname = Ucircumflex;
layers = (
{
layerId = master01;
paths = (
{
closed = 1;
nodes = (
"479 -33 OFFCURVE",
"454 3 OFFCURVE",
"454 32 CURVE SMOOTH",
"454 47 OFFCURVE",
"452 73 OFFCURVE",
"452 73 CURVE",
"398 22 OFFCURVE",
"338 -15 OFFCURVE",
"263 -15 CURVE SMOOTH",
"150 -15 OFFCURVE",
"10 48 OFFCURVE",
"10 208 CURVE SMOOTH",
"10 334 OFFCURVE",
"43 409 OFFCURVE",
"43 429 CURVE SMOOTH",
"43 457 OFFCURVE",
"19 475 OFFCURVE",
"-14 478 CURVE SMOOTH",
"-18 481 OFFCURVE",
"-19 485 OFFCURVE",
"-19 489 CURVE SMOOTH",
"-19 493 OFFCURVE",
"-18 497 OFFCURVE",
"-14 500 CURVE SMOOTH",
"-14 500 OFFCURVE",
"76 576 OFFCURVE",
"141 576 CURVE SMOOTH",
"158 576 OFFCURVE",
"162 566 OFFCURVE",
"162 550 CURVE SMOOTH",
"162 500 OFFCURVE",
"83 405 OFFCURVE",
"83 280 CURVE SMOOTH",
"83 168 OFFCURVE",
"188 56 OFFCURVE",
"333 56 CURVE SMOOTH",
"379 56 OFFCURVE",
"429 82 OFFCURVE",
"451 100 CURVE",
"451 100 OFFCURVE",
"450 132 OFFCURVE",
"450 147 CURVE SMOOTH",
"450 206 OFFCURVE",
"458 320 OFFCURVE",
"458 408 CURVE SMOOTH",
"458 455 OFFCURVE",
"442 461 OFFCURVE",
"382 477 CURVE SMOOTH",
"378 481 OFFCURVE",
"377 485 OFFCURVE",
"377 490 CURVE SMOOTH",
"377 494 OFFCURVE",
"379 498 OFFCURVE",
"382 502 CURVE SMOOTH",
"408 523 OFFCURVE",
"476 572 OFFCURVE",
"527 572 CURVE SMOOTH",
"547 572 OFFCURVE",
"552 563 OFFCURVE",
"552 547 CURVE SMOOTH",
"552 521 OFFCURVE",
"540 480 OFFCURVE",
"537 435 CURVE SMOOTH",
"532 375 OFFCURVE",
"532 330 OFFCURVE",
"532 287 CURVE SMOOTH",
"532 265 OFFCURVE",
"532 244 OFFCURVE",
"532 222 CURVE SMOOTH",
"532 182 OFFCURVE",
"536 158 OFFCURVE",
"536 104 CURVE SMOOTH",
"536 18 OFFCURVE",
"610 53 OFFCURVE",
"610 31 CURVE SMOOTH",
"610 10 OFFCURVE",
"555 -33 OFFCURVE",
"507 -33 CURVE SMOOTH"
);
},
{
closed = 1;
nodes = (
"133 650 OFFCURVE",
"136 658 OFFCURVE",
"144 664 CURVE SMOOTH",
"182 691 OFFCURVE",
"220 719 OFFCURVE",
"259 744 CURVE SMOOTH",
"263 747 OFFCURVE",
"273 749 OFFCURVE",
"281 749 CURVE SMOOTH",
"286 749 OFFCURVE",
"290 748 OFFCURVE",
"293 746 CURVE SMOOTH",
"334 721 OFFCURVE",
"373 692 OFFCURVE",
"412 664 CURVE SMOOTH",
"420 658 OFFCURVE",
"423 650 OFFCURVE",
"423 643 CURVE SMOOTH",
"423 637 OFFCURVE",
"420 633 OFFCURVE",
"415 633 CURVE SMOOTH",
"413 633 OFFCURVE",
"411 634 OFFCURVE",
"407 636 CURVE SMOOTH",
"371 659 OFFCURVE",
"335 682 OFFCURVE",
"299 705 CURVE SMOOTH",
"289 711 OFFCURVE",
"284 715 OFFCURVE",
"278 715 CURVE SMOOTH",
"273 715 OFFCURVE",
"268 712 OFFCURVE",
"258 706 CURVE SMOOTH",
"221 683 OFFCURVE",
"186 659 OFFCURVE",
"150 636 CURVE SMOOTH",
"146 634 OFFCURVE",
"143 633 OFFCURVE",
"141 633 CURVE SMOOTH",
"136 633 OFFCURVE",
"133 637 OFFCURVE",
"133 643 CURVE SMOOTH"
);
}
);
width = 627;
}
);
unicode = 00DB;
},
{
glyphname = Udieresis;
layers = (
{
layerId = master01;
paths = (
{
closed = 1;
nodes = (
"479 -33 OFFCURVE",
"454 3 OFFCURVE",
"454 32 CURVE SMOOTH",
"454 47 OFFCURVE",
"452 73 OFFCURVE",
"452 73 CURVE",
"398 22 OFFCURVE",
"338 -15 OFFCURVE",
"263 -15 CURVE SMOOTH",
"150 -15 OFFCURVE",
"10 48 OFFCURVE",
"10 208 CURVE SMOOTH",
"10 334 OFFCURVE",
"43 409 OFFCURVE",
"43 429 CURVE SMOOTH",
"43 457 OFFCURVE",
"19 475 OFFCURVE",
"-14 478 CURVE SMOOTH",
"-18 481 OFFCURVE",
"-19 485 OFFCURVE",
"-19 489 CURVE SMOOTH",
"-19 493 OFFCURVE",
"-18 497 OFFCURVE",
"-14 500 CURVE SMOOTH",
"-14 500 OFFCURVE",
"76 576 OFFCURVE",
"141 576 CURVE SMOOTH",
"158 576 OFFCURVE",
"162 566 OFFCURVE",
"162 550 CURVE SMOOTH",
"162 500 OFFCURVE",
"83 405 OFFCURVE",
"83 280 CURVE SMOOTH",
"83 168 OFFCURVE",
"188 56 OFFCURVE",
"333 56 CURVE SMOOTH",
"379 56 OFFCURVE",
"429 82 OFFCURVE",
"451 100 CURVE",
"451 100 OFFCURVE",
"450 132 OFFCURVE",
"450 147 CURVE SMOOTH",
"450 206 OFFCURVE",
"458 320 OFFCURVE",
"458 408 CURVE SMOOTH",
"458 455 OFFCURVE",
"442 461 OFFCURVE",
"382 477 CURVE SMOOTH",
"378 481 OFFCURVE",
"377 485 OFFCURVE",
"377 490 CURVE SMOOTH",
"377 494 OFFCURVE",
"379 498 OFFCURVE",
"382 502 CURVE SMOOTH",
"408 523 OFFCURVE",
"476 572 OFFCURVE",
"527 572 CURVE SMOOTH",
"547 572 OFFCURVE",
"552 563 OFFCURVE",
"552 547 CURVE SMOOTH",
"552 521 OFFCURVE",
"540 480 OFFCURVE",
"537 435 CURVE SMOOTH",
"532 375 OFFCURVE",
"532 330 OFFCURVE",
"532 287 CURVE SMOOTH",
"532 265 OFFCURVE",
"532 244 OFFCURVE",
"532 222 CURVE SMOOTH",
"532 182 OFFCURVE",
"536 158 OFFCURVE",
"536 104 CURVE SMOOTH",
"536 18 OFFCURVE",
"610 53 OFFCURVE",
"610 31 CURVE SMOOTH",
"610 10 OFFCURVE",
"555 -33 OFFCURVE",
"507 -33 CURVE SMOOTH"
);
},
{
closed = 1;
nodes = (
"192 686 OFFCURVE",
"204 701 OFFCURVE",
"225 712 CURVE SMOOTH",
"231 715 OFFCURVE",
"236 717 OFFCURVE",
"240 717 CURVE SMOOTH",
"251 717 OFFCURVE",
"256 706 OFFCURVE",
"256 684 CURVE SMOOTH",
"256 662 OFFCURVE",
"256 659 OFFCURVE",
"242 650 CURVE SMOOTH",
"233 644 OFFCURVE",
"225 641 OFFCURVE",
"217 641 CURVE SMOOTH",
"200 641 OFFCURVE",
"192 655 OFFCURVE",
"192 669 CURVE SMOOTH"
);
},
{
closed = 1;
nodes = (
"311 686 OFFCURVE",
"322 701 OFFCURVE",
"343 712 CURVE SMOOTH",
"349 715 OFFCURVE",
"354 717 OFFCURVE",
"358 717 CURVE SMOOTH",
"369 717 OFFCURVE",
"374 706 OFFCURVE",
"374 684 CURVE SMOOTH",
"374 662 OFFCURVE",
"374 659 OFFCURVE",
"360 650 CURVE SMOOTH",
"351 644 OFFCURVE",
"343 641 OFFCURVE",
"335 641 CURVE SMOOTH",
"318 641 OFFCURVE",
"311 655 OFFCURVE",
"311 669 CURVE SMOOTH"
);
}
);
width = 627;
}
);
unicode = 00DC;
},
{
glyphname = Ugrave;
layers = (
{
layerId = master01;
paths = (
{
closed = 1;
nodes = (
"479 -33 OFFCURVE",
"454 3 OFFCURVE",
"454 32 CURVE SMOOTH",
"454 47 OFFCURVE",
"452 73 OFFCURVE",
"452 73 CURVE",
"398 22 OFFCURVE",
"338 -15 OFFCURVE",
"263 -15 CURVE SMOOTH",
"150 -15 OFFCURVE",
"10 48 OFFCURVE",
"10 208 CURVE SMOOTH",
"10 334 OFFCURVE",
"43 409 OFFCURVE",
"43 429 CURVE SMOOTH",
"43 457 OFFCURVE",
"19 475 OFFCURVE",
"-14 478 CURVE SMOOTH",
"-18 481 OFFCURVE",
"-19 485 OFFCURVE",
"-19 489 CURVE SMOOTH",
"-19 493 OFFCURVE",
"-18 497 OFFCURVE",
"-14 500 CURVE SMOOTH",
"-14 500 OFFCURVE",
"76 576 OFFCURVE",
"141 576 CURVE SMOOTH",
"158 576 OFFCURVE",
"162 566 OFFCURVE",
"162 550 CURVE SMOOTH",
"162 500 OFFCURVE",
"83 405 OFFCURVE",
"83 280 CURVE SMOOTH",
"83 168 OFFCURVE",
"188 56 OFFCURVE",
"333 56 CURVE SMOOTH",
"379 56 OFFCURVE",
"429 82 OFFCURVE",
"451 100 CURVE",
"451 100 OFFCURVE",
"450 132 OFFCURVE",
"450 147 CURVE SMOOTH",
"450 206 OFFCURVE",
"458 320 OFFCURVE",
"458 408 CURVE SMOOTH",
"458 455 OFFCURVE",
"442 461 OFFCURVE",
"382 477 CURVE SMOOTH",
"378 481 OFFCURVE",
"377 485 OFFCURVE",
"377 490 CURVE SMOOTH",
"377 494 OFFCURVE",
"379 498 OFFCURVE",
"382 502 CURVE SMOOTH",
"408 523 OFFCURVE",
"476 572 OFFCURVE",
"527 572 CURVE SMOOTH",
"547 572 OFFCURVE",
"552 563 OFFCURVE",
"552 547 CURVE SMOOTH",
"552 521 OFFCURVE",
"540 480 OFFCURVE",
"537 435 CURVE SMOOTH",
"532 375 OFFCURVE",
"532 330 OFFCURVE",
"532 287 CURVE SMOOTH",
"532 265 OFFCURVE",
"532 244 OFFCURVE",
"532 222 CURVE SMOOTH",
"532 182 OFFCURVE",
"536 158 OFFCURVE",
"536 104 CURVE SMOOTH",
"536 18 OFFCURVE",
"610 53 OFFCURVE",
"610 31 CURVE SMOOTH",
"610 10 OFFCURVE",
"555 -33 OFFCURVE",
"507 -33 CURVE SMOOTH"
);
},
{
closed = 1;
nodes = (
"47 729 OFFCURVE",
"66 738 OFFCURVE",
"87 738 CURVE SMOOTH",
"105 738 OFFCURVE",
"120 732 OFFCURVE",
"144 725 CURVE SMOOTH",
"218 703 OFFCURVE",
"342 666 OFFCURVE",
"388 636 CURVE",
"386 632 LINE",
"315 664 OFFCURVE",
"276 678 OFFCURVE",
"199 700 CURVE SMOOTH",
"173 708 OFFCURVE",
"155 715 OFFCURVE",
"136 715 CURVE SMOOTH",
"119 715 OFFCURVE",
"98 672 OFFCURVE",
"77 668 CURVE",
"62 672 OFFCURVE",
"37 698 OFFCURVE",
"36 709 CURVE"
);
}
);
width = 627;
}
);
unicode = 00D9;
},
{
glyphname = Umacron;
layers = (
{
layerId = master01;
paths = (
{
closed = 1;
nodes = (
"471.9 692.75 OFFCURVE",
"444.7 656.2 OFFCURVE",
"422.6 656.2 CURVE SMOOTH",
"410.7 656.2 OFFCURVE",
"408.15 674.9 OFFCURVE",
"398.8 674.9 CURVE SMOOTH",
"375 674.9 OFFCURVE",
"192.25 658.75 OFFCURVE",
"169.3 658.75 CURVE SMOOTH",
"149.75 658.75 OFFCURVE",
"137.85 659.6 OFFCURVE",
"137.85 675.75 CURVE SMOOTH",
"137.85 691.9 OFFCURVE",
"164.2 721.65 OFFCURVE",
"182.9 721.65 CURVE SMOOTH",
"196.5 721.65 OFFCURVE",
"193.95 703.8 OFFCURVE",
"214.35 703.8 CURVE SMOOTH",
"247.5 703.8 OFFCURVE",
"407.3 721.65 OFFCURVE",
"434.5 721.65 CURVE SMOOTH",
"451.5 721.65 OFFCURVE",
"471.9 721.65 OFFCURVE",
"471.9 706.35 CURVE SMOOTH"
);
},
{
closed = 1;
nodes = (
"479 -33 OFFCURVE",
"454 3 OFFCURVE",
"454 32 CURVE SMOOTH",
"454 47 OFFCURVE",
"452 73 OFFCURVE",
"452 73 CURVE",
"398 22 OFFCURVE",
"338 -15 OFFCURVE",
"263 -15 CURVE SMOOTH",
"150 -15 OFFCURVE",
"10 48 OFFCURVE",
"10 208 CURVE SMOOTH",
"10 334 OFFCURVE",
"43 409 OFFCURVE",
"43 429 CURVE SMOOTH",
"43 457 OFFCURVE",
"19 475 OFFCURVE",
"-14 478 CURVE SMOOTH",
"-18 481 OFFCURVE",
"-19 485 OFFCURVE",
"-19 489 CURVE SMOOTH",
"-19 493 OFFCURVE",
"-18 497 OFFCURVE",
"-14 500 CURVE SMOOTH",
"-14 500 OFFCURVE",
"76 576 OFFCURVE",
"141 576 CURVE SMOOTH",
"158 576 OFFCURVE",
"162 566 OFFCURVE",
"162 550 CURVE SMOOTH",
"162 500 OFFCURVE",
"83 405 OFFCURVE",
"83 280 CURVE SMOOTH",
"83 168 OFFCURVE",
"188 56 OFFCURVE",
"333 56 CURVE SMOOTH",
"379 56 OFFCURVE",
"429 82 OFFCURVE",
"451 100 CURVE",
"451 100 OFFCURVE",
"450 132 OFFCURVE",
"450 147 CURVE SMOOTH",
"450 206 OFFCURVE",
"458 320 OFFCURVE",
"458 408 CURVE SMOOTH",
"458 455 OFFCURVE",
"442 461 OFFCURVE",
"382 477 CURVE SMOOTH",
"378 481 OFFCURVE",
"377 485 OFFCURVE",
"377 490 CURVE SMOOTH",
"377 494 OFFCURVE",
"379 498 OFFCURVE",
"382 502 CURVE SMOOTH",
"408 523 OFFCURVE",
"476 572 OFFCURVE",
"527 572 CURVE SMOOTH",
"547 572 OFFCURVE",
"552 563 OFFCURVE",
"552 547 CURVE SMOOTH",
"552 521 OFFCURVE",
"540 480 OFFCURVE",
"537 435 CURVE SMOOTH",
"532 375 OFFCURVE",
"532 330 OFFCURVE",
"532 287 CURVE SMOOTH",
"532 265 OFFCURVE",
"532 244 OFFCURVE",
"532 222 CURVE SMOOTH",
"532 182 OFFCURVE",
"536 158 OFFCURVE",
"536 104 CURVE SMOOTH",
"536 18 OFFCURVE",
"610 53 OFFCURVE",
"610 31 CURVE SMOOTH",
"610 10 OFFCURVE",
"555 -33 OFFCURVE",
"507 -33 CURVE SMOOTH"
);
}
);
width = 627;
}
);
unicode = 016A;
},
{
glyphname = V;
layers = (
{
anchors = (
{
name = Above;
position = "{326, 595}";
},
{
name = Below;
position = "{314, -42}";
}
);
layerId = master01;
paths = (
{
closed = 1;
nodes = (
"632 552 OFFCURVE",
"627 536 OFFCURVE",
"624 523 CURVE SMOOTH",
"613 471 OFFCURVE",
"585 409 OFFCURVE",
"564 366 CURVE SMOOTH",
"511 260 OFFCURVE",
"411 97 OFFCURVE",
"351 3 CURVE SMOOTH",
"343 -9 OFFCURVE",
"333 -21 OFFCURVE",
"316 -21 CURVE SMOOTH",
"302 -21 OFFCURVE",
"283 -16 OFFCURVE",
"277 -4 CURVE SMOOTH",
"223 106 OFFCURVE",
"179 189 OFFCURVE",
"127 283 CURVE SMOOTH",
"78 371 OFFCURVE",
"51 410 OFFCURVE",
"12 465 CURVE SMOOTH",
"6 473 OFFCURVE",
"0 475 OFFCURVE",
"-8 474 CURVE SMOOTH",
"-15 475 OFFCURVE",
"-20 486 OFFCURVE",
"-20 491 CURVE SMOOTH",
"-17 502 OFFCURVE",
"36 534 OFFCURVE",
"59 554 CURVE SMOOTH",
"80 571 OFFCURVE",
"102 584 OFFCURVE",
"105 586 CURVE SMOOTH",
"110 586 OFFCURVE",
"121 571 OFFCURVE",
"118 566 CURVE SMOOTH",
"112 561 OFFCURVE",
"89 544 OFFCURVE",
"89 528 CURVE SMOOTH",
"89 525 OFFCURVE",
"90 521 OFFCURVE",
"92 518 CURVE SMOOTH",
"129 465 OFFCURVE",
"154 437 OFFCURVE",
"205 343 CURVE SMOOTH",
"270 226 OFFCURVE",
"280 187 OFFCURVE",
"332 93 CURVE SMOOTH",
"337 85 OFFCURVE",
"341 78 OFFCURVE",
"347 78 CURVE SMOOTH",
"351 78 OFFCURVE",
"357 83 OFFCURVE",
"365 96 CURVE SMOOTH",
"430 204 OFFCURVE",
"454 245 OFFCURVE",
"518 372 CURVE SMOOTH",
"554 443 OFFCURVE",
"565 497 OFFCURVE",
"565 508 CURVE SMOOTH",
"565 529 OFFCURVE",
"515 538 OFFCURVE",
"507 545 CURVE SMOOTH",
"506 550 OFFCURVE",
"511 566 OFFCURVE",
"515 569 CURVE SMOOTH",
"517 570 OFFCURVE",
"537 571 OFFCURVE",
"559 571 CURVE SMOOTH",
"591 571 OFFCURVE",
"628 570 OFFCURVE",
"632 568 CURVE"
);
}
);
width = 623;
}
);
unicode = 0056;
},
{
glyphname = W;
layers = (
{
anchors = (
{
name = Above;
position = "{449, 595}";
},
{
name = Below;
position = "{449, -42}";
}
);
layerId = master01;
paths = (
{
closed = 1;
nodes = (
"892 552 OFFCURVE",
"887 536 OFFCURVE",
"884 523 CURVE SMOOTH",
"873 471 OFFCURVE",
"846 409 OFFCURVE",
"825 366 CURVE SMOOTH",
"772 260 OFFCURVE",
"671 97 OFFCURVE",
"611 3 CURVE SMOOTH",
"603 -9 OFFCURVE",
"593 -21 OFFCURVE",
"576 -21 CURVE SMOOTH",
"562 -21 OFFCURVE",
"543 -16 OFFCURVE",
"537 -4 CURVE SMOOTH",
"451 164 LINE",
"351 3 LINE SMOOTH",
"343 -9 OFFCURVE",
"333 -21 OFFCURVE",
"316 -21 CURVE SMOOTH",
"302 -21 OFFCURVE",
"283 -16 OFFCURVE",
"277 -4 CURVE SMOOTH",
"223 106 OFFCURVE",
"179 189 OFFCURVE",
"127 283 CURVE SMOOTH",
"78 371 OFFCURVE",
"51 410 OFFCURVE",
"12 465 CURVE SMOOTH",
"6 473 OFFCURVE",
"0 475 OFFCURVE",
"-8 474 CURVE SMOOTH",
"-15 475 OFFCURVE",
"-20 486 OFFCURVE",
"-20 491 CURVE SMOOTH",
"-17 502 OFFCURVE",
"36 534 OFFCURVE",
"59 554 CURVE SMOOTH",
"80 571 OFFCURVE",
"102 585 OFFCURVE",
"105 587 CURVE SMOOTH",
"110 587 OFFCURVE",
"121 571 OFFCURVE",
"118 566 CURVE SMOOTH",
"112 561 OFFCURVE",
"89 544 OFFCURVE",
"89 528 CURVE SMOOTH",
"89 525 OFFCURVE",
"90 521 OFFCURVE",
"92 518 CURVE SMOOTH",
"129 465 OFFCURVE",
"154 437 OFFCURVE",
"205 343 CURVE SMOOTH",
"270 226 OFFCURVE",
"280 188 OFFCURVE",
"332 94 CURVE SMOOTH",
"337 86 OFFCURVE",
"341 78 OFFCURVE",
"347 78 CURVE SMOOTH",
"351 78 OFFCURVE",
"357 83 OFFCURVE",
"365 96 CURVE SMOOTH",
"429 205 LINE",
"387 283 LINE SMOOTH",
"338 371 OFFCURVE",
"311 410 OFFCURVE",
"272 465 CURVE SMOOTH",
"266 473 OFFCURVE",
"260 475 OFFCURVE",
"252 474 CURVE SMOOTH",
"245 475 OFFCURVE",
"240 486 OFFCURVE",
"240 491 CURVE SMOOTH",
"243 502 OFFCURVE",
"296 534 OFFCURVE",
"319 554 CURVE SMOOTH",
"340 571 OFFCURVE",
"363 584 OFFCURVE",
"366 586 CURVE SMOOTH",
"371 586 OFFCURVE",
"381 571 OFFCURVE",
"378 566 CURVE SMOOTH",
"372 561 OFFCURVE",
"349 544 OFFCURVE",
"349 528 CURVE SMOOTH",
"349 525 OFFCURVE",
"350 521 OFFCURVE",
"352 518 CURVE SMOOTH",
"389 465 OFFCURVE",
"414 437 OFFCURVE",
"465 343 CURVE SMOOTH",
"485 306 LINE",
"519 372 LINE SMOOTH",
"555 443 OFFCURVE",
"565 497 OFFCURVE",
"565 508 CURVE SMOOTH",
"565 529 OFFCURVE",
"515 538 OFFCURVE",
"507 545 CURVE SMOOTH",
"506 550 OFFCURVE",
"511 566 OFFCURVE",
"515 569 CURVE SMOOTH",
"517 570 OFFCURVE",
"537 571 OFFCURVE",
"559 571 CURVE SMOOTH",
"591 571 OFFCURVE",
"628 570 OFFCURVE",
"632 568 CURVE",
"632 552 OFFCURVE",
"627 536 OFFCURVE",
"624 523 CURVE SMOOTH",
"613 471 OFFCURVE",
"585 409 OFFCURVE",
"564 366 CURVE SMOOTH",
"549 335 OFFCURVE",
"529 299 OFFCURVE",
"507 261 CURVE",
"538 200 OFFCURVE",
"555 161 OFFCURVE",
"592 93 CURVE SMOOTH",
"597 85 OFFCURVE",
"601 78 OFFCURVE",
"607 78 CURVE SMOOTH",
"611 78 OFFCURVE",
"617 83 OFFCURVE",
"625 96 CURVE SMOOTH",
"690 204 OFFCURVE",
"715 245 OFFCURVE",
"779 372 CURVE SMOOTH",
"815 443 OFFCURVE",
"826 497 OFFCURVE",
"826 508 CURVE SMOOTH",
"826 529 OFFCURVE",
"775 538 OFFCURVE",
"767 545 CURVE SMOOTH",
"766 550 OFFCURVE",
"771 566 OFFCURVE",
"775 569 CURVE SMOOTH",
"777 570 OFFCURVE",
"797 571 OFFCURVE",
"819 571 CURVE SMOOTH",
"851 571 OFFCURVE",
"888 570 OFFCURVE",
"892 568 CURVE"
);
}
);
width = 882;
}
);
unicode = 0057;
},
{
glyphname = X;
layers = (
{
anchors = (
{
name = Above;
position = "{379, 595}";
},
{
name = Below;
position = "{360, -42}";
}
);
layerId = master01;
paths = (
{
closed = 1;
nodes = (
"724 39 OFFCURVE",
"670 -11 OFFCURVE",
"605 -11 CURVE SMOOTH",
"494 -11 OFFCURVE",
"429 127 OFFCURVE",
"360 263 CURVE",
"319 208 OFFCURVE",
"300 171 OFFCURVE",
"245 104 CURVE SMOOTH",
"220 74 OFFCURVE",
"162 -9 OFFCURVE",
"98 -9 CURVE SMOOTH",
"61 -9 OFFCURVE",
"33 15 OFFCURVE",
"20 51 CURVE",
"23 72 OFFCURVE",
"55 111 OFFCURVE",
"78 111 CURVE SMOOTH",
"79 111 OFFCURVE",
"79 111 OFFCURVE",
"80 111 CURVE SMOOTH",
"93 75 OFFCURVE",
"103 59 OFFCURVE",
"140 59 CURVE SMOOTH",
"174 59 OFFCURVE",
"199 93 OFFCURVE",
"224 128 CURVE SMOOTH",
"347 297 LINE",
"305 390 OFFCURVE",
"201 518 OFFCURVE",
"103 518 CURVE SMOOTH",
"74 518 OFFCURVE",
"54 512 OFFCURVE",
"29 495 CURVE",
"19 498 OFFCURVE",
"15 507 OFFCURVE",
"15 516 CURVE SMOOTH",
"15 522 OFFCURVE",
"17 529 OFFCURVE",
"21 534 CURVE SMOOTH",
"52 568 OFFCURVE",
"112 581 OFFCURVE",
"161 581 CURVE SMOOTH",
"271 581 OFFCURVE",
"372 464 OFFCURVE",
"414 371 CURVE",
"452 417 OFFCURVE",
"538 505 OFFCURVE",
"561 520 CURVE SMOOTH",
"591 540 OFFCURVE",
"657 579 OFFCURVE",
"705 579 CURVE SMOOTH",
"729 579 OFFCURVE",
"738 556 OFFCURVE",
"741 541 CURVE",
"740 523 OFFCURVE",
"706 481 OFFCURVE",
"685 481 CURVE SMOOTH",
"684 481 OFFCURVE",
"682 481 OFFCURVE",
"681 481 CURVE SMOOTH",
"673 498 OFFCURVE",
"670 519 OFFCURVE",
"648 519 CURVE SMOOTH",
"577 519 OFFCURVE",
"471 402 OFFCURVE",
"426 345 CURVE",
"499 185 OFFCURVE",
"560 49 OFFCURVE",
"666 49 CURVE SMOOTH",
"688 49 OFFCURVE",
"721 65 OFFCURVE",
"745 85 CURVE SMOOTH",
"750 89 OFFCURVE",
"754 91 OFFCURVE",
"756 91 CURVE SMOOTH",
"758 91 OFFCURVE",
"760 89 OFFCURVE",
"760 87 CURVE SMOOTH",
"760 83 OFFCURVE",
"757 76 OFFCURVE",
"752 71 CURVE SMOOTH"
);
}
);
width = 736;
}
);
unicode = 0058;
},
{
glyphname = Y;
layers = (
{
anchors = (
{
name = Above;
position = "{248, 598}";
},
{
name = Below;
position = "{235, -42}";
}
);
layerId = master01;
paths = (
{
closed = 1;
nodes = (
"466 556 OFFCURVE",
"457 553 OFFCURVE",
"439 544 CURVE",
"390 441 OFFCURVE",
"327 267 OFFCURVE",
"279 161 CURVE",
"276 139 OFFCURVE",
"272 100 OFFCURVE",
"272 45 CURVE",
"291 26 OFFCURVE",
"309 27 OFFCURVE",
"335 24 CURVE",
"339 20 OFFCURVE",
"341 15 OFFCURVE",
"341 10 CURVE SMOOTH",
"341 6 OFFCURVE",
"340 1 OFFCURVE",
"336 -3 CURVE SMOOTH",
"311 -10 OFFCURVE",
"266 -10 OFFCURVE",
"234 -10 CURVE SMOOTH",
"202 -10 OFFCURVE",
"173 -7 OFFCURVE",
"133 -3 CURVE SMOOTH",
"130 -1 OFFCURVE",
"128 4 OFFCURVE",
"128 10 CURVE SMOOTH",
"128 15 OFFCURVE",
"129 21 OFFCURVE",
"133 24 CURVE SMOOTH",
"151 27 OFFCURVE",
"171 25 OFFCURVE",
"184 39 CURVE",
"184 118 OFFCURVE",
"183 149 OFFCURVE",
"167 191 CURVE SMOOTH",
"159 211 OFFCURVE",
"150 231 OFFCURVE",
"144 257 CURVE",
"113 339 OFFCURVE",
"56 477 OFFCURVE",
"31 544 CURVE",
"16 559 OFFCURVE",
"3 562 OFFCURVE",
"-11 562 CURVE SMOOTH",
"-14 563 OFFCURVE",
"-16 568 OFFCURVE",
"-16 572 CURVE SMOOTH",
"-16 576 OFFCURVE",
"-14 579 OFFCURVE",
"-11 580 CURVE SMOOTH",
"10 584 OFFCURVE",
"66 587 OFFCURVE",
"82 587 CURVE SMOOTH",
"90 587 OFFCURVE",
"98 587 OFFCURVE",
"104 587 CURVE SMOOTH",
"139 587 OFFCURVE",
"152 587 OFFCURVE",
"180 579 CURVE",
"182 577 OFFCURVE",
"183 574 OFFCURVE",
"183 571 CURVE SMOOTH",
"183 567 OFFCURVE",
"182 563 OFFCURVE",
"180 561 CURVE",
"154 561 OFFCURVE",
"127 555 OFFCURVE",
"112 541 CURVE",
"132 471 OFFCURVE",
"183 352 OFFCURVE",
"210 287 CURVE",
"226 264 OFFCURVE",
"233 233 OFFCURVE",
"250 213 CURVE",
"251 212 OFFCURVE",
"253 211 OFFCURVE",
"254 211 CURVE SMOOTH",
"255 211 OFFCURVE",
"256 211 OFFCURVE",
"257 213 CURVE",
"297 296 OFFCURVE",
"376 487 OFFCURVE",
"395 544 CURVE",
"382 557 OFFCURVE",
"367 557 OFFCURVE",
"346 559 CURVE",
"343 560 OFFCURVE",
"341 565 OFFCURVE",
"341 569 CURVE SMOOTH",
"341 573 OFFCURVE",
"343 576 OFFCURVE",
"346 577 CURVE",
"367 581 OFFCURVE",
"398 586 OFFCURVE",
"414 586 CURVE SMOOTH",
"465 586 OFFCURVE",
"453 584 OFFCURVE",
"486 575 CURVE SMOOTH",
"488 573 OFFCURVE",
"489 570 OFFCURVE",
"489 567 CURVE SMOOTH",
"489 563 OFFCURVE",
"488 560 OFFCURVE",
"486 558 CURVE SMOOTH"
);
}
);
width = 481;
}
);
unicode = 0059;
},
{
glyphname = Yacute;
layers = (
{
layerId = master01;
paths = (
{
closed = 1;
nodes = (
"466 556 OFFCURVE",
"457 553 OFFCURVE",
"439 544 CURVE",
"390 441 OFFCURVE",
"327 267 OFFCURVE",
"279 161 CURVE",
"276 139 OFFCURVE",
"272 100 OFFCURVE",
"272 45 CURVE",
"291 26 OFFCURVE",
"309 27 OFFCURVE",
"335 24 CURVE",
"339 20 OFFCURVE",
"341 15 OFFCURVE",
"341 10 CURVE SMOOTH",
"341 6 OFFCURVE",
"340 1 OFFCURVE",
"336 -3 CURVE SMOOTH",
"311 -10 OFFCURVE",
"266 -10 OFFCURVE",
"234 -10 CURVE SMOOTH",
"202 -10 OFFCURVE",
"173 -7 OFFCURVE",
"133 -3 CURVE SMOOTH",
"130 -1 OFFCURVE",
"128 4 OFFCURVE",
"128 10 CURVE SMOOTH",
"128 15 OFFCURVE",
"129 21 OFFCURVE",
"133 24 CURVE SMOOTH",
"151 27 OFFCURVE",
"171 25 OFFCURVE",
"184 39 CURVE",
"184 118 OFFCURVE",
"183 149 OFFCURVE",
"167 191 CURVE SMOOTH",
"159 211 OFFCURVE",
"150 231 OFFCURVE",
"144 257 CURVE",
"113 339 OFFCURVE",
"56 477 OFFCURVE",
"31 544 CURVE",
"16 559 OFFCURVE",
"3 562 OFFCURVE",
"-11 562 CURVE SMOOTH",
"-14 563 OFFCURVE",
"-16 568 OFFCURVE",
"-16 572 CURVE SMOOTH",
"-16 576 OFFCURVE",
"-14 579 OFFCURVE",
"-11 580 CURVE SMOOTH",
"10 584 OFFCURVE",
"66 587 OFFCURVE",
"82 587 CURVE SMOOTH",
"90 587 OFFCURVE",
"98 587 OFFCURVE",
"104 587 CURVE SMOOTH",
"139 587 OFFCURVE",
"152 587 OFFCURVE",
"180 579 CURVE",
"182 577 OFFCURVE",
"183 574 OFFCURVE",
"183 571 CURVE SMOOTH",
"183 567 OFFCURVE",
"182 563 OFFCURVE",
"180 561 CURVE",
"154 561 OFFCURVE",
"127 555 OFFCURVE",
"112 541 CURVE",
"132 471 OFFCURVE",
"183 352 OFFCURVE",
"210 287 CURVE",
"226 264 OFFCURVE",
"233 233 OFFCURVE",
"250 213 CURVE",
"251 212 OFFCURVE",
"253 211 OFFCURVE",
"254 211 CURVE SMOOTH",
"255 211 OFFCURVE",
"256 211 OFFCURVE",
"257 213 CURVE",
"297 296 OFFCURVE",
"376 487 OFFCURVE",
"395 544 CURVE",
"382 557 OFFCURVE",
"367 557 OFFCURVE",
"346 559 CURVE",
"343 560 OFFCURVE",
"341 565 OFFCURVE",
"341 569 CURVE SMOOTH",
"341 573 OFFCURVE",
"343 576 OFFCURVE",
"346 577 CURVE",
"367 581 OFFCURVE",
"398 586 OFFCURVE",
"414 586 CURVE SMOOTH",
"465 586 OFFCURVE",
"453 584 OFFCURVE",
"486 575 CURVE SMOOTH",
"488 573 OFFCURVE",
"489 570 OFFCURVE",
"489 567 CURVE SMOOTH",
"489 563 OFFCURVE",
"488 560 OFFCURVE",
"486 558 CURVE SMOOTH"
);
},
{
closed = 1;
nodes = (
"547 698 OFFCURVE",
"522 672 OFFCURVE",
"507 668 CURVE",
"486 672 OFFCURVE",
"465 715 OFFCURVE",
"448 715 CURVE SMOOTH",
"429 715 OFFCURVE",
"411 708 OFFCURVE",
"385 700 CURVE SMOOTH",
"308 678 OFFCURVE",
"269 664 OFFCURVE",
"198 632 CURVE",
"196 636 LINE",
"242 666 OFFCURVE",
"366 703 OFFCURVE",
"440 725 CURVE SMOOTH",
"464 732 OFFCURVE",
"479 738 OFFCURVE",
"497 738 CURVE SMOOTH",
"518 738 OFFCURVE",
"537 729 OFFCURVE",
"548 709 CURVE"
);
}
);
width = 481;
}
);
unicode = 00DD;
},
{
glyphname = Z;
layers = (
{
anchors = (
{
name = Above;
position = "{238, 595}";
},
{
name = Below;
position = "{220, -42}";
}
);
layerId = master01;
paths = (
{
closed = 1;
nodes = (
"443 82 OFFCURVE",
"443 27 OFFCURVE",
"434 -1 CURVE",
"350 -3 LINE SMOOTH",
"245 -6 OFFCURVE",
"115 -3 OFFCURVE",
"25 -6 CURVE SMOOTH",
"23 -6 LINE SMOOTH",
"15 -6 OFFCURVE",
"10 -1 OFFCURVE",
"10 6 CURVE SMOOTH",
"10 9 OFFCURVE",
"11 12 OFFCURVE",
"13 15 CURVE SMOOTH",
"146 191 OFFCURVE",
"246 374 OFFCURVE",
"356 559 CURVE",
"347 560 OFFCURVE",
"337 560 OFFCURVE",
"327 560 CURVE SMOOTH",
"313 560 OFFCURVE",
"298 559 OFFCURVE",
"284 559 CURVE SMOOTH",
"201 556 OFFCURVE",
"102 539 OFFCURVE",
"65 466 CURVE SMOOTH",
"51 439 OFFCURVE",
"51 426 OFFCURVE",
"45 400 CURVE",
"38 395 OFFCURVE",
"33 390 OFFCURVE",
"25 403 CURVE",
"26 442 OFFCURVE",
"27 547 OFFCURVE",
"35 584 CURVE",
"422 584 LINE SMOOTH",
"448 584 OFFCURVE",
"457 579 OFFCURVE",
"457 573 CURVE SMOOTH",
"457 567 OFFCURVE",
"450 559 OFFCURVE",
"445 552 CURVE SMOOTH",
"326 384 OFFCURVE",
"241 208 OFFCURVE",
"132 35 CURVE SMOOTH",
"132 33 OFFCURVE",
"131 29 OFFCURVE",
"133 29 CURVE SMOOTH",
"155 28 OFFCURVE",
"180 27 OFFCURVE",
"204 27 CURVE SMOOTH",
"268 27 OFFCURVE",
"334 34 OFFCURVE",
"382 67 CURVE SMOOTH",
"394 75 OFFCURVE",
"411 101 OFFCURVE",
"426 145 CURVE SMOOTH",
"430 151 OFFCURVE",
"444 149 OFFCURVE",
"447 141 CURVE SMOOTH"
);
}
);
width = 465;
}
);
unicode = 005A;
},
{
glyphname = uni01F7;
layers = (
{
anchors = (
{
name = Above;
position = "{230, 595}";
},
{
name = Below;
position = "{184, -42}";
}
);
layerId = master01;
paths = (
{
closed = 1;
nodes = (
"436 300 OFFCURVE",
"273 149 OFFCURVE",
"156 101 CURVE",
"156 82 OFFCURVE",
"157 50 OFFCURVE",
"159 41 CURVE",
"173 27 OFFCURVE",
"191 30 OFFCURVE",
"219 24 CURVE",
"222 20 OFFCURVE",
"226 13 OFFCURVE",
"220 6 CURVE SMOOTH",
"198 -5 OFFCURVE",
"160 -6 OFFCURVE",
"129 -6 CURVE SMOOTH",
"125 -6 OFFCURVE",
"121 -6 OFFCURVE",
"117 -6 CURVE SMOOTH",
"85 -6 OFFCURVE",
"68 -5 OFFCURVE",
"31 3 CURVE SMOOTH",
"25 7 OFFCURVE",
"24 17 OFFCURVE",
"31 24 CURVE",
"48 28 OFFCURVE",
"63 29 OFFCURVE",
"73 42 CURVE",
"73 223 OFFCURVE",
"71 448 OFFCURVE",
"68 522 CURVE",
"54 539 OFFCURVE",
"34 543 OFFCURVE",
"14 547 CURVE SMOOTH",
"11 548 OFFCURVE",
"10 554 OFFCURVE",
"10 559 CURVE SMOOTH",
"10 564 OFFCURVE",
"11 569 OFFCURVE",
"14 570 CURVE SMOOTH",
"45 577 OFFCURVE",
"62 583 OFFCURVE",
"121 583 CURVE SMOOTH",
"151 583 OFFCURVE",
"148 566 OFFCURVE",
"152 549 CURVE",
"174 563 OFFCURVE",
"211 582 OFFCURVE",
"257 582 CURVE SMOOTH",
"378 582 OFFCURVE",
"436 515 OFFCURVE",
"436 439 CURVE SMOOTH"
);
},
{
closed = 1;
nodes = (
"352 488 OFFCURVE",
"306 552 OFFCURVE",
"236 552 CURVE SMOOTH",
"167 552 OFFCURVE",
"153 523 OFFCURVE",
"153 509 CURVE SMOOTH",
"153 507 OFFCURVE",
"153 503 OFFCURVE",
"153 499 CURVE SMOOTH",
"153 483 OFFCURVE",
"151 453 OFFCURVE",
"151 416 CURVE SMOOTH",
"151 369 OFFCURVE",
"154 192 OFFCURVE",
"155 128 CURVE",
"264 182 OFFCURVE",
"352 322 OFFCURVE",
"352 417 CURVE SMOOTH"
);
}
);
width = 450;
}
);
unicode = 01F7;
},
{
glyphname = uni0232;
layers = (
{
layerId = master01;
paths = (
{
closed = 1;
nodes = (
"411.9 692.75 OFFCURVE",
"384.7 656.2 OFFCURVE",
"362.6 656.2 CURVE SMOOTH",
"350.7 656.2 OFFCURVE",
"348.15 674.9 OFFCURVE",
"338.8 674.9 CURVE SMOOTH",
"315 674.9 OFFCURVE",
"132.25 658.75 OFFCURVE",
"109.3 658.75 CURVE SMOOTH",
"89.75 658.75 OFFCURVE",
"77.85 659.6 OFFCURVE",
"77.85 675.75 CURVE SMOOTH",
"77.85 691.9 OFFCURVE",
"104.2 721.65 OFFCURVE",
"122.9 721.65 CURVE SMOOTH",
"136.5 721.65 OFFCURVE",
"133.95 703.8 OFFCURVE",
"154.35 703.8 CURVE SMOOTH",
"187.5 703.8 OFFCURVE",
"347.3 721.65 OFFCURVE",
"374.5 721.65 CURVE SMOOTH",
"391.5 721.65 OFFCURVE",
"411.9 721.65 OFFCURVE",
"411.9 706.35 CURVE SMOOTH"
);
},
{
closed = 1;
nodes = (
"466 556 OFFCURVE",
"457 553 OFFCURVE",
"439 544 CURVE",
"390 441 OFFCURVE",
"327 267 OFFCURVE",
"279 161 CURVE",
"276 139 OFFCURVE",
"272 100 OFFCURVE",
"272 45 CURVE",
"291 26 OFFCURVE",
"309 27 OFFCURVE",
"335 24 CURVE",
"339 20 OFFCURVE",
"341 15 OFFCURVE",
"341 10 CURVE SMOOTH",
"341 6 OFFCURVE",
"340 1 OFFCURVE",
"336 -3 CURVE SMOOTH",
"311 -10 OFFCURVE",
"266 -9 OFFCURVE",
"234 -10 CURVE SMOOTH",
"231 -10 OFFCURVE",
"227 -10 OFFCURVE",
"224 -10 CURVE SMOOTH",
"196 -10 OFFCURVE",
"169 -7 OFFCURVE",
"133 -3 CURVE SMOOTH",
"130 -1 OFFCURVE",
"128 4 OFFCURVE",
"128 10 CURVE SMOOTH",
"128 15 OFFCURVE",
"129 21 OFFCURVE",
"133 24 CURVE SMOOTH",
"151 27 OFFCURVE",
"171 25 OFFCURVE",
"184 39 CURVE",
"184 118 OFFCURVE",
"183 149 OFFCURVE",
"167 191 CURVE SMOOTH",
"159 211 OFFCURVE",
"150 231 OFFCURVE",
"144 257 CURVE",
"113 339 OFFCURVE",
"56 477 OFFCURVE",
"31 544 CURVE",
"16 559 OFFCURVE",
"3 562 OFFCURVE",
"-11 562 CURVE SMOOTH",
"-14 563 OFFCURVE",
"-16 568 OFFCURVE",
"-16 572 CURVE SMOOTH",
"-16 576 OFFCURVE",
"-14 579 OFFCURVE",
"-11 580 CURVE SMOOTH",
"10 584 OFFCURVE",
"66 587 OFFCURVE",
"82 587 CURVE SMOOTH",
"90 587 OFFCURVE",
"98 587 OFFCURVE",
"104 587 CURVE SMOOTH",
"139 587 OFFCURVE",
"152 587 OFFCURVE",
"180 579 CURVE SMOOTH",
"184 576 OFFCURVE",
"183 565 OFFCURVE",
"180 561 CURVE",
"154 561 OFFCURVE",
"127 555 OFFCURVE",
"112 541 CURVE",
"132 471 OFFCURVE",
"183 352 OFFCURVE",
"210 287 CURVE",
"226 263 OFFCURVE",
"234 232 OFFCURVE",
"252 212 CURVE SMOOTH",
"252 210 OFFCURVE",
"256 210 OFFCURVE",
"257 213 CURVE SMOOTH",
"297 296 OFFCURVE",
"376 487 OFFCURVE",
"395 544 CURVE",
"382 557 OFFCURVE",
"367 557 OFFCURVE",
"346 559 CURVE SMOOTH",
"341 562 OFFCURVE",
"339 574 OFFCURVE",
"346 577 CURVE SMOOTH",
"367 581 OFFCURVE",
"398 586 OFFCURVE",
"414 586 CURVE SMOOTH",
"465 586 OFFCURVE",
"453 584 OFFCURVE",
"486 575 CURVE SMOOTH",
"488 573 OFFCURVE",
"489 570 OFFCURVE",
"489 567 CURVE SMOOTH",
"489 563 OFFCURVE",
"488 560 OFFCURVE",
"486 558 CURVE SMOOTH"
);
}
);
width = 481;
}
);
unicode = 0232;
},
{
glyphname = A.alt;
layers = (
{
anchors = (
{
name = Above;
position = "{255, 595}";
},
{
name = Below;
position = "{267, -42}";
}
);
layerId = master01;
paths = (
{
closed = 1;
nodes = (
"689 77 OFFCURVE",
"564 -13 OFFCURVE",
"484 -13 CURVE SMOOTH",
"400 -13 OFFCURVE",
"376 61 OFFCURVE",
"322 243 CURVE SMOOTH",
"290 354 OFFCURVE",
"314 345 OFFCURVE",
"280 437 CURVE",
"211 383 OFFCURVE",
"205 242 OFFCURVE",
"151 145 CURVE SMOOTH",
"139 124 OFFCURVE",
"131 107 OFFCURVE",
"131 83 CURVE SMOOTH",
"131 56 OFFCURVE",
"140 45 OFFCURVE",
"154 23 CURVE",
"112 17 OFFCURVE",
"86 5 OFFCURVE",
"44 -13 CURVE",
"14 3 LINE",
"128 232 LINE SMOOTH",
"139 254 OFFCURVE",
"172 343 OFFCURVE",
"199 405 CURVE SMOOTH",
"215 443 OFFCURVE",
"227 466 OFFCURVE",
"227 474 CURVE SMOOTH",
"227 503 OFFCURVE",
"218 524 OFFCURVE",
"176 530 CURVE SMOOTH",
"173 532 OFFCURVE",
"172 536 OFFCURVE",
"172 540 CURVE SMOOTH",
"172 545 OFFCURVE",
"174 552 OFFCURVE",
"176 555 CURVE SMOOTH",
"194 569 OFFCURVE",
"218 583 OFFCURVE",
"244 583 CURVE SMOOTH",
"273 583 OFFCURVE",
"326 567 OFFCURVE",
"337 541 CURVE SMOOTH",
"391 414 OFFCURVE",
"402 343 OFFCURVE",
"447 216 CURVE SMOOTH",
"473 145 OFFCURVE",
"497 71 OFFCURVE",
"573 71 CURVE SMOOTH",
"631 71 OFFCURVE",
"675 137 OFFCURVE",
"712 150 CURVE SMOOTH",
"721 150 OFFCURVE",
"728 145 OFFCURVE",
"728 137 CURVE SMOOTH",
"728 135 OFFCURVE",
"728 133 OFFCURVE",
"727 131 CURVE SMOOTH"
);
}
);
width = 729;
}
);
},
{
glyphname = E.alt;
layers = (
{
anchors = (
{
name = Above;
position = "{330, 595}";
},
{
name = Below;
position = "{299, -42}";
}
);
layerId = master01;
paths = (
{
closed = 1;
nodes = (
"20 331 OFFCURVE",
"25 369 OFFCURVE",
"35 400 CURVE",
"100 495 OFFCURVE",
"205 584 OFFCURVE",
"332 584 CURVE SMOOTH",
"395 584 OFFCURVE",
"397 575 OFFCURVE",
"420 575 CURVE SMOOTH",
"433 575 OFFCURVE",
"448 579 OFFCURVE",
"458 579 CURVE SMOOTH",
"461 579 OFFCURVE",
"463 579 OFFCURVE",
"465 578 CURVE SMOOTH",
"466 577 OFFCURVE",
"466 572 OFFCURVE",
"466 564 CURVE SMOOTH",
"466 552 OFFCURVE",
"466 536 OFFCURVE",
"466 518 CURVE SMOOTH",
"466 500 OFFCURVE",
"466 482 OFFCURVE",
"469 469 CURVE",
"468 466 OFFCURVE",
"461 465 OFFCURVE",
"455 465 CURVE SMOOTH",
"451 465 OFFCURVE",
"447 466 OFFCURVE",
"446 468 CURVE SMOOTH",
"420 539 OFFCURVE",
"366 549 OFFCURVE",
"304 549 CURVE SMOOTH",
"210 549 OFFCURVE",
"142 479 OFFCURVE",
"116 382 CURVE SMOOTH",
"112 367 OFFCURVE",
"111 352 OFFCURVE",
"111 336 CURVE SMOOTH",
"111 320 OFFCURVE",
"112 303 OFFCURVE",
"113 288 CURVE",
"146 292 OFFCURVE",
"203 302 OFFCURVE",
"260 306 CURVE SMOOTH",
"312 310 OFFCURVE",
"372 311 OFFCURVE",
"394 311 CURVE SMOOTH",
"420 311 OFFCURVE",
"444 341 OFFCURVE",
"452 358 CURVE SMOOTH",
"453 361 OFFCURVE",
"458 362 OFFCURVE",
"463 362 CURVE SMOOTH",
"468 362 OFFCURVE",
"473 361 OFFCURVE",
"474 359 CURVE",
"474 351 OFFCURVE",
"481 253 OFFCURVE",
"481 232 CURVE SMOOTH",
"481 226 OFFCURVE",
"477 224 OFFCURVE",
"472 224 CURVE SMOOTH",
"467 224 OFFCURVE",
"461 227 OFFCURVE",
"461 227 CURVE SMOOTH",
"448 248 OFFCURVE",
"426 267 OFFCURVE",
"393 267 CURVE SMOOTH",
"386 267 OFFCURVE",
"375 267 OFFCURVE",
"361 267 CURVE SMOOTH",
"334 267 OFFCURVE",
"297 266 OFFCURVE",
"263 264 CURVE SMOOTH",
"207 260 OFFCURVE",
"147 250 OFFCURVE",
"119 246 CURVE",
"145 109 OFFCURVE",
"230 23 OFFCURVE",
"332 23 CURVE SMOOTH",
"408 23 OFFCURVE",
"464 79 OFFCURVE",
"468 104 CURVE SMOOTH",
"469 107 OFFCURVE",
"475 108 OFFCURVE",
"480 108 CURVE SMOOTH",
"484 108 OFFCURVE",
"487 107 OFFCURVE",
"488 105 CURVE SMOOTH",
"488 103 OFFCURVE",
"488 102 OFFCURVE",
"488 99 CURVE SMOOTH",
"488 77 OFFCURVE",
"494 23 OFFCURVE",
"494 3 CURVE SMOOTH",
"494 0 OFFCURVE",
"494 -3 OFFCURVE",
"494 -4 CURVE SMOOTH",
"494 -5 OFFCURVE",
"492 -6 OFFCURVE",
"489 -6 CURVE SMOOTH",
"480 -6 OFFCURVE",
"460 -2 OFFCURVE",
"449 -2 CURVE SMOOTH",
"434 -2 OFFCURVE",
"384 -15 OFFCURVE",
"330 -15 CURVE SMOOTH",
"163 -15 OFFCURVE",
"20 119 OFFCURVE",
"20 293 CURVE SMOOTH"
);
}
);
width = 521;
}
);
},
{
glyphname = G.alt;
layers = (
{
anchors = (
{
name = Above;
position = "{296, 595}";
},
{
name = Below;
position = "{303, -42}";
}
);
layerId = master01;
paths = (
{
closed = 1;
nodes = (
"562 93 OFFCURVE",
"489 -9 OFFCURVE",
"305 -9 CURVE SMOOTH",
"121 -9 OFFCURVE",
"9 149 OFFCURVE",
"9 295 CURVE SMOOTH",
"9 465 OFFCURVE",
"171 579 OFFCURVE",
"313 579 CURVE SMOOTH",
"347 579 OFFCURVE",
"400 536 OFFCURVE",
"405 509 CURVE",
"403 477 OFFCURVE",
"353 443 OFFCURVE",
"317 443 CURVE SMOOTH",
"315 443 OFFCURVE",
"313 443 OFFCURVE",
"311 443 CURVE SMOOTH",
"296 473 OFFCURVE",
"280 532 OFFCURVE",
"241 532 CURVE SMOOTH",
"176 532 OFFCURVE",
"66 440 OFFCURVE",
"66 342 CURVE SMOOTH",
"66 237 OFFCURVE",
"150 69 OFFCURVE",
"421 69 CURVE SMOOTH",
"448 69 OFFCURVE",
"525 75 OFFCURVE",
"525 157 CURVE SMOOTH",
"525 217 OFFCURVE",
"451 241 OFFCURVE",
"403 241 CURVE SMOOTH",
"324 241 OFFCURVE",
"291 210 OFFCURVE",
"243 162 CURVE",
"234 172 LINE",
"284 266 OFFCURVE",
"355 317 OFFCURVE",
"429 317 CURVE SMOOTH",
"505 317 OFFCURVE",
"562 252 OFFCURVE",
"562 164 CURVE SMOOTH"
);
}
);
width = 583;
}
);
},
{
glyphname = uni01F7.alt;
layers = (
{
anchors = (
{
name = Above;
position = "{260, 595}";
},
{
name = Below;
position = "{274, -42}";
}
);
layerId = master01;
paths = (
{
closed = 1;
nodes = (
"489 283 OFFCURVE",
"258 72 OFFCURVE",
"150 -3 CURVE",
"147 -58 OFFCURVE",
"140 -148 OFFCURVE",
"134 -210 CURVE",
"128 -229 OFFCURVE",
"81 -246 OFFCURVE",
"62 -246 CURVE",
"62 -154 OFFCURVE",
"67 -109 OFFCURVE",
"67 -21 CURVE SMOOTH",
"67 72 OFFCURVE",
"68 147 OFFCURVE",
"68 228 CURVE SMOOTH",
"68 279 OFFCURVE",
"68 331 OFFCURVE",
"66 392 CURVE SMOOTH",
"64 460 OFFCURVE",
"70 528 OFFCURVE",
"-11 528 CURVE SMOOTH",
"-14 529 OFFCURVE",
"-16 532 OFFCURVE",
"-16 536 CURVE SMOOTH",
"-16 540 OFFCURVE",
"-14 544 OFFCURVE",
"-11 546 CURVE SMOOTH",
"16 564 OFFCURVE",
"77 589 OFFCURVE",
"104 589 CURVE SMOOTH",
"124 589 OFFCURVE",
"150 589 OFFCURVE",
"150 548 CURVE SMOOTH",
"150 543 OFFCURVE",
"148 532 OFFCURVE",
"148 532 CURVE",
"202 558 OFFCURVE",
"296 585 OFFCURVE",
"366 585 CURVE SMOOTH",
"431 585 OFFCURVE",
"489 568 OFFCURVE",
"489 490 CURVE SMOOTH"
);
},
{
closed = 1;
nodes = (
"375 491 OFFCURVE",
"366 551 OFFCURVE",
"295 551 CURVE SMOOTH",
"247 551 OFFCURVE",
"194 537 OFFCURVE",
"147 513 CURVE",
"146 506 OFFCURVE",
"146 500 OFFCURVE",
"146 494 CURVE SMOOTH",
"146 482 OFFCURVE",
"147 470 OFFCURVE",
"147 452 CURVE SMOOTH",
"147 279 OFFCURVE",
"150 182 OFFCURVE",
"150 28 CURVE",
"240 118 OFFCURVE",
"375 255 OFFCURVE",
"375 427 CURVE SMOOTH"
);
}
);
width = 494;
}
);
},
{
glyphname = a;
layers = (
{
anchors = (
{
name = Above;
position = "{185, 340}";
},
{
name = Below;
position = "{174, -50}";
}
);
layerId = master01;
paths = (
{
closed = 1;
nodes = (
"356 63 OFFCURVE",
"297 0 OFFCURVE",
"248 0 CURVE SMOOTH",
"213 0 OFFCURVE",
"207 40 OFFCURVE",
"206 54 CURVE",
"153 17 OFFCURVE",
"115 -13 OFFCURVE",
"68 -13 CURVE SMOOTH",
"19 -13 OFFCURVE",
"18 89 OFFCURVE",
"18 89 CURVE",
"18 126 OFFCURVE",
"36 163 OFFCURVE",
"65 192 CURVE SMOOTH",
"117 244 OFFCURVE",
"220 304 OFFCURVE",
"229 304 CURVE SMOOTH",
"239 304 OFFCURVE",
"252 302 OFFCURVE",
"253 293 CURVE SMOOTH",
"260 208 OFFCURVE",
"263 120 OFFCURVE",
"273 83 CURVE SMOOTH",
"278 66 OFFCURVE",
"289 62 OFFCURVE",
"302 62 CURVE SMOOTH",
"314 62 OFFCURVE",
"344 75 OFFCURVE",
"361 85 CURVE",
"365 74 LINE"
);
},
{
closed = 1;
nodes = (
"203 84 OFFCURVE",
"205 180 OFFCURVE",
"199 227 CURVE SMOOTH",
"198 239 OFFCURVE",
"192 243 OFFCURVE",
"191 247 CURVE",
"159 227 OFFCURVE",
"83 185 OFFCURVE",
"83 131 CURVE SMOOTH",
"83 75 OFFCURVE",
"133 56 OFFCURVE",
"152 56 CURVE SMOOTH",
"171 56 OFFCURVE",
"205 66 OFFCURVE",
"205 66 CURVE"
);
}
);
width = 339;
}
);
unicode = 0061;
},
{
glyphname = aacute;
layers = (
{
layerId = master01;
paths = (
{
closed = 1;
nodes = (
"368.759 529.106 OFFCURVE",
"368.787 528.486 OFFCURVE",
"368.787 527.853 CURVE SMOOTH",
"368.787 514.853 OFFCURVE",
"356.556 495.854 OFFCURVE",
"340.482 488.179 CURVE",
"317.468 488.705 OFFCURVE",
"299.98 500.14 OFFCURVE",
"280 500.14 CURVE SMOOTH",
"253.323 500.14 OFFCURVE",
"240.737 489.642 OFFCURVE",
"218.095 467 CURVE SMOOTH",
"194.095 443 OFFCURVE",
"166.095 404 OFFCURVE",
"132.095 357 CURVE",
"128.272 361.403 LINE",
"145.714 394.941 OFFCURVE",
"184.095 448 OFFCURVE",
"243.745 512.754 CURVE SMOOTH",
"267.308 538.332 OFFCURVE",
"285.626 554.095 OFFCURVE",
"318.272 554.095 CURVE SMOOTH",
"337.419 554.095 OFFCURVE",
"355.118 546.817 OFFCURVE",
"368.699 529.71 CURVE"
);
},
{
closed = 1;
nodes = (
"356 63 OFFCURVE",
"297 0 OFFCURVE",
"248 0 CURVE SMOOTH",
"213 0 OFFCURVE",
"207 40 OFFCURVE",
"206 54 CURVE",
"153 17 OFFCURVE",
"115 -13 OFFCURVE",
"68 -13 CURVE SMOOTH",
"19 -13 OFFCURVE",
"18 89 OFFCURVE",
"18 89 CURVE",
"18 126 OFFCURVE",
"36 163 OFFCURVE",
"65 192 CURVE SMOOTH",
"117 244 OFFCURVE",
"220 304 OFFCURVE",
"229 304 CURVE SMOOTH",
"239 304 OFFCURVE",
"252 302 OFFCURVE",
"253 293 CURVE SMOOTH",
"260 208 OFFCURVE",
"263 120 OFFCURVE",
"273 83 CURVE SMOOTH",
"278 66 OFFCURVE",
"289 62 OFFCURVE",
"302 62 CURVE SMOOTH",
"314 62 OFFCURVE",
"344 75 OFFCURVE",
"361 85 CURVE",
"365 74 LINE"
);
},
{
closed = 1;
nodes = (
"203 84 OFFCURVE",
"205 180 OFFCURVE",
"199 227 CURVE SMOOTH",
"198 239 OFFCURVE",
"192 243 OFFCURVE",
"191 247 CURVE",
"159 227 OFFCURVE",
"83 185 OFFCURVE",
"83 131 CURVE SMOOTH",
"83 75 OFFCURVE",
"133 56 OFFCURVE",
"152 56 CURVE SMOOTH",
"171 56 OFFCURVE",
"205 66 OFFCURVE",
"205 66 CURVE"
);
}
);
width = 339;
}
);
unicode = 00E1;
},
{
glyphname = acircumflex;
layers = (
{
layerId = master01;
paths = (
{
closed = 1;
nodes = (
"356 63 OFFCURVE",
"297 0 OFFCURVE",
"248 0 CURVE SMOOTH",
"213 0 OFFCURVE",
"207 40 OFFCURVE",
"206 54 CURVE",
"153 17 OFFCURVE",
"115 -13 OFFCURVE",
"68 -13 CURVE SMOOTH",
"19 -13 OFFCURVE",
"18 89 OFFCURVE",
"18 89 CURVE",
"18 126 OFFCURVE",
"36 163 OFFCURVE",
"65 192 CURVE SMOOTH",
"117 244 OFFCURVE",
"220 304 OFFCURVE",
"229 304 CURVE SMOOTH",
"239 304 OFFCURVE",
"252 302 OFFCURVE",
"253 293 CURVE SMOOTH",
"260 208 OFFCURVE",
"263 120 OFFCURVE",
"273 83 CURVE SMOOTH",
"278 66 OFFCURVE",
"289 62 OFFCURVE",
"302 62 CURVE SMOOTH",
"314 62 OFFCURVE",
"344 75 OFFCURVE",
"361 85 CURVE",
"365 74 LINE"
);
},
{
closed = 1;
nodes = (
"203 84 OFFCURVE",
"205 180 OFFCURVE",
"199 227 CURVE SMOOTH",
"198 239 OFFCURVE",
"192 243 OFFCURVE",
"191 247 CURVE",
"159 227 OFFCURVE",
"83 185 OFFCURVE",
"83 131 CURVE SMOOTH",
"83 75 OFFCURVE",
"133 56 OFFCURVE",
"152 56 CURVE SMOOTH",
"171 56 OFFCURVE",
"205 66 OFFCURVE",
"205 66 CURVE"
);
},
{
closed = 1;
nodes = (
"35.237 386.252 OFFCURVE",
"38.758 398.111 OFFCURVE",
"46.227 406.101 CURVE SMOOTH",
"81.75 444.093 OFFCURVE",
"117.475 482.229 OFFCURVE",
"154.228 517.088 CURVE SMOOTH",
"158.071 520.734 OFFCURVE",
"167.154 523.492 OFFCURVE",
"175.027 523.492 CURVE SMOOTH",
"179.594 523.492 OFFCURVE",
"183.749 522.528 OFFCURVE",
"186.228 520.249 CURVE SMOOTH",
"224.49 485.056 OFFCURVE",
"261.031 445.261 OFFCURVE",
"297.646 406.101 CURVE SMOOTH",
"305.115 398.111 OFFCURVE",
"308.636 386.252 OFFCURVE",
"308.636 377.022 CURVE SMOOTH",
"308.636 369.165 OFFCURVE",
"306.077 363.137 OFFCURVE",
"301.246 363.137 CURVE SMOOTH",
"298.95 363.137 OFFCURVE",
"296.182 364.36 OFFCURVE",
"292.846 367.453 CURVE SMOOTH",
"258.949 398.879 OFFCURVE",
"225.952 432.202 OFFCURVE",
"191.827 463.661 CURVE SMOOTH",
"182.181 472.554 OFFCURVE",
"177.121 476.842 OFFCURVE",
"171.827 476.842 CURVE SMOOTH",
"166.831 476.842 OFFCURVE",
"161.708 472.641 OFFCURVE",
"152.627 464.322 CURVE SMOOTH",
"118.22 432.805 OFFCURVE",
"85.118 399.06 OFFCURVE",
"51.027 367.453 CURVE SMOOTH",
"47.691 364.36 OFFCURVE",
"44.923 363.137 OFFCURVE",
"42.627 363.137 CURVE SMOOTH",
"37.796 363.137 OFFCURVE",
"35.237 369.165 OFFCURVE",
"35.237 377.022 CURVE SMOOTH"
);
}
);
width = 339;
}
);
unicode = 00E2;
},
{
glyphname = adieresis;
layers = (
{
layerId = master01;
paths = (
{
closed = 1;
nodes = (
"356 63 OFFCURVE",
"297 0 OFFCURVE",
"248 0 CURVE SMOOTH",
"213 0 OFFCURVE",
"207 40 OFFCURVE",
"206 54 CURVE",
"153 17 OFFCURVE",
"115 -13 OFFCURVE",
"68 -13 CURVE SMOOTH",
"19 -13 OFFCURVE",
"18 89 OFFCURVE",
"18 89 CURVE",
"18 126 OFFCURVE",
"36 163 OFFCURVE",
"65 192 CURVE SMOOTH",
"117 244 OFFCURVE",
"220 304 OFFCURVE",
"229 304 CURVE SMOOTH",
"239 304 OFFCURVE",
"252 302 OFFCURVE",
"253 293 CURVE SMOOTH",
"260 208 OFFCURVE",
"263 120 OFFCURVE",
"273 83 CURVE SMOOTH",
"278 66 OFFCURVE",
"289 62 OFFCURVE",
"302 62 CURVE SMOOTH",
"314 62 OFFCURVE",
"344 75 OFFCURVE",
"361 85 CURVE",
"365 74 LINE"
);
},
{
closed = 1;
nodes = (
"203 84 OFFCURVE",
"205 180 OFFCURVE",
"199 227 CURVE SMOOTH",
"198 239 OFFCURVE",
"192 243 OFFCURVE",
"191 247 CURVE",
"159 227 OFFCURVE",
"83 185 OFFCURVE",
"83 131 CURVE SMOOTH",
"83 75 OFFCURVE",
"133 56 OFFCURVE",
"152 56 CURVE SMOOTH",
"171 56 OFFCURVE",
"205 66 OFFCURVE",
"205 66 CURVE"
);
},
{
closed = 1;
nodes = (
"80.24 419.6 OFFCURVE",
"92.88 436.4 OFFCURVE",
"118.16 449.521 CURVE SMOOTH",
"125.2 453.36 OFFCURVE",
"131.12 455.28 OFFCURVE",
"135.92 455.28 CURVE SMOOTH",
"148.72 455.28 OFFCURVE",
"155.12 442.48 OFFCURVE",
"155.12 416.88 CURVE SMOOTH",
"155.12 390.904 OFFCURVE",
"154.539 386.939 OFFCURVE",
"138.32 376.561 CURVE SMOOTH",
"127.76 369.521 OFFCURVE",
"117.92 366 OFFCURVE",
"108.8 366 CURVE SMOOTH",
"88.582 366 OFFCURVE",
"80.24 382.083 OFFCURVE",
"80.24 399.12 CURVE SMOOTH"
);
},
{
closed = 1;
nodes = (
"219.44 419.6 OFFCURVE",
"232.08 436.4 OFFCURVE",
"257.36 449.521 CURVE SMOOTH",
"264.4 453.36 OFFCURVE",
"270.32 455.28 OFFCURVE",
"275.12 455.28 CURVE SMOOTH",
"287.92 455.28 OFFCURVE",
"294.32 442.48 OFFCURVE",
"294.32 416.88 CURVE SMOOTH",
"294.32 390.903 OFFCURVE",
"293.739 386.939 OFFCURVE",
"277.52 376.561 CURVE SMOOTH",
"266.96 369.521 OFFCURVE",
"257.12 366 OFFCURVE",
"248 366 CURVE SMOOTH",
"227.781 366 OFFCURVE",
"219.44 382.083 OFFCURVE",
"219.44 399.12 CURVE SMOOTH"
);
}
);
width = 339;
}
);
unicode = 00E4;
},
{
glyphname = agrave;
layers = (
{
layerId = master01;
paths = (
{
closed = 1;
nodes = (
"356 63 OFFCURVE",
"297 0 OFFCURVE",
"248 0 CURVE SMOOTH",
"213 0 OFFCURVE",
"207 40 OFFCURVE",
"206 54 CURVE",
"153 17 OFFCURVE",
"115 -13 OFFCURVE",
"68 -13 CURVE SMOOTH",
"19 -13 OFFCURVE",
"18 89 OFFCURVE",
"18 89 CURVE",
"18 126 OFFCURVE",
"36 163 OFFCURVE",
"65 192 CURVE SMOOTH",
"117 244 OFFCURVE",
"220 304 OFFCURVE",
"229 304 CURVE SMOOTH",
"239 304 OFFCURVE",
"252 302 OFFCURVE",
"253 293 CURVE SMOOTH",
"260 208 OFFCURVE",
"263 120 OFFCURVE",
"273 83 CURVE SMOOTH",
"278 66 OFFCURVE",
"289 62 OFFCURVE",
"302 62 CURVE SMOOTH",
"314 62 OFFCURVE",
"344 75 OFFCURVE",
"361 85 CURVE",
"365 74 LINE"
);
},
{
closed = 1;
nodes = (
"203 84 OFFCURVE",
"205 180 OFFCURVE",
"199 227 CURVE SMOOTH",
"198 239 OFFCURVE",
"192 243 OFFCURVE",
"191 247 CURVE",
"159 227 OFFCURVE",
"83 185 OFFCURVE",
"83 131 CURVE SMOOTH",
"83 75 OFFCURVE",
"133 56 OFFCURVE",
"152 56 CURVE SMOOTH",
"171 56 OFFCURVE",
"205 66 OFFCURVE",
"205 66 CURVE"
);
},
{
closed = 1;
nodes = (
"43.882 546.817 OFFCURVE",
"61.581 554.095 OFFCURVE",
"80.728 554.095 CURVE SMOOTH",
"113.374 554.095 OFFCURVE",
"131.692 538.333 OFFCURVE",
"155.255 512.754 CURVE SMOOTH",
"214.905 448 OFFCURVE",
"253.286 394.941 OFFCURVE",
"270.728 361.403 CURVE",
"266.905 357 LINE",
"232.905 404 OFFCURVE",
"204.905 443 OFFCURVE",
"180.905 467 CURVE SMOOTH",
"158.263 489.643 OFFCURVE",
"145.677 500.14 OFFCURVE",
"119 500.14 CURVE SMOOTH",
"99.019 500.14 OFFCURVE",
"81.532 488.705 OFFCURVE",
"58.518 488.179 CURVE",
"42.444 495.854 OFFCURVE",
"30.213 514.853 OFFCURVE",
"30.213 527.853 CURVE SMOOTH",
"30.213 528.486 OFFCURVE",
"30.241 529.106 OFFCURVE",
"30.301 529.71 CURVE"
);
}
);
width = 339;
}
);
unicode = 00E0;
},
{
glyphname = amacron;
layers = (
{
layerId = master01;
paths = (
{
closed = 1;
nodes = (
"338 455 OFFCURVE",
"308 412 OFFCURVE",
"280 412 CURVE SMOOTH",
"266 412 OFFCURVE",
"263 434 OFFCURVE",
"252 434 CURVE SMOOTH",
"224 434 OFFCURVE",
"109 415 OFFCURVE",
"82 415 CURVE SMOOTH",
"59 415 OFFCURVE",
"45 417 OFFCURVE",
"45 435 CURVE SMOOTH",
"45 452 OFFCURVE",
"74 489 OFFCURVE",
"98 489 CURVE SMOOTH",
"114 489 OFFCURVE",
"111 468 OFFCURVE",
"135 468 CURVE SMOOTH",
"174 468 OFFCURVE",
"262 489 OFFCURVE",
"294 489 CURVE SMOOTH",
"314 489 OFFCURVE",
"338 489 OFFCURVE",
"338 471 CURVE SMOOTH"
);
},
{
closed = 1;
nodes = (
"356 63 OFFCURVE",
"297 0 OFFCURVE",
"248 0 CURVE SMOOTH",
"213 0 OFFCURVE",
"207 40 OFFCURVE",
"206 54 CURVE",
"153 17 OFFCURVE",
"115 -13 OFFCURVE",
"68 -13 CURVE SMOOTH",
"19 -13 OFFCURVE",
"18 89 OFFCURVE",
"18 89 CURVE",
"18 126 OFFCURVE",
"36 163 OFFCURVE",
"65 192 CURVE SMOOTH",
"117 244 OFFCURVE",
"220 304 OFFCURVE",
"229 304 CURVE SMOOTH",
"239 304 OFFCURVE",
"252 302 OFFCURVE",
"253 293 CURVE SMOOTH",
"260 208 OFFCURVE",
"263 120 OFFCURVE",
"273 83 CURVE SMOOTH",
"278 66 OFFCURVE",
"289 62 OFFCURVE",
"302 62 CURVE SMOOTH",
"314 62 OFFCURVE",
"344 75 OFFCURVE",
"361 85 CURVE",
"365 74 LINE"
);
},
{
closed = 1;
nodes = (
"203 84 OFFCURVE",
"205 180 OFFCURVE",
"199 227 CURVE SMOOTH",
"198 239 OFFCURVE",
"192 243 OFFCURVE",
"191 247 CURVE",
"159 227 OFFCURVE",
"83 185 OFFCURVE",
"83 131 CURVE SMOOTH",
"83 75 OFFCURVE",
"133 56 OFFCURVE",
"152 56 CURVE SMOOTH",
"171 56 OFFCURVE",
"205 66 OFFCURVE",
"205 66 CURVE"
);
}
);
width = 339;
}
);
unicode = 0101;
},
{
glyphname = aring;
layers = (
{
layerId = master01;
paths = (
{
closed = 1;
nodes = (
"356 63 OFFCURVE",
"297 0 OFFCURVE",
"248 0 CURVE SMOOTH",
"213 0 OFFCURVE",
"207 40 OFFCURVE",
"206 54 CURVE",
"153 17 OFFCURVE",
"115 -13 OFFCURVE",
"68 -13 CURVE SMOOTH",
"19 -13 OFFCURVE",
"18 89 OFFCURVE",
"18 89 CURVE",
"18 126 OFFCURVE",
"36 163 OFFCURVE",
"65 192 CURVE SMOOTH",
"117 244 OFFCURVE",
"220 304 OFFCURVE",
"229 304 CURVE SMOOTH",
"239 304 OFFCURVE",
"252 302 OFFCURVE",
"253 293 CURVE SMOOTH",
"260 208 OFFCURVE",
"263 120 OFFCURVE",
"273 83 CURVE SMOOTH",
"278 66 OFFCURVE",
"289 62 OFFCURVE",
"302 62 CURVE SMOOTH",
"314 62 OFFCURVE",
"344 75 OFFCURVE",
"361 85 CURVE",
"365 74 LINE"
);
},
{
closed = 1;
nodes = (
"203 84 OFFCURVE",
"205 180 OFFCURVE",
"199 227 CURVE SMOOTH",
"198 239 OFFCURVE",
"192 243 OFFCURVE",
"191 247 CURVE",
"159 227 OFFCURVE",
"83 185 OFFCURVE",
"83 131 CURVE SMOOTH",
"83 75 OFFCURVE",
"133 56 OFFCURVE",
"152 56 CURVE SMOOTH",
"171 56 OFFCURVE",
"205 66 OFFCURVE",
"205 66 CURVE"
);
}
);
width = 339;
}
);
unicode = 00E5;
},
{
glyphname = atilde;
layers = (
{
layerId = master01;
paths = (
{
closed = 1;
nodes = (
"356 63 OFFCURVE",
"297 0 OFFCURVE",
"248 0 CURVE SMOOTH",
"213 0 OFFCURVE",
"207 40 OFFCURVE",
"206 54 CURVE",
"153 17 OFFCURVE",
"115 -13 OFFCURVE",
"68 -13 CURVE SMOOTH",
"19 -13 OFFCURVE",
"18 89 OFFCURVE",
"18 89 CURVE",
"18 126 OFFCURVE",
"36 163 OFFCURVE",
"65 192 CURVE SMOOTH",
"117 244 OFFCURVE",
"220 304 OFFCURVE",
"229 304 CURVE SMOOTH",
"239 304 OFFCURVE",
"252 302 OFFCURVE",
"253 293 CURVE SMOOTH",
"260 208 OFFCURVE",
"263 120 OFFCURVE",
"273 83 CURVE SMOOTH",
"278 66 OFFCURVE",
"289 62 OFFCURVE",
"302 62 CURVE SMOOTH",
"314 62 OFFCURVE",
"344 75 OFFCURVE",
"361 85 CURVE",
"365 74 LINE"
);
},
{
closed = 1;
nodes = (
"203 84 OFFCURVE",
"205 180 OFFCURVE",
"199 227 CURVE SMOOTH",
"198 239 OFFCURVE",
"192 243 OFFCURVE",
"191 247 CURVE",
"159 227 OFFCURVE",
"83 185 OFFCURVE",
"83 131 CURVE SMOOTH",
"83 75 OFFCURVE",
"133 56 OFFCURVE",
"152 56 CURVE SMOOTH",
"171 56 OFFCURVE",
"205 66 OFFCURVE",
"205 66 CURVE"
);
},
{
closed = 1;
nodes = (
"13.859 433.775 OFFCURVE",
"40.848 454.137 OFFCURVE",
"57.959 468.063 CURVE SMOOTH",
"64.122 473.081 OFFCURVE",
"75.936 480.263 OFFCURVE",
"85.798 480.263 CURVE SMOOTH",
"93.189 480.263 OFFCURVE",
"99.483 476.229 OFFCURVE",
"101.479 464.224 CURVE SMOOTH",
"104.796 444.267 OFFCURVE",
"121.086 432.861 OFFCURVE",
"140.019 432.861 CURVE SMOOTH",
"147.661 432.861 OFFCURVE",
"155.734 434.72 OFFCURVE",
"163.559 438.624 CURVE SMOOTH",
"179.957 446.807 OFFCURVE",
"198.7 455.901 OFFCURVE",
"217.959 462.423 CURVE SMOOTH",
"227.872 465.779 OFFCURVE",
"237.752 469.417 OFFCURVE",
"250.003 469.417 CURVE SMOOTH",
"281.411 469.417 OFFCURVE",
"301.713 447.123 OFFCURVE",
"319.719 432.224 CURVE SMOOTH",
"326.726 426.426 OFFCURVE",
"331.637 417.373 OFFCURVE",
"331.637 408.185 CURVE SMOOTH",
"331.637 401.335 OFFCURVE",
"328.906 394.41 OFFCURVE",
"322.278 388.704 CURVE SMOOTH",
"307.054 375.597 OFFCURVE",
"289.001 351 OFFCURVE",
"263 351 CURVE SMOOTH",
"228.542 351 OFFCURVE",
"240.79 421.823 OFFCURVE",
"198.813 421.823 CURVE SMOOTH",
"194.498 421.823 OFFCURVE",
"189.609 421.075 OFFCURVE",
"184.039 419.424 CURVE SMOOTH",
"149.735 409.259 OFFCURVE",
"122.39 392.589 OFFCURVE",
"90.599 379.104 CURVE SMOOTH",
"83.342 376.026 OFFCURVE",
"73.49 374.364 OFFCURVE",
"63.267 374.364 CURVE SMOOTH",
"39.562 374.364 OFFCURVE",
"13.859 383.296 OFFCURVE",
"13.859 404.205 CURVE SMOOTH"
);
}
);
width = 339;
}
);
unicode = 00E3;
},
{
glyphname = ae;
layers = (
{
anchors = (
{
name = Above;
position = "{233, 350}";
},
{
name = Below;
position = "{221, -50}";
}
);
layerId = master01;
paths = (
{
closed = 1;
nodes = (
"504 178 OFFCURVE",
"504.75 176.001 OFFCURVE",
"504.75 173.626 CURVE SMOOTH",
"504.75 171.251 OFFCURVE",
"504 168.501 OFFCURVE",
"502 166.001 CURVE SMOOTH",
"495 159.001 OFFCURVE",
"465 136.001 OFFCURVE",
"450 133.001 CURVE SMOOTH",
"419 127.001 OFFCURVE",
"366 127.001 OFFCURVE",
"313 127.001 CURVE SMOOTH",
"302 127.001 OFFCURVE",
"287 124.001 OFFCURVE",
"278 119.001 CURVE",
"278 85.001 LINE SMOOTH",
"278 55.001 OFFCURVE",
"312 35.001 OFFCURVE",
"342 35.001 CURVE SMOOTH",
"367 35.001 OFFCURVE",
"410 51.001 OFFCURVE",
"417 53.001 CURVE SMOOTH",
"422 51.001 OFFCURVE",
"424 45.001 OFFCURVE",
"420 40.001 CURVE SMOOTH",
"401 23.001 OFFCURVE",
"342 -16.999 OFFCURVE",
"293 -16.999 CURVE SMOOTH",
"270 -16.999 OFFCURVE",
"227 0 OFFCURVE",
"210 49.001 CURVE",
"185 28.001 OFFCURVE",
"148 -4 OFFCURVE",
"94 -4 CURVE SMOOTH",
"34 -4 OFFCURVE",
"7 9 OFFCURVE",
"7 62.001 CURVE SMOOTH",
"7 139.001 OFFCURVE",
"158 247.001 OFFCURVE",
"280 262.001 CURVE",
"296 272.001 OFFCURVE",
"336 298.001 OFFCURVE",
"360 298.001 CURVE SMOOTH",
"407 298.001 OFFCURVE",
"426 270.001 OFFCURVE",
"426 236.001 CURVE SMOOTH",
"426 205.001 OFFCURVE",
"417 192.001 OFFCURVE",
"406 175.001 CURVE",
"420.641 174.269 OFFCURVE",
"432.87 173.805 OFFCURVE",
"444.209 173.805 CURVE SMOOTH",
"463.847 173.805 OFFCURVE",
"480.811 175.196 OFFCURVE",
"503 179 CURVE SMOOTH"
);
},
{
closed = 1;
nodes = (
"374 246.001 OFFCURVE",
"374 268.001 OFFCURVE",
"344 268.001 CURVE SMOOTH",
"333 268.001 OFFCURVE",
"295 254.001 OFFCURVE",
"278 239.001 CURVE",
"278 155.001 LINE",
"299 165.001 OFFCURVE",
"341 172.001 OFFCURVE",
"360 173.001 CURVE",
"360 173.001 OFFCURVE",
"374 201.001 OFFCURVE",
"374 226.001 CURVE SMOOTH"
);
},
{
closed = 1;
nodes = (
"206 206.001 LINE",
"144 190.001 OFFCURVE",
"83 147.001 OFFCURVE",
"83 109.001 CURVE SMOOTH",
"83 58.001 OFFCURVE",
"123 49.001 OFFCURVE",
"141 49.001 CURVE SMOOTH",
"178 49.001 OFFCURVE",
"174 53.001 OFFCURVE",
"206 67.001 CURVE"
);
}
);
width = 481;
}
);
unicode = 00E6;
},
{
glyphname = aeacute;
layers = (
{
layerId = master01;
paths = (
{
closed = 1;
nodes = (
"433.759 529.106 OFFCURVE",
"433.787 528.486 OFFCURVE",
"433.787 527.853 CURVE SMOOTH",
"433.787 514.853 OFFCURVE",
"421.556 495.854 OFFCURVE",
"405.482 488.179 CURVE",
"382.468 488.705 OFFCURVE",
"364.98 500.14 OFFCURVE",
"345 500.14 CURVE SMOOTH",
"318.323 500.14 OFFCURVE",
"305.737 489.642 OFFCURVE",
"283.095 467 CURVE SMOOTH",
"259.095 443 OFFCURVE",
"231.095 404 OFFCURVE",
"197.095 357 CURVE",
"193.272 361.403 LINE",
"210.714 394.941 OFFCURVE",
"249.095 448 OFFCURVE",
"308.745 512.754 CURVE SMOOTH",
"332.308 538.332 OFFCURVE",
"350.626 554.095 OFFCURVE",
"383.272 554.095 CURVE SMOOTH",
"402.419 554.095 OFFCURVE",
"420.118 546.817 OFFCURVE",
"433.699 529.71 CURVE"
);
},
{
closed = 1;
nodes = (
"504 178 OFFCURVE",
"504.75 176.001 OFFCURVE",
"504.75 173.626 CURVE SMOOTH",
"504.75 171.251 OFFCURVE",
"504 168.501 OFFCURVE",
"502 166.001 CURVE SMOOTH",
"495 159.001 OFFCURVE",
"465 136.001 OFFCURVE",
"450 133.001 CURVE SMOOTH",
"419 127.001 OFFCURVE",
"366 127.001 OFFCURVE",
"313 127.001 CURVE SMOOTH",
"302 127.001 OFFCURVE",
"287 124.001 OFFCURVE",
"278 119.001 CURVE",
"278 85.001 LINE SMOOTH",
"278 55.001 OFFCURVE",
"312 35.001 OFFCURVE",
"342 35.001 CURVE SMOOTH",
"367 35.001 OFFCURVE",
"410 51.001 OFFCURVE",
"417 53.001 CURVE SMOOTH",
"422 51.001 OFFCURVE",
"424 45.001 OFFCURVE",
"420 40.001 CURVE SMOOTH",
"401 23.001 OFFCURVE",
"342 -16.999 OFFCURVE",
"293 -16.999 CURVE SMOOTH",
"270 -16.999 OFFCURVE",
"227 0 OFFCURVE",
"210 49.001 CURVE",
"185 28.001 OFFCURVE",
"148 -4 OFFCURVE",
"94 -4 CURVE SMOOTH",
"34 -4 OFFCURVE",
"7 9 OFFCURVE",
"7 62.001 CURVE SMOOTH",
"7 139.001 OFFCURVE",
"158 247.001 OFFCURVE",
"280 262.001 CURVE",
"296 272.001 OFFCURVE",
"336 298.001 OFFCURVE",
"360 298.001 CURVE SMOOTH",
"407 298.001 OFFCURVE",
"426 270.001 OFFCURVE",
"426 236.001 CURVE SMOOTH",
"426 205.001 OFFCURVE",
"417 192.001 OFFCURVE",
"406 175.001 CURVE",
"420.641 174.269 OFFCURVE",
"432.87 173.805 OFFCURVE",
"444.209 173.805 CURVE SMOOTH",
"463.847 173.805 OFFCURVE",
"480.811 175.196 OFFCURVE",
"503 179 CURVE SMOOTH"
);
},
{
closed = 1;
nodes = (
"374 246.001 OFFCURVE",
"374 268.001 OFFCURVE",
"344 268.001 CURVE SMOOTH",
"333 268.001 OFFCURVE",
"295 254.001 OFFCURVE",
"278 239.001 CURVE",
"278 155.001 LINE",
"299 165.001 OFFCURVE",
"341 172.001 OFFCURVE",
"360 173.001 CURVE",
"360 173.001 OFFCURVE",
"374 201.001 OFFCURVE",
"374 226.001 CURVE SMOOTH"
);
},
{
closed = 1;
nodes = (
"206 206.001 LINE",
"144 190.001 OFFCURVE",
"83 147.001 OFFCURVE",
"83 109.001 CURVE SMOOTH",
"83 58.001 OFFCURVE",
"123 49.001 OFFCURVE",
"141 49.001 CURVE SMOOTH",
"178 49.001 OFFCURVE",
"174 53.001 OFFCURVE",
"206 67.001 CURVE"
);
}
);
width = 481;
}
);
unicode = 01FD;
},
{
glyphname = uni01E3;
layers = (
{
layerId = master01;
paths = (
{
closed = 1;
nodes = (
"504 178 OFFCURVE",
"504.75 176.001 OFFCURVE",
"504.75 173.626 CURVE SMOOTH",
"504.75 171.251 OFFCURVE",
"504 168.501 OFFCURVE",
"502 166.001 CURVE SMOOTH",
"495 159.001 OFFCURVE",
"465 136.001 OFFCURVE",
"450 133.001 CURVE SMOOTH",
"419 127.001 OFFCURVE",
"366 127.001 OFFCURVE",
"313 127.001 CURVE SMOOTH",
"302 127.001 OFFCURVE",
"287 124.001 OFFCURVE",
"278 119.001 CURVE",
"278 85.001 LINE SMOOTH",
"278 55.001 OFFCURVE",
"312 35.001 OFFCURVE",
"342 35.001 CURVE SMOOTH",
"367 35.001 OFFCURVE",
"410 51.001 OFFCURVE",
"417 53.001 CURVE SMOOTH",
"422 51.001 OFFCURVE",
"424 45.001 OFFCURVE",
"420 40.001 CURVE SMOOTH",
"401 23.001 OFFCURVE",
"342 -16.999 OFFCURVE",
"293 -16.999 CURVE SMOOTH",
"270 -16.999 OFFCURVE",
"227 0 OFFCURVE",
"210 49.001 CURVE",
"185 28.001 OFFCURVE",
"148 -4 OFFCURVE",
"94 -4 CURVE SMOOTH",
"34 -4 OFFCURVE",
"7 9 OFFCURVE",
"7 62.001 CURVE SMOOTH",
"7 139.001 OFFCURVE",
"158 247.001 OFFCURVE",
"280 262.001 CURVE",
"296 272.001 OFFCURVE",
"336 298.001 OFFCURVE",
"360 298.001 CURVE SMOOTH",
"407 298.001 OFFCURVE",
"426 270.001 OFFCURVE",
"426 236.001 CURVE SMOOTH",
"426 205.001 OFFCURVE",
"417 192.001 OFFCURVE",
"406 175.001 CURVE",
"420.641 174.269 OFFCURVE",
"432.87 173.805 OFFCURVE",
"444.209 173.805 CURVE SMOOTH",
"463.847 173.805 OFFCURVE",
"480.811 175.196 OFFCURVE",
"503 179 CURVE SMOOTH"
);
},
{
closed = 1;
nodes = (
"374 246.001 OFFCURVE",
"374 268.001 OFFCURVE",
"344 268.001 CURVE SMOOTH",
"333 268.001 OFFCURVE",
"295 254.001 OFFCURVE",
"278 239.001 CURVE",
"278 155.001 LINE",
"299 165.001 OFFCURVE",
"341 172.001 OFFCURVE",
"360 173.001 CURVE",
"360 173.001 OFFCURVE",
"374 201.001 OFFCURVE",
"374 226.001 CURVE SMOOTH"
);
},
{
closed = 1;
nodes = (
"206 206.001 LINE",
"144 190.001 OFFCURVE",
"83 147.001 OFFCURVE",
"83 109.001 CURVE SMOOTH",
"83 58.001 OFFCURVE",
"123 49.001 OFFCURVE",
"141 49.001 CURVE SMOOTH",
"178 49.001 OFFCURVE",
"174 53.001 OFFCURVE",
"206 67.001 CURVE"
);
},
{
closed = 1;
nodes = (
"408 455.001 OFFCURVE",
"378 412.001 OFFCURVE",
"350 412.001 CURVE SMOOTH",
"336 412.001 OFFCURVE",
"333 434.001 OFFCURVE",
"322 434.001 CURVE SMOOTH",
"294 434.001 OFFCURVE",
"179 415.001 OFFCURVE",
"152 415.001 CURVE SMOOTH",
"129 415.001 OFFCURVE",
"115 417.001 OFFCURVE",
"115 435.001 CURVE SMOOTH",
"115 452.001 OFFCURVE",
"144 489.001 OFFCURVE",
"168 489.001 CURVE SMOOTH",
"184 489.001 OFFCURVE",
"181 468.001 OFFCURVE",
"205 468.001 CURVE SMOOTH",
"244 468.001 OFFCURVE",
"332 489.001 OFFCURVE",
"364 489.001 CURVE SMOOTH",
"384 489.001 OFFCURVE",
"408 489.001 OFFCURVE",
"408 471.001 CURVE SMOOTH"
);
}
);
width = 481;
}
);
unicode = 01E3;
},
{
glyphname = b;
layers = (
{
anchors = (
{
name = Above;
position = "{185, 720}";
},
{
name = Below;
position = "{168, -50}";
}
);
layerId = master01;
paths = (
{
closed = 1;
nodes = (
"322 27 OFFCURVE",
"127 -15 OFFCURVE",
"114 -15 CURVE SMOOTH",
"64 -15 OFFCURVE",
"23 51 OFFCURVE",
"23 73 CURVE SMOOTH",
"23 91 OFFCURVE",
"46 174 OFFCURVE",
"58 242 CURVE SMOOTH",
"77 351 OFFCURVE",
"78 390 OFFCURVE",
"78 507 CURVE SMOOTH",
"78 562 OFFCURVE",
"62 609 OFFCURVE",
"-2 609 CURVE SMOOTH",
"-5 611 OFFCURVE",
"-7 615 OFFCURVE",
"-7 620 CURVE SMOOTH",
"-7 626 OFFCURVE",
"-5 632 OFFCURVE",
"-2 635 CURVE SMOOTH",
"15 650 OFFCURVE",
"96 693 OFFCURVE",
"111 693 CURVE SMOOTH",
"139 693 OFFCURVE",
"166 660 OFFCURVE",
"166 614 CURVE SMOOTH",
"166 597 OFFCURVE",
"152 591 OFFCURVE",
"141 497 CURVE SMOOTH",
"126 367 OFFCURVE",
"123 307 OFFCURVE",
"123 191 CURVE",
"137 201 OFFCURVE",
"201 238 OFFCURVE",
"251 238 CURVE SMOOTH",
"310 238 OFFCURVE",
"322 159 OFFCURVE",
"322 100 CURVE SMOOTH"
);
},
{
closed = 1;
nodes = (
"245 155 OFFCURVE",
"209 180 OFFCURVE",
"177 180 CURVE SMOOTH",
"164 180 LINE SMOOTH",
"152 180 OFFCURVE",
"140 177 OFFCURVE",
"124 154 CURVE",
"124 104 LINE SMOOTH",
"124 62 OFFCURVE",
"157 50 OFFCURVE",
"189 50 CURVE SMOOTH",
"235 50 OFFCURVE",
"245 67 OFFCURVE",
"245 129 CURVE SMOOTH"
);
}
);
width = 334;
}
);
unicode = 0062;
},
{
glyphname = c;
layers = (
{
anchors = (
{
name = Above;
position = "{133, 350}";
},
{
name = Below;
position = "{119, -50}";
}
);
layerId = master01;
paths = (
{
closed = 1;
nodes = (
"206 15 OFFCURVE",
"171 -11 OFFCURVE",
"114 -11 CURVE SMOOTH",
"93 -11 OFFCURVE",
"21 19 OFFCURVE",
"21 143 CURVE SMOOTH",
"21 232 OFFCURVE",
"110 297 OFFCURVE",
"140 297 CURVE SMOOTH",
"182 297 OFFCURVE",
"213 263 OFFCURVE",
"213 226 CURVE",
"209 213 OFFCURVE",
"178 185 OFFCURVE",
"165 185 CURVE SMOOTH",
"139 192 OFFCURVE",
"132 233 OFFCURVE",
"101 233 CURVE SMOOTH",
"81 233 OFFCURVE",
"59 213 OFFCURVE",
"59 186 CURVE SMOOTH",
"59 146 OFFCURVE",
"125 43 OFFCURVE",
"168 43 CURVE SMOOTH",
"198 43 OFFCURVE",
"221 51 OFFCURVE",
"233 55 CURVE SMOOTH",
"234.5 53.5 OFFCURVE",
"235.25 51.75 OFFCURVE",
"235.25 49.875 CURVE SMOOTH",
"235.25 48 OFFCURVE",
"234.5 46 OFFCURVE",
"233 44 CURVE SMOOTH"
);
}
);
width = 238;
}
);
unicode = 0063;
},
{
glyphname = ccedilla;
layers = (
{
layerId = master01;
paths = (
{
closed = 1;
nodes = (
"2.729 -134.393 OFFCURVE",
"6.057 -131.064 OFFCURVE",
"12.712 -127.992 CURVE SMOOTH",
"40.36 -115.32 LINE SMOOTH",
"43.31 -113.893 OFFCURVE",
"46.19 -113.106 OFFCURVE",
"49 -113.106 CURVE SMOOTH",
"53.747 -113.106 OFFCURVE",
"58.29 -114.916 OFFCURVE",
"62.632 -118.775 CURVE SMOOTH",
"68.451 -123.845 OFFCURVE",
"82.538 -135.781 OFFCURVE",
"92.586 -135.781 CURVE SMOOTH",
"96.525 -135.781 OFFCURVE",
"99.844 -133.946 OFFCURVE",
"101.8 -129.144 CURVE SMOOTH",
"103.592 -124.536 OFFCURVE",
"104.488 -119.8 OFFCURVE",
"104.488 -114.936 CURVE SMOOTH",
"104.488 -106.744 OFFCURVE",
"101.736 -99.256 OFFCURVE",
"96.232 -92.472 CURVE SMOOTH",
"90.728 -85.689 OFFCURVE",
"79.912 -76.024 OFFCURVE",
"63.784 -63.48 CURVE SMOOTH",
"60.569 -61.047 OFFCURVE",
"58.961 -58.333 OFFCURVE",
"58.961 -55.34 CURVE SMOOTH",
"58.961 -49.514 OFFCURVE",
"65.049 -42.627 OFFCURVE",
"77.225 -34.68 CURVE SMOOTH",
"113.576 -10.996 LINE",
"92.049 -10.598 OFFCURVE",
"21 19.822 OFFCURVE",
"21 143 CURVE SMOOTH",
"21 232 OFFCURVE",
"110 297 OFFCURVE",
"140 297 CURVE SMOOTH",
"182 297 OFFCURVE",
"213 263 OFFCURVE",
"213 226 CURVE",
"209 213 OFFCURVE",
"178 185 OFFCURVE",
"165 185 CURVE SMOOTH",
"139 192 OFFCURVE",
"132 233 OFFCURVE",
"101 233 CURVE SMOOTH",
"81 233 OFFCURVE",
"59 213 OFFCURVE",
"59 186 CURVE SMOOTH",
"59 146 OFFCURVE",
"125 43 OFFCURVE",
"168 43 CURVE SMOOTH",
"198 43 OFFCURVE",
"221 51 OFFCURVE",
"233 55 CURVE SMOOTH",
"234.5 53.5 OFFCURVE",
"235.25 51.75 OFFCURVE",
"235.25 49.875 CURVE SMOOTH",
"235.25 48 OFFCURVE",
"234.5 46 OFFCURVE",
"233 44 CURVE SMOOTH",
"213.922 23.508 OFFCURVE",
"190.849 4.515 OFFCURVE",
"158.843 -4.867 CURVE",
"128.68 -24.311 LINE SMOOTH",
"124.606 -26.939 OFFCURVE",
"122.53 -29.702 OFFCURVE",
"122.53 -32.6 CURVE SMOOTH",
"122.53 -35.349 OFFCURVE",
"124.298 -38.218 OFFCURVE",
"127.912 -41.208 CURVE SMOOTH",
"139.979 -51.196 OFFCURVE",
"161.704 -79.867 OFFCURVE",
"161.704 -101.111 CURVE SMOOTH",
"161.704 -132.833 OFFCURVE",
"113.758 -156.768 OFFCURVE",
"88.744 -165.24 CURVE SMOOTH",
"72.872 -170.615 OFFCURVE",
"62.376 -173.304 OFFCURVE",
"57.256 -173.304 CURVE SMOOTH",
"36.885 -173.304 OFFCURVE",
"17.607 -158.054 OFFCURVE",
"5.416 -144.12 CURVE SMOOTH",
"3.624 -142.072 OFFCURVE",
"2.729 -140.024 OFFCURVE",
"2.729 -137.976 CURVE SMOOTH"
);
}
);
width = 238;
}
);
unicode = 00E7;
},
{
glyphname = d;
layers = (
{
anchors = (
{
name = Above;
position = "{141, 561}";
},
{
name = Below;
position = "{131, -50}";
}
);
layerId = master01;
paths = (
{
closed = 1;
nodes = (
"264 21 OFFCURVE",
"136 -17 OFFCURVE",
"104 -17 CURVE SMOOTH",
"84 -17 OFFCURVE",
"16 1 OFFCURVE",
"16 85 CURVE SMOOTH",
"16 154 OFFCURVE",
"127 222 OFFCURVE",
"143 230 CURVE",
"114 291 OFFCURVE",
"55 399 OFFCURVE",
"-2 490 CURVE",
"-2 502 OFFCURVE",
"5 528 OFFCURVE",
"20 528 CURVE SMOOTH",
"39 528 OFFCURVE",
"44 527 OFFCURVE",
"52 523 CURVE",
"123 422 OFFCURVE",
"264 218 OFFCURVE",
"264 127 CURVE SMOOTH"
);
},
{
closed = 1;
nodes = (
"201 122 OFFCURVE",
"177 171 OFFCURVE",
"161 196 CURVE",
"138 196 OFFCURVE",
"78 153 OFFCURVE",
"78 127 CURVE SMOOTH",
"78 85 OFFCURVE",
"95 26 OFFCURVE",
"150 26 CURVE SMOOTH",
"181 26 OFFCURVE",
"201 54 OFFCURVE",
"201 83 CURVE SMOOTH"
);
}
);
width = 274;
}
);
unicode = 0064;
},
{
glyphname = eth;
layers = (
{
anchors = (
{
name = Above;
position = "{163, 634}";
},
{
name = Below;
position = "{151, -50}";
}
);
layerId = master01;
paths = (
{
closed = 1;
nodes = (
"351 377 OFFCURVE",
"339 353 OFFCURVE",
"320 353 CURVE SMOOTH",
"307.774 353 OFFCURVE",
"274.324 361.305 OFFCURVE",
"245.035 361.305 CURVE SMOOTH",
"231.205 361.305 OFFCURVE",
"218.302 359.453 OFFCURVE",
"209 354 CURVE",
"228 314 OFFCURVE",
"281 153 OFFCURVE",
"281 96 CURVE SMOOTH",
"281 4 OFFCURVE",
"183 -11 OFFCURVE",
"116 -11 CURVE SMOOTH",
"38 -11 OFFCURVE",
"29 56 OFFCURVE",
"29 80 CURVE SMOOTH",
"29 177 OFFCURVE",
"127 226 OFFCURVE",
"178 241 CURVE",
"173 261 OFFCURVE",
"165 283 OFFCURVE",
"155 305 CURVE",
"3 196 LINE",
"-30 202 LINE",
"-13 246 OFFCURVE",
"41 294 OFFCURVE",
"52 299 CURVE SMOOTH",
"63 306 OFFCURVE",
"99 307 OFFCURVE",
"143 329 CURVE",
"119 419 OFFCURVE",
"56 517 OFFCURVE",
"41 555 CURVE",
"41 582 OFFCURVE",
"53 592 OFFCURVE",
"65 592 CURVE SMOOTH",
"74 592 OFFCURVE",
"85 590 OFFCURVE",
"85 590 CURVE",
"111 561 OFFCURVE",
"182 427 OFFCURVE",
"199 373 CURVE",
"213 384 OFFCURVE",
"293 440 OFFCURVE",
"306 448 CURVE",
"327 448 OFFCURVE",
"351 422 OFFCURVE",
"351 398 CURVE SMOOTH"
);
},
{
closed = 1;
nodes = (
"215 140 OFFCURVE",
"202 181 OFFCURVE",
"186 215 CURVE",
"166 215 OFFCURVE",
"81 184 OFFCURVE",
"81 123 CURVE SMOOTH",
"81 77 OFFCURVE",
"142 23 OFFCURVE",
"182 23 CURVE SMOOTH",
"212 23 OFFCURVE",
"215 32 OFFCURVE",
"215 97 CURVE SMOOTH"
);
}
);
width = 293;
}
);
unicode = 00F0;
},
{
glyphname = e;
layers = (
{
anchors = (
{
name = Above;
position = "{191, 350}";
},
{
name = Below;
position = "{132, -50}";
}
);
layerId = master01;
paths = (
{
closed = 1;
nodes = (
"319 168 OFFCURVE",
"280 145 OFFCURVE",
"214 145 CURVE SMOOTH",
"173 145 OFFCURVE",
"118 145 OFFCURVE",
"91 140 CURVE",
"96 110 OFFCURVE",
"132 46 OFFCURVE",
"186 46 CURVE SMOOTH",
"212 46 OFFCURVE",
"239 56 OFFCURVE",
"254 61 CURVE SMOOTH",
"259 60 OFFCURVE",
"261 55 OFFCURVE",
"258 49 CURVE SMOOTH",
"225 16 OFFCURVE",
"191 -15 OFFCURVE",
"131 -15 CURVE SMOOTH",
"55 -15 OFFCURVE",
"22 84 OFFCURVE",
"22 132 CURVE SMOOTH",
"22 150 OFFCURVE",
"24 167 OFFCURVE",
"28 181 CURVE SMOOTH",
"64 268 OFFCURVE",
"142 297 OFFCURVE",
"195 297 CURVE SMOOTH",
"231 297 OFFCURVE",
"254 276 OFFCURVE",
"254 244 CURVE SMOOTH",
"254 230 OFFCURVE",
"248 209 OFFCURVE",
"233 191 CURVE",
"247 191 LINE SMOOTH",
"301 191 OFFCURVE",
"319 201 OFFCURVE",
"343 205 CURVE SMOOTH",
"345 204 OFFCURVE",
"347 200 OFFCURVE",
"347 197 CURVE SMOOTH",
"347 194 OFFCURVE",
"346 191 OFFCURVE",
"344 189 CURVE SMOOTH"
);
},
{
closed = 1;
nodes = (
"188 237 OFFCURVE",
"175 248 OFFCURVE",
"145 248 CURVE SMOOTH",
"111 248 OFFCURVE",
"82 231 OFFCURVE",
"82 177 CURVE",
"109 184 OFFCURVE",
"141 189 OFFCURVE",
"184 190 CURVE",
"187 198 OFFCURVE",
"188 207 OFFCURVE",
"188 214 CURVE SMOOTH"
);
}
);
width = 321;
}
);
unicode = 0065;
},
{
glyphname = eacute;
layers = (
{
layerId = master01;
paths = (
{
closed = 1;
nodes = (
"334.759 529.106 OFFCURVE",
"334.787 528.486 OFFCURVE",
"334.787 527.853 CURVE SMOOTH",
"334.787 514.853 OFFCURVE",
"322.556 495.854 OFFCURVE",
"306.482 488.179 CURVE",
"283.468 488.705 OFFCURVE",
"265.98 500.14 OFFCURVE",
"246 500.14 CURVE SMOOTH",
"219.323 500.14 OFFCURVE",
"206.737 489.642 OFFCURVE",
"184.095 467 CURVE SMOOTH",
"160.095 443 OFFCURVE",
"132.095 404 OFFCURVE",
"98.095 357 CURVE",
"94.272 361.403 LINE",
"111.714 394.941 OFFCURVE",
"150.095 448 OFFCURVE",
"209.745 512.754 CURVE SMOOTH",
"233.308 538.332 OFFCURVE",
"251.626 554.095 OFFCURVE",
"284.272 554.095 CURVE SMOOTH",
"303.419 554.095 OFFCURVE",
"321.118 546.817 OFFCURVE",
"334.699 529.71 CURVE"
);
},
{
closed = 1;
nodes = (
"319 168 OFFCURVE",
"280 145 OFFCURVE",
"214 145 CURVE SMOOTH",
"173 145 OFFCURVE",
"118 145 OFFCURVE",
"91 140 CURVE",
"96 110 OFFCURVE",
"132 46 OFFCURVE",
"186 46 CURVE SMOOTH",
"212 46 OFFCURVE",
"239 56 OFFCURVE",
"254 61 CURVE SMOOTH",
"259 60 OFFCURVE",
"261 55 OFFCURVE",
"258 49 CURVE SMOOTH",
"225 16 OFFCURVE",
"191 -15 OFFCURVE",
"131 -15 CURVE SMOOTH",
"55 -15 OFFCURVE",
"22 84 OFFCURVE",
"22 132 CURVE SMOOTH",
"22 150 OFFCURVE",
"24 167 OFFCURVE",
"28 181 CURVE SMOOTH",
"64 268 OFFCURVE",
"142 297 OFFCURVE",
"195 297 CURVE SMOOTH",
"231 297 OFFCURVE",
"254 276 OFFCURVE",
"254 244 CURVE SMOOTH",
"254 230 OFFCURVE",
"248 209 OFFCURVE",
"233 191 CURVE",
"237.938 190.848 OFFCURVE",
"242.61 190.776 OFFCURVE",
"247.04 190.776 CURVE SMOOTH",
"300.927 190.776 OFFCURVE",
"318.975 201.304 OFFCURVE",
"343 205 CURVE SMOOTH",
"345.246 203.877 OFFCURVE",
"346.546 200.231 OFFCURVE",
"346.546 196.542 CURVE SMOOTH",
"346.546 193.661 OFFCURVE",
"345.754 190.754 OFFCURVE",
"344 189 CURVE SMOOTH"
);
},
{
closed = 1;
nodes = (
"188 237 OFFCURVE",
"175 248 OFFCURVE",
"145 248 CURVE SMOOTH",
"111 248 OFFCURVE",
"82 231 OFFCURVE",
"82 177 CURVE",
"109 184 OFFCURVE",
"141 189 OFFCURVE",
"184 190 CURVE",
"187 198 OFFCURVE",
"188 207 OFFCURVE",
"188 214 CURVE SMOOTH"
);
}
);
width = 321;
}
);
unicode = 00E9;
},
{
glyphname = ecircumflex;
layers = (
{
layerId = master01;
paths = (
{
closed = 1;
nodes = (
"319 168 OFFCURVE",
"280 145 OFFCURVE",
"214 145 CURVE SMOOTH",
"173 145 OFFCURVE",
"118 145 OFFCURVE",
"91 140 CURVE",
"96 110 OFFCURVE",
"132 46 OFFCURVE",
"186 46 CURVE SMOOTH",
"212 46 OFFCURVE",
"239 56 OFFCURVE",
"254 61 CURVE SMOOTH",
"259 60 OFFCURVE",
"261 55 OFFCURVE",
"258 49 CURVE SMOOTH",
"225 16 OFFCURVE",
"191 -15 OFFCURVE",
"131 -15 CURVE SMOOTH",
"55 -15 OFFCURVE",
"22 84 OFFCURVE",
"22 132 CURVE SMOOTH",
"22 150 OFFCURVE",
"24 167 OFFCURVE",
"28 181 CURVE SMOOTH",
"64 268 OFFCURVE",
"142 297 OFFCURVE",
"195 297 CURVE SMOOTH",
"231 297 OFFCURVE",
"254 276 OFFCURVE",
"254 244 CURVE SMOOTH",
"254 230 OFFCURVE",
"248 209 OFFCURVE",
"233 191 CURVE",
"247 191 LINE SMOOTH",
"301 191 OFFCURVE",
"319 201 OFFCURVE",
"343 205 CURVE SMOOTH",
"345 204 OFFCURVE",
"347 200 OFFCURVE",
"347 197 CURVE SMOOTH",
"347 194 OFFCURVE",
"346 191 OFFCURVE",
"344 189 CURVE SMOOTH"
);
},
{
closed = 1;
nodes = (
"188 237 OFFCURVE",
"175 248 OFFCURVE",
"145 248 CURVE SMOOTH",
"111 248 OFFCURVE",
"82 231 OFFCURVE",
"82 177 CURVE",
"109 184 OFFCURVE",
"141 189 OFFCURVE",
"184 190 CURVE",
"187 198 OFFCURVE",
"188 207 OFFCURVE",
"188 214 CURVE SMOOTH"
);
},
{
closed = 1;
nodes = (
"25.237 386.252 OFFCURVE",
"28.758 398.111 OFFCURVE",
"36.227 406.101 CURVE SMOOTH",
"71.75 444.093 OFFCURVE",
"107.475 482.229 OFFCURVE",
"144.228 517.088 CURVE SMOOTH",
"148.071 520.734 OFFCURVE",
"157.154 523.492 OFFCURVE",
"165.027 523.492 CURVE SMOOTH",
"169.594 523.492 OFFCURVE",
"173.749 522.528 OFFCURVE",
"176.228 520.249 CURVE SMOOTH",
"214.49 485.056 OFFCURVE",
"251.031 445.261 OFFCURVE",
"287.646 406.101 CURVE SMOOTH",
"295.115 398.111 OFFCURVE",
"298.636 386.252 OFFCURVE",
"298.636 377.022 CURVE SMOOTH",
"298.636 369.165 OFFCURVE",
"296.077 363.137 OFFCURVE",
"291.246 363.137 CURVE SMOOTH",
"288.95 363.137 OFFCURVE",
"286.182 364.36 OFFCURVE",
"282.846 367.453 CURVE SMOOTH",
"248.949 398.879 OFFCURVE",
"215.952 432.202 OFFCURVE",
"181.827 463.661 CURVE SMOOTH",
"172.181 472.554 OFFCURVE",
"167.121 476.842 OFFCURVE",
"161.827 476.842 CURVE SMOOTH",
"156.831 476.842 OFFCURVE",
"151.708 472.641 OFFCURVE",
"142.627 464.322 CURVE SMOOTH",
"108.22 432.805 OFFCURVE",
"75.118 399.06 OFFCURVE",
"41.027 367.453 CURVE SMOOTH",
"37.691 364.36 OFFCURVE",
"34.923 363.137 OFFCURVE",
"32.627 363.137 CURVE SMOOTH",
"27.796 363.137 OFFCURVE",
"25.237 369.165 OFFCURVE",
"25.237 377.022 CURVE SMOOTH"
);
}
);
width = 321;
}
);
unicode = 00EA;
},
{
glyphname = edieresis;
layers = (
{
layerId = master01;
paths = (
{
closed = 1;
nodes = (
"319 168 OFFCURVE",
"280 145 OFFCURVE",
"214 145 CURVE SMOOTH",
"173 145 OFFCURVE",
"118 145 OFFCURVE",
"91 140 CURVE",
"96 110 OFFCURVE",
"132 46 OFFCURVE",
"186 46 CURVE SMOOTH",
"212 46 OFFCURVE",
"239 56 OFFCURVE",
"254 61 CURVE SMOOTH",
"259 60 OFFCURVE",
"261 55 OFFCURVE",
"258 49 CURVE SMOOTH",
"225 16 OFFCURVE",
"191 -15 OFFCURVE",
"131 -15 CURVE SMOOTH",
"55 -15 OFFCURVE",
"22 84 OFFCURVE",
"22 132 CURVE SMOOTH",
"22 150 OFFCURVE",
"24 167 OFFCURVE",
"28 181 CURVE SMOOTH",
"64 268 OFFCURVE",
"142 297 OFFCURVE",
"195 297 CURVE SMOOTH",
"231 297 OFFCURVE",
"254 276 OFFCURVE",
"254 244 CURVE SMOOTH",
"254 230 OFFCURVE",
"248 209 OFFCURVE",
"233 191 CURVE",
"247 191 LINE SMOOTH",
"301 191 OFFCURVE",
"319 201 OFFCURVE",
"343 205 CURVE SMOOTH",
"345 204 OFFCURVE",
"347 200 OFFCURVE",
"347 197 CURVE SMOOTH",
"347 194 OFFCURVE",
"346 191 OFFCURVE",
"344 189 CURVE SMOOTH"
);
},
{
closed = 1;
nodes = (
"188 237 OFFCURVE",
"175 248 OFFCURVE",
"145 248 CURVE SMOOTH",
"111 248 OFFCURVE",
"82 231 OFFCURVE",
"82 177 CURVE",
"109 184 OFFCURVE",
"141 189 OFFCURVE",
"184 190 CURVE",
"187 198 OFFCURVE",
"188 207 OFFCURVE",
"188 214 CURVE SMOOTH"
);
},
{
closed = 1;
nodes = (
"66.24 418.6 OFFCURVE",
"78.88 435.4 OFFCURVE",
"104.16 448.521 CURVE SMOOTH",
"111.2 452.36 OFFCURVE",
"117.12 454.28 OFFCURVE",
"121.92 454.28 CURVE SMOOTH",
"134.72 454.28 OFFCURVE",
"141.12 441.48 OFFCURVE",
"141.12 415.88 CURVE SMOOTH",
"141.12 389.904 OFFCURVE",
"140.539 385.939 OFFCURVE",
"124.32 375.561 CURVE SMOOTH",
"113.76 368.521 OFFCURVE",
"103.92 365 OFFCURVE",
"94.8 365 CURVE SMOOTH",
"74.582 365 OFFCURVE",
"66.24 381.083 OFFCURVE",
"66.24 398.12 CURVE SMOOTH"
);
},
{
closed = 1;
nodes = (
"205.44 418.6 OFFCURVE",
"218.08 435.4 OFFCURVE",
"243.36 448.521 CURVE SMOOTH",
"250.4 452.36 OFFCURVE",
"256.32 454.28 OFFCURVE",
"261.12 454.28 CURVE SMOOTH",
"273.92 454.28 OFFCURVE",
"280.32 441.48 OFFCURVE",
"280.32 415.88 CURVE SMOOTH",
"280.32 389.903 OFFCURVE",
"279.739 385.939 OFFCURVE",
"263.52 375.561 CURVE SMOOTH",
"252.96 368.521 OFFCURVE",
"243.12 365 OFFCURVE",
"234 365 CURVE SMOOTH",
"213.781 365 OFFCURVE",
"205.44 381.083 OFFCURVE",
"205.44 398.12 CURVE SMOOTH"
);
}
);
width = 321;
}
);
unicode = 00EB;
},
{
glyphname = egrave;
layers = (
{
layerId = master01;
paths = (
{
closed = 1;
nodes = (
"319 168 OFFCURVE",
"280 145 OFFCURVE",
"214 145 CURVE SMOOTH",
"173 145 OFFCURVE",
"118 145 OFFCURVE",
"91 140 CURVE",
"96 110 OFFCURVE",
"132 46 OFFCURVE",
"186 46 CURVE SMOOTH",
"212 46 OFFCURVE",
"239 56 OFFCURVE",
"254 61 CURVE SMOOTH",
"259 60 OFFCURVE",
"261 55 OFFCURVE",
"258 49 CURVE SMOOTH",
"225 16 OFFCURVE",
"191 -15 OFFCURVE",
"131 -15 CURVE SMOOTH",
"55 -15 OFFCURVE",
"22 84 OFFCURVE",
"22 132 CURVE SMOOTH",
"22 150 OFFCURVE",
"24 167 OFFCURVE",
"28 181 CURVE SMOOTH",
"64 268 OFFCURVE",
"142 297 OFFCURVE",
"195 297 CURVE SMOOTH",
"231 297 OFFCURVE",
"254 276 OFFCURVE",
"254 244 CURVE SMOOTH",
"254 230 OFFCURVE",
"248 209 OFFCURVE",
"233 191 CURVE",
"247 191 LINE SMOOTH",
"301 191 OFFCURVE",
"319 201 OFFCURVE",
"343 205 CURVE SMOOTH",
"345 204 OFFCURVE",
"347 200 OFFCURVE",
"347 197 CURVE SMOOTH",
"347 194 OFFCURVE",
"346 191 OFFCURVE",
"344 189 CURVE SMOOTH"
);
},
{
closed = 1;
nodes = (
"188 237 OFFCURVE",
"175 248 OFFCURVE",
"145 248 CURVE SMOOTH",
"111 248 OFFCURVE",
"82 231 OFFCURVE",
"82 177 CURVE",
"109 184 OFFCURVE",
"141 189 OFFCURVE",
"184 190 CURVE",
"187 198 OFFCURVE",
"188 207 OFFCURVE",
"188 214 CURVE SMOOTH"
);
},
{
closed = 1;
nodes = (
"8.882 546.817 OFFCURVE",
"26.581 554.095 OFFCURVE",
"45.727 554.095 CURVE SMOOTH",
"78.374 554.095 OFFCURVE",
"96.692 538.333 OFFCURVE",
"120.255 512.754 CURVE SMOOTH",
"179.905 448 OFFCURVE",
"218.286 394.941 OFFCURVE",
"235.728 361.403 CURVE",
"231.905 357 LINE",
"197.905 404 OFFCURVE",
"169.905 443 OFFCURVE",
"145.905 467 CURVE SMOOTH",
"123.263 489.643 OFFCURVE",
"110.677 500.14 OFFCURVE",
"84 500.14 CURVE SMOOTH",
"64.019 500.14 OFFCURVE",
"46.532 488.705 OFFCURVE",
"23.518 488.179 CURVE",
"7.444 495.854 OFFCURVE",
"-4.787 514.853 OFFCURVE",
"-4.787 527.853 CURVE SMOOTH",
"-4.787 528.486 OFFCURVE",
"-4.759 529.106 OFFCURVE",
"-4.699 529.71 CURVE"
);
}
);
width = 321;
}
);
unicode = 00E8;
},
{
glyphname = emacron;
layers = (
{
layerId = master01;
paths = (
{
closed = 1;
nodes = (
"319 168 OFFCURVE",
"280 145 OFFCURVE",
"214 145 CURVE SMOOTH",
"173 145 OFFCURVE",
"118 145 OFFCURVE",
"91 140 CURVE",
"96 110 OFFCURVE",
"132 46 OFFCURVE",
"186 46 CURVE SMOOTH",
"212 46 OFFCURVE",
"239 56 OFFCURVE",
"254 61 CURVE SMOOTH",
"259 60 OFFCURVE",
"261 55 OFFCURVE",
"258 49 CURVE SMOOTH",
"225 16 OFFCURVE",
"191 -15 OFFCURVE",
"131 -15 CURVE SMOOTH",
"55 -15 OFFCURVE",
"22 84 OFFCURVE",
"22 132 CURVE SMOOTH",
"22 150 OFFCURVE",
"24 167 OFFCURVE",
"28 181 CURVE SMOOTH",
"64 268 OFFCURVE",
"142 297 OFFCURVE",
"195 297 CURVE SMOOTH",
"231 297 OFFCURVE",
"254 276 OFFCURVE",
"254 244 CURVE SMOOTH",
"254 230 OFFCURVE",
"248 209 OFFCURVE",
"233 191 CURVE",
"237.938 190.848 OFFCURVE",
"242.61 190.776 OFFCURVE",
"247.04 190.776 CURVE SMOOTH",
"300.927 190.776 OFFCURVE",
"318.975 201.304 OFFCURVE",
"343 205 CURVE SMOOTH",
"345.246 203.877 OFFCURVE",
"346.546 200.231 OFFCURVE",
"346.546 196.542 CURVE SMOOTH",
"346.546 193.661 OFFCURVE",
"345.754 190.754 OFFCURVE",
"344 189 CURVE SMOOTH"
);
},
{
closed = 1;
nodes = (
"188 237 OFFCURVE",
"175 248 OFFCURVE",
"145 248 CURVE SMOOTH",
"111 248 OFFCURVE",
"82 231 OFFCURVE",
"82 177 CURVE",
"109 184 OFFCURVE",
"141 189 OFFCURVE",
"184 190 CURVE",
"187 198 OFFCURVE",
"188 207 OFFCURVE",
"188 214 CURVE SMOOTH"
);
},
{
closed = 1;
nodes = (
"318 455 OFFCURVE",
"288 412 OFFCURVE",
"260 412 CURVE SMOOTH",
"246 412 OFFCURVE",
"243 434 OFFCURVE",
"232 434 CURVE SMOOTH",
"204 434 OFFCURVE",
"89 415 OFFCURVE",
"62 415 CURVE SMOOTH",
"39 415 OFFCURVE",
"25 417 OFFCURVE",
"25 435 CURVE SMOOTH",
"25 452 OFFCURVE",
"54 489 OFFCURVE",
"78 489 CURVE SMOOTH",
"94 489 OFFCURVE",
"91 468 OFFCURVE",
"115 468 CURVE SMOOTH",
"154 468 OFFCURVE",
"242 489 OFFCURVE",
"274 489 CURVE SMOOTH",
"294 489 OFFCURVE",
"318 489 OFFCURVE",
"318 471 CURVE SMOOTH"
);
}
);
width = 321;
}
);
unicode = 0113;
},
